<svg width="160" height="160" viewBox="0 0 160 160" fill="none" xmlns="http://www.w3.org/2000/svg">
<g clip-path="url(#clip0_1_15733)">
<g clip-path="url(#clip1_1_15733)">
<path d="M208 0H-48V160H208V0Z" fill="#74ACDF"/>
<path d="M208 53.3345H-48V106.669H208V53.3345Z" fill="white"/>
<path d="M78.9889 80.4195L88.0942 100.257C88.0942 100.257 88.2508 100.636 88.5038 100.532C88.7566 100.427 88.5994 100.048 88.5994 100.048L81.0106 79.582M80.793 87.3004C80.6821 90.3173 82.5378 91.9766 82.2952 94.6707C82.053 97.3651 83.5327 98.8883 83.8758 99.936C84.2193 100.984 83.5046 101.61 83.8125 101.759C84.1208 101.909 84.7949 101.081 84.5751 99.5912C84.3554 98.1016 83.2246 97.6594 83.4904 94.3688C83.756 91.0782 82.1445 90.3118 82.5368 87.3102" fill="#F6B40E"/>
<path fill-rule="evenodd" clip-rule="evenodd" d="M88.7653 99.9838L81.1773 79.52L80.8437 79.6437L88.4337 100.113L88.4347 100.115L88.4348 100.116L88.435 100.116L88.4352 100.117C88.4358 100.118 88.4368 100.121 88.4382 100.125C88.4409 100.132 88.4449 100.144 88.4491 100.158C88.4578 100.188 88.4662 100.226 88.4689 100.263C88.4749 100.346 88.4529 100.36 88.4358 100.367M88.7653 99.9838L88.7668 99.9876C88.7679 99.9905 88.7693 99.9942 88.7709 99.9986C88.7715 100 88.7722 100.002 88.7729 100.004C88.7778 100.018 88.7841 100.036 88.7907 100.059C88.8036 100.104 88.8187 100.167 88.8237 100.238C88.8332 100.37 88.8073 100.598 88.5716 100.696C88.336 100.793 88.1564 100.65 88.0696 100.55C88.0233 100.496 87.989 100.441 87.9666 100.4C87.9553 100.379 87.9465 100.362 87.9403 100.348C87.9385 100.344 87.9368 100.341 87.9354 100.338C87.9345 100.336 87.9338 100.334 87.9331 100.333L87.9309 100.328L82.694 88.9182C82.772 89.5635 82.9492 90.109 83.135 90.6756L83.1411 90.6942C83.4617 91.672 83.8025 92.7116 83.6676 94.3829C83.5366 96.0039 83.75 96.9098 84.0162 97.5904C84.1036 97.8138 84.1941 98.0078 84.2843 98.2009C84.336 98.3117 84.3875 98.4222 84.4383 98.5378C84.5744 98.8477 84.6928 99.1708 84.751 99.565C84.8653 100.34 84.7492 100.956 84.5521 101.367C84.4542 101.571 84.3326 101.732 84.2014 101.833C84.0761 101.93 83.9016 102 83.7349 101.919C83.6574 101.882 83.5982 101.82 83.5712 101.735C83.5475 101.66 83.5547 101.584 83.566 101.525C83.5776 101.465 83.5981 101.399 83.619 101.337C83.6267 101.314 83.6345 101.291 83.6424 101.268C83.6572 101.224 83.6723 101.18 83.6879 101.131C83.7798 100.841 83.8619 100.465 83.7067 99.9912C83.6271 99.7481 83.4792 99.4713 83.2942 99.1359C83.2798 99.1098 83.2653 99.0835 83.2505 99.0568C83.0784 98.7452 82.8832 98.3918 82.7038 97.9938C82.3124 97.1256 81.9934 96.0402 82.1179 94.6546C82.2352 93.3528 81.8475 92.3 81.4267 91.1684L81.4206 91.1521C81.003 90.0293 80.5585 88.834 80.6152 87.2937L80.9706 87.3068C80.9166 88.7759 81.3399 89.9146 81.7601 91.0444L81.7619 91.0492C82.1799 92.1734 82.5974 93.2961 82.4722 94.6865C82.3545 95.9953 82.6543 97.0186 83.028 97.8476C83.2013 98.2319 83.3899 98.5733 83.5627 98.8862C83.5771 98.9124 83.5915 98.9383 83.6057 98.9641C83.7871 99.2931 83.9528 99.5997 84.0448 99.8804C84.233 100.455 84.1295 100.915 84.0269 101.238C84.0103 101.291 83.9928 101.342 83.9773 101.388C83.9698 101.41 83.9627 101.43 83.9564 101.449C83.9357 101.511 83.9221 101.557 83.9154 101.592C83.9153 101.592 83.9153 101.593 83.9152 101.593C83.9309 101.587 83.9534 101.576 83.9836 101.552C84.0586 101.494 84.1496 101.383 84.2313 101.213C84.3935 100.875 84.5046 100.332 84.3991 99.617C84.3474 99.2664 84.2421 98.9757 84.1126 98.6808C84.0684 98.5802 84.0199 98.4761 83.9695 98.3679C83.8758 98.1668 83.7756 97.9518 83.6849 97.72C83.3973 96.9845 83.1782 96.024 83.313 94.3543C83.4422 92.7544 83.1194 91.77 82.8022 90.8022L82.797 90.7864C82.5317 89.9772 82.2711 89.1749 82.299 88.0576L78.8271 80.4935L79.1504 80.3451L82.3552 87.3272C82.3569 87.3138 82.3586 87.3004 82.3603 87.287L82.713 87.3331C82.683 87.5633 82.6649 87.7798 82.6571 87.9851L88.2571 100.186L88.2582 100.188L88.2583 100.188L88.2585 100.189L88.2587 100.189C88.2594 100.191 88.2606 100.194 88.2623 100.197C88.2657 100.204 88.2711 100.215 88.2784 100.229C88.2933 100.256 88.314 100.289 88.3385 100.317C88.3931 100.38 88.4185 100.374 88.4358 100.367" fill="#85340A"/>
<path d="M78.9054 80.0007L79.7261 101.813C79.7261 101.813 79.7257 102.223 79.9994 102.223C80.273 102.223 80.2728 101.813 80.2728 101.813L81.0936 80.0007M77.9389 87.0483C76.6819 89.7931 77.7614 92.0362 76.5063 94.4324C75.2514 96.829 76.0356 98.8025 75.9517 99.9018C75.868 101.001 74.968 101.307 75.1953 101.562C75.4231 101.818 76.3627 101.311 76.7297 99.8509C77.0967 98.3906 76.2212 97.5493 77.726 94.6109C79.2307 91.6724 78.0351 90.3477 79.5462 87.7247" fill="#F6B40E"/>
<path fill-rule="evenodd" clip-rule="evenodd" d="M80.4507 101.817L81.2714 80.0073L80.916 79.9939L80.095 101.809L80.095 101.812L80.095 101.812L80.095 101.813L80.095 101.813C80.095 101.815 80.0949 101.818 80.0947 101.822C80.0943 101.83 80.0935 101.842 80.0918 101.857C80.0884 101.888 80.0818 101.926 80.07 101.962C80.0436 102.041 80.0182 102.045 79.9996 102.045M80.4507 101.817L80.4506 101.821C80.4505 101.824 80.4504 101.828 80.4503 101.833C80.4502 101.835 80.4501 101.837 80.45 101.839C80.4493 101.853 80.448 101.873 80.4454 101.896C80.4403 101.942 80.4298 102.007 80.4075 102.074C80.3656 102.2 80.2544 102.401 79.9993 102.401C79.7444 102.401 79.6332 102.2 79.5914 102.074C79.5691 102.007 79.5587 101.942 79.5536 101.896C79.551 101.873 79.5497 101.853 79.549 101.838C79.5488 101.834 79.5486 101.83 79.5485 101.827C79.5485 101.824 79.5484 101.823 79.5484 101.821L79.5483 101.815L79.0762 89.2705C78.9013 89.8965 78.8563 90.4683 78.8111 91.0628L78.8096 91.0824C78.7316 92.1085 78.6486 93.1993 77.8844 94.6918C77.1431 96.1393 76.9936 97.0578 76.9791 97.7886C76.9743 98.0283 76.9837 98.2422 76.9931 98.4551C76.9984 98.5773 77.0038 98.6992 77.0064 98.8254C77.0136 99.1637 76.9994 99.5076 76.9022 99.8941C76.7114 100.653 76.3684 101.178 76.0291 101.482C75.8606 101.633 75.6865 101.736 75.5264 101.779C75.3735 101.821 75.1857 101.819 75.0626 101.68C75.0053 101.616 74.9743 101.536 74.982 101.447C74.9888 101.369 75.0243 101.302 75.0573 101.252C75.0912 101.2 75.1351 101.148 75.1784 101.098C75.1944 101.079 75.2103 101.061 75.2264 101.043C75.2567 101.008 75.2877 100.973 75.3209 100.934C75.5166 100.701 75.7366 100.385 75.7744 99.8881C75.7939 99.633 75.7631 99.3208 75.7206 98.9401C75.7173 98.9105 75.7139 98.8806 75.7105 98.8503C75.6707 98.4966 75.6256 98.0954 75.6121 97.6589C75.5828 96.7071 75.7034 95.5822 76.3488 94.3497C76.9552 93.1919 77 92.0709 77.0442 90.8644L77.0449 90.847C77.0888 89.6499 77.1355 88.3755 77.7773 86.9741L78.1007 87.1222C77.4886 88.4588 77.4439 89.6729 77.3997 90.8775L77.3995 90.8825C77.3555 92.0811 77.3116 93.2781 76.6639 94.5148C76.0543 95.6789 75.9396 96.7391 75.9677 97.648C75.9807 98.0693 76.0242 98.4569 76.0642 98.8121C76.0675 98.8418 76.0708 98.8713 76.0741 98.9006C76.1158 99.2739 76.1516 99.6206 76.1291 99.9152C76.0832 100.518 75.8113 100.904 75.5929 101.163C75.5575 101.205 75.5218 101.246 75.49 101.282C75.4746 101.299 75.4602 101.316 75.4471 101.331C75.4042 101.38 75.3743 101.417 75.3545 101.447C75.3544 101.447 75.3542 101.448 75.3541 101.448C75.3707 101.448 75.3959 101.446 75.4328 101.436C75.5244 101.411 75.6508 101.344 75.7916 101.217C76.0707 100.967 76.3811 100.508 76.5572 99.8073C76.6436 99.4637 76.6576 99.1548 76.6508 98.8329C76.6485 98.723 76.6435 98.6082 76.6383 98.489C76.6287 98.2673 76.6185 98.0304 76.6234 97.7815C76.6391 96.9919 76.8042 96.0206 77.5678 94.5297C78.2993 93.101 78.3779 92.068 78.4551 91.0524L78.4564 91.0358C78.521 90.1868 78.5872 89.3458 79.0406 88.3243L78.7277 80.0073L79.0831 79.9939L79.372 87.6709C79.3787 87.6592 79.3854 87.6475 79.3922 87.6358L79.7004 87.8133C79.5845 88.0145 79.485 88.2076 79.3992 88.3943L79.904 101.809L79.904 101.812L79.904 101.812L79.904 101.813L79.904 101.813C79.9041 101.815 79.9041 101.818 79.9043 101.822C79.9047 101.83 79.9055 101.842 79.9071 101.857C79.9105 101.888 79.9171 101.926 79.9289 101.962C79.9553 102.041 79.9809 102.045 79.9996 102.045" fill="#85340A"/>
<path d="M78.9887 79.5814L71.3999 100.047C71.3999 100.047 71.2425 100.426 71.4952 100.531C71.7479 100.636 71.9049 100.256 71.9049 100.256L81.0104 80.4188M75.3988 85.7227C73.1871 87.7775 73.326 90.263 71.2494 91.9964C69.1729 93.7304 69.1422 95.8538 68.644 96.8372C68.146 97.821 67.1976 97.7587 67.3098 98.0818C67.4223 98.4053 68.4844 98.2966 69.3823 97.0879C70.2802 95.8793 69.7933 94.767 72.308 92.6281C74.8226 90.4891 74.225 88.8077 76.6249 86.9627" fill="#F6B40E"/>
<path fill-rule="evenodd" clip-rule="evenodd" d="M72.0674 100.329L81.1719 80.4933L80.8486 80.3449L71.7417 100.186L71.7407 100.188L71.7406 100.188L71.7404 100.189L71.7401 100.189C71.7395 100.191 71.7383 100.194 71.7366 100.197C71.7332 100.204 71.7277 100.215 71.7205 100.229C71.7055 100.256 71.6848 100.289 71.6603 100.317C71.6056 100.38 71.5805 100.374 71.5634 100.367M72.0674 100.329L72.0657 100.333C72.0645 100.336 72.0628 100.339 72.0609 100.343C72.0601 100.345 72.0593 100.347 72.0585 100.349C72.0523 100.362 72.0435 100.379 72.0321 100.4C72.0098 100.441 71.9754 100.496 71.9291 100.55C71.8422 100.65 71.6625 100.793 71.4269 100.696C71.1915 100.598 71.1658 100.369 71.1753 100.237C71.1803 100.167 71.1954 100.103 71.2083 100.059C71.2149 100.036 71.2213 100.017 71.2262 100.003C71.2277 99.9993 71.229 99.9956 71.2302 99.9925C71.231 99.9905 71.2317 99.9887 71.2323 99.9871L71.2343 99.982L75.5989 88.2114C75.1977 88.7228 74.9374 89.2338 74.6681 89.7658L74.6592 89.7833C74.1945 90.7014 73.7004 91.6775 72.4232 92.7639C71.1844 93.8175 70.6947 94.6089 70.4017 95.2785C70.3055 95.4982 70.2323 95.6994 70.1595 95.8997C70.1177 96.0146 70.076 96.1292 70.0302 96.2468C69.9073 96.5621 69.7626 96.8744 69.5249 97.1943C69.058 97.8228 68.5404 98.1763 68.1104 98.3275C67.897 98.4026 67.697 98.4306 67.5324 98.4097C67.3751 98.3897 67.2026 98.3155 67.1418 98.1405C67.1135 98.0592 67.1155 97.9735 67.1566 97.8943C67.1928 97.8244 67.2512 97.7763 67.3009 97.7426C67.352 97.7078 67.4126 97.6762 67.4717 97.6466C67.4936 97.6357 67.5152 97.6251 67.5371 97.6143C67.5783 97.5941 67.6203 97.5734 67.6662 97.5497C67.9358 97.41 68.2602 97.2017 68.4852 96.7572C68.6008 96.529 68.6919 96.2287 68.7983 95.8607C68.8066 95.8321 68.8149 95.8032 68.8233 95.774C68.922 95.4319 69.0338 95.044 69.1884 94.6356C69.5255 93.745 70.0675 92.7519 71.1353 91.8602C72.1387 91.0226 72.609 90.0041 73.1116 88.9064L73.1189 88.8905C73.6176 87.8013 74.1484 86.6418 75.2776 85.5927L75.5197 85.8533C74.4427 86.8539 73.9369 87.9584 73.435 89.0544L73.4329 89.059C72.9336 90.1496 72.435 91.2387 71.3633 92.1333C70.3546 92.9755 69.843 93.9111 69.5211 94.7615C69.3718 95.1558 69.2637 95.5306 69.1647 95.874C69.1564 95.9027 69.1482 95.9312 69.14 95.9595C69.0357 96.3204 68.936 96.6544 68.8026 96.9179C68.5296 97.4571 68.1307 97.7096 67.8298 97.8655C67.7809 97.8908 67.7324 97.9147 67.6892 97.9359C67.6683 97.9462 67.6486 97.9559 67.6308 97.9648C67.5722 97.9941 67.5305 98.0166 67.5008 98.0368C67.5005 98.037 67.5003 98.0371 67.5 98.0373C67.5151 98.0443 67.5392 98.052 67.5771 98.0568C67.6714 98.0688 67.8141 98.0547 67.9924 97.9919C68.3461 97.8675 68.8084 97.5623 69.2394 96.9822C69.4507 96.6977 69.5818 96.4177 69.6988 96.1177C69.7387 96.0153 69.778 95.9073 69.8189 95.7952C69.8948 95.5867 69.976 95.3639 70.0758 95.1358C70.3925 94.4124 70.9167 93.5782 72.1927 92.4929C73.4153 91.453 73.8832 90.5287 74.3432 89.62L74.3507 89.6051C74.7353 88.8454 75.1183 88.0938 75.9281 87.3235L78.8218 79.5199L79.1553 79.6436L76.4843 86.8468C76.4949 86.8385 76.5056 86.8302 76.5164 86.822L76.7332 87.104C76.5492 87.2455 76.3833 87.3858 76.2326 87.5255L71.5653 100.112L71.5643 100.115L71.5642 100.115L71.564 100.116L71.5638 100.116C71.5632 100.118 71.5622 100.12 71.5608 100.124C71.5581 100.132 71.5541 100.143 71.5499 100.158C71.5412 100.188 71.5328 100.225 71.5301 100.263C71.5241 100.346 71.5461 100.36 71.5634 100.367" fill="#85340A"/>
<path d="M79.2258 79.2262L64.3829 95.2299C64.3829 95.2299 64.0925 95.5197 64.2858 95.7134C64.4791 95.9071 64.7692 95.6167 64.7692 95.6167L80.7732 80.7736M73.559 83.5262C70.7294 84.5783 69.9065 86.9277 67.3247 87.7345C64.7427 88.5419 63.9017 90.4919 63.0651 91.2098C62.2285 91.9281 61.3762 91.5076 61.3562 91.8491C61.3364 92.191 62.3591 92.497 63.6512 91.7239C64.9433 90.9509 64.9191 89.737 68.061 88.7233C71.2027 87.7094 71.2941 85.9273 74.2173 85.141" fill="#F6B40E"/>
<path fill-rule="evenodd" clip-rule="evenodd" d="M64.8918 95.7457L80.8941 80.9041L80.6522 80.6433L64.6458 95.4887L64.6439 95.4906L64.6437 95.4908L64.6434 95.4911L64.6429 95.4916C64.6418 95.4927 64.6396 95.4947 64.6367 95.4974C64.6307 95.5028 64.6215 95.5109 64.6097 95.5203C64.5854 95.5398 64.5539 95.562 64.5204 95.5788C64.4457 95.6161 64.4247 95.6011 64.4116 95.588M64.8918 95.7457L64.8889 95.7485C64.8866 95.7507 64.8838 95.7534 64.8803 95.7566C64.879 95.7578 64.8776 95.7591 64.8761 95.7605C64.8654 95.7702 64.8505 95.7832 64.832 95.798C64.7958 95.827 64.7428 95.8652 64.6796 95.8969C64.561 95.9562 64.3401 96.0198 64.1599 95.8393C63.9798 95.6588 64.0433 95.4381 64.1028 95.3195C64.1344 95.2563 64.1727 95.2033 64.2017 95.1671C64.2165 95.1487 64.2295 95.1338 64.2392 95.1231C64.2422 95.1198 64.2449 95.117 64.2472 95.1145C64.2487 95.1129 64.25 95.1115 64.2512 95.1103L64.255 95.1064L72.7918 85.902C72.2254 86.2209 71.7893 86.5935 71.3369 86.9819L71.322 86.9946C70.5413 87.665 69.7113 88.3777 68.1156 88.8927C66.5679 89.392 65.8126 89.9358 65.2856 90.4422C65.1127 90.6084 64.9681 90.7663 64.8242 90.9235C64.7416 91.0137 64.6592 91.1036 64.5719 91.1947C64.3377 91.439 64.0845 91.6721 63.7425 91.8767C63.0706 92.2787 62.4571 92.4072 62.002 92.3824C61.7761 92.37 61.5806 92.3193 61.4365 92.2371C61.2989 92.1585 61.1679 92.0238 61.1786 91.8389C61.1837 91.7529 61.2183 91.6745 61.2865 91.6171C61.3468 91.5664 61.4191 91.5443 61.4779 91.5321C61.5385 91.5196 61.6066 91.5136 61.6725 91.5089C61.6968 91.5072 61.7209 91.5056 61.7453 91.504C61.7911 91.5011 61.8378 91.4981 61.8892 91.4937C62.1918 91.4679 62.5712 91.3996 62.9492 91.075C63.1433 90.9084 63.3424 90.6658 63.5815 90.3666C63.6001 90.3433 63.6189 90.3198 63.6379 90.296C63.8599 90.0178 64.1117 89.7021 64.4108 89.384C65.0631 88.6902 65.9438 87.9801 67.2716 87.5649C68.5191 87.1751 69.3434 86.4141 70.2278 85.5922L70.2406 85.5803C71.1182 84.7649 72.0523 83.8968 73.497 83.3597L73.621 83.6931C72.243 84.2054 71.353 85.0323 70.47 85.8528L70.4663 85.8562C69.5876 86.6727 68.7102 87.4881 67.3777 87.9044C66.1235 88.2966 65.2928 88.9652 64.6699 89.6277C64.3812 89.9348 64.1379 90.2397 63.9149 90.5191C63.8963 90.5424 63.8778 90.5656 63.8594 90.5886C63.6249 90.8821 63.405 91.1526 63.1809 91.3449C62.7223 91.7386 62.2572 91.8193 61.9195 91.8481C61.8647 91.8528 61.8107 91.8563 61.7627 91.8594C61.7394 91.8609 61.7176 91.8623 61.6977 91.8637C61.6323 91.8683 61.5852 91.8732 61.55 91.8805C61.5497 91.8805 61.5494 91.8806 61.5492 91.8806C61.5604 91.8929 61.5797 91.9092 61.6129 91.9282C61.6954 91.9753 61.8326 92.0169 62.0214 92.0272C62.3958 92.0476 62.9397 91.9425 63.5599 91.5715C63.864 91.3895 64.0923 91.181 64.3151 90.9486C64.3912 90.8692 64.4688 90.7845 64.5495 90.6966C64.6994 90.5331 64.8597 90.3583 65.0392 90.1858C65.6086 89.6385 66.4122 89.0685 68.0063 88.5541C69.5339 88.0612 70.3198 87.3864 71.0926 86.7228L71.1052 86.712C71.7512 86.1573 72.3927 85.6095 73.4357 85.2077L79.0954 79.1054L79.3562 79.3473L74.132 84.9801C74.145 84.9765 74.158 84.973 74.1711 84.9694L74.2635 85.3129C74.0393 85.3732 73.8323 85.4394 73.6397 85.5108L64.5109 95.3535L64.509 95.3554L64.5087 95.3556L64.5085 95.3559L64.508 95.3564C64.5069 95.3575 64.5049 95.3597 64.5022 95.3626C64.4968 95.3686 64.4887 95.3778 64.4793 95.3896C64.4598 95.4138 64.4376 95.4454 64.4208 95.4788C64.3834 95.5535 64.3984 95.5747 64.4116 95.588" fill="#85340A"/>
<path d="M81.3793 87.8112C81.5244 90.7084 83.167 91.9913 82.8445 94.6317C83.5527 92.5437 81.845 90.9251 81.9421 87.8413M79.4945 80.239L85.7303 93.8637L80.5051 79.8198" fill="#85340A"/>
<path d="M78.2851 87.7445C77.3104 90.4767 78.3371 92.2906 77.0287 94.6065C78.482 92.9485 77.5237 90.7996 78.7935 87.9876M79.4415 80.0274L79.9887 95.0013L80.5356 80.0269" fill="#85340A"/>
<path d="M75.4519 86.4986C73.5058 88.6499 73.7602 90.7186 71.6651 92.3575C73.6424 91.3819 73.5793 89.0298 75.8286 86.9179M79.4735 79.8116L74.2488 93.855L80.4845 80.2297" fill="#85340A"/>
<path d="M73.3112 84.2638C70.6901 85.5066 70.1334 87.5152 67.5706 88.2276C69.7707 88.0829 70.6126 85.8858 73.4988 84.7953M79.5857 79.6248L69.3846 90.5999L80.3597 80.398" fill="#85340A"/>
<path d="M79.5809 78.9888L59.7435 88.0941C59.7435 88.0941 59.3642 88.2507 59.4687 88.5037C59.5732 88.7565 59.9524 88.5993 59.9524 88.5993L80.4183 81.0105M72.6999 80.7929C69.683 80.682 68.0238 82.5377 65.3297 82.295C62.6353 82.0528 61.1121 83.5326 60.0644 83.8757C59.0166 84.2192 58.3901 83.5045 58.241 83.8124C58.0918 84.1206 58.9196 84.7948 60.4092 84.575C61.8988 84.3552 62.341 83.2245 65.6316 83.4903C68.9221 83.7559 69.6885 82.1443 72.6901 82.5367" fill="#F6B40E"/>
<path fill-rule="evenodd" clip-rule="evenodd" d="M60.0163 88.7653L80.4801 81.1773L80.3564 80.8437L59.8873 88.4337L59.8849 88.4347L59.8846 88.4348L59.8842 88.435L59.8836 88.4352C59.8821 88.4358 59.8794 88.4368 59.8756 88.4382C59.868 88.4409 59.8564 88.4449 59.8419 88.4491C59.8121 88.4578 59.7744 88.4662 59.737 88.4689C59.6537 88.4749 59.6401 88.4529 59.633 88.4358M60.0163 88.7653L60.0125 88.7668C60.0096 88.7679 60.0059 88.7693 60.0015 88.7709C59.9998 88.7715 59.998 88.7722 59.9961 88.7729C59.9825 88.7778 59.9637 88.7841 59.941 88.7907C59.8965 88.8036 59.8329 88.8187 59.7624 88.8237C59.6301 88.8332 59.4017 88.8073 59.3043 88.5716C59.207 88.336 59.3501 88.1564 59.4504 88.0696C59.5038 88.0233 59.5595 87.989 59.6001 87.9666C59.6208 87.9553 59.6386 87.9465 59.6516 87.9403C59.6556 87.9385 59.6592 87.9368 59.6623 87.9354C59.6643 87.9345 59.666 87.9338 59.6676 87.9331L59.6726 87.9309L71.0819 82.694C70.4366 82.772 69.8911 82.9492 69.3246 83.135L69.3059 83.1411C68.3281 83.4617 67.2885 83.8025 65.6172 83.6676C63.9962 83.5366 63.0903 83.75 62.4097 84.0162C62.1864 84.1036 61.9923 84.1941 61.7992 84.2843C61.6884 84.336 61.5779 84.3875 61.4623 84.4383C61.1524 84.5744 60.8293 84.6928 60.4351 84.751C59.6605 84.8653 59.0445 84.7492 58.6336 84.5521C58.4295 84.4542 58.2683 84.3326 58.1667 84.2014C58.0696 84.0761 58.0001 83.9016 58.0808 83.7349C58.1184 83.6574 58.1804 83.5982 58.2654 83.5712C58.3405 83.5475 58.4158 83.5547 58.4747 83.566C58.5355 83.5776 58.6007 83.5981 58.6634 83.619C58.6865 83.6267 58.7094 83.6345 58.7325 83.6424C58.7759 83.6572 58.8202 83.6723 58.8694 83.6879C59.1589 83.7798 59.5355 83.8619 60.0089 83.7067C60.2521 83.6271 60.5288 83.4792 60.8643 83.2942C60.8903 83.2798 60.9167 83.2653 60.9433 83.2505C61.2549 83.0784 61.6083 82.8832 62.0064 82.7038C62.8745 82.3124 63.96 81.9934 65.3455 82.1179C66.6473 82.2352 67.7001 81.8475 68.8317 81.4267L68.8481 81.4206C69.9709 81.003 71.1661 80.5585 72.7064 80.6152L72.6933 80.9706C71.2242 80.9166 70.0855 81.3399 68.9557 81.7601L68.951 81.7619C67.8268 82.1799 66.704 82.5974 65.3137 82.4722C64.0049 82.3545 62.9815 82.6543 62.1526 83.028C61.7683 83.2013 61.4268 83.3899 61.1139 83.5627C61.0878 83.5771 61.0618 83.5915 61.036 83.6057C60.707 83.7871 60.4004 83.9528 60.1197 84.0448C59.5454 84.233 59.0848 84.1295 58.7618 84.0269C58.7094 84.0103 58.6582 83.9928 58.6126 83.9773C58.5905 83.9698 58.5698 83.9627 58.5509 83.9564C58.4887 83.9357 58.4433 83.9221 58.408 83.9154C58.4077 83.9153 58.4075 83.9153 58.4072 83.9152C58.4129 83.9309 58.4245 83.9534 58.4479 83.9836C58.5061 84.0586 58.6169 84.1496 58.7874 84.2313C59.1254 84.3935 59.6682 84.5046 60.3832 84.3991C60.7337 84.3474 61.0244 84.2421 61.3193 84.1126C61.4199 84.0684 61.5241 84.0199 61.6322 83.9695C61.8333 83.8758 62.0483 83.7756 62.2801 83.6849C63.0156 83.3973 63.9762 83.1782 65.6458 83.313C67.2457 83.4422 68.2301 83.1194 69.1979 82.8022L69.2137 82.797C70.0229 82.5317 70.8252 82.2711 71.9425 82.299L79.5066 78.8271L79.655 79.1504L72.6729 82.3552C72.6863 82.3569 72.6997 82.3586 72.7131 82.3603L72.667 82.713C72.4368 82.683 72.2203 82.6649 72.015 82.6571L59.8145 88.2571L59.812 88.2582L59.8117 88.2583L59.8113 88.2585L59.8107 88.2587C59.8092 88.2594 59.8066 88.2606 59.803 88.2623C59.7957 88.2657 59.7846 88.2711 59.7714 88.2784C59.7442 88.2933 59.7116 88.314 59.6833 88.3385C59.6201 88.3931 59.6259 88.4185 59.633 88.4358" fill="#85340A"/>
<path d="M79.9997 78.9051L58.1879 79.7258C58.1879 79.7258 57.7776 79.7255 57.7773 79.9991C57.7771 80.2727 58.1876 80.2726 58.1876 80.2726L79.9998 81.0934M72.9522 77.9387C70.2074 76.6817 67.9642 77.7612 65.5681 76.506C63.1715 75.2511 61.198 76.0353 60.0987 75.9514C58.9992 75.8678 58.6939 74.9677 58.4383 75.1951C58.1825 75.4228 58.6894 76.3624 60.1496 76.7294C61.6099 77.0964 62.4512 76.221 65.3896 77.7258C68.328 79.2304 69.6528 78.0348 72.2758 79.546" fill="#F6B40E"/>
<path fill-rule="evenodd" clip-rule="evenodd" d="M58.1832 80.4506L79.9931 81.2713L80.0065 80.9158L58.191 80.0949L58.1883 80.0949L58.188 80.0949L58.1876 80.0949L58.1869 80.0949C58.1853 80.0948 58.1824 80.0948 58.1784 80.0946C58.1703 80.0942 58.1581 80.0934 58.1431 80.0917C58.1122 80.0883 58.0741 80.0817 58.0386 80.0699C57.9594 80.0435 57.9552 80.018 57.9552 79.9995M58.1832 80.4506L58.1792 80.4505C58.176 80.4504 58.1721 80.4503 58.1674 80.4501C58.1656 80.4501 58.1637 80.45 58.1616 80.4499C58.1472 80.4492 58.1274 80.4479 58.1039 80.4453C58.0579 80.4402 57.9933 80.4297 57.9262 80.4074C57.8004 80.3655 57.5993 80.2542 57.5995 79.9992C57.5998 79.7443 57.8007 79.6331 57.9266 79.5913C57.9937 79.569 58.0583 79.5585 58.1043 79.5535C58.1278 79.5509 58.1476 79.5496 58.162 79.5489C58.1664 79.5487 58.1703 79.5485 58.1737 79.5484C58.1759 79.5484 58.1778 79.5483 58.1795 79.5483L58.185 79.5482L70.7299 79.0761C70.1039 78.9012 69.5321 78.8562 68.9375 78.811L68.918 78.8095C67.8919 78.7315 66.801 78.6485 65.3086 77.8843C63.8611 77.143 62.9425 76.9935 62.2118 76.9789C61.972 76.9742 61.7581 76.9836 61.5452 76.9929C61.4231 76.9983 61.3012 77.0037 61.175 77.0063C60.8367 77.0134 60.4928 76.9992 60.1063 76.9021C59.3469 76.7113 58.8223 76.3683 58.5181 76.0289C58.367 75.8605 58.2646 75.6864 58.2209 75.5263C58.1792 75.3734 58.1818 75.1856 58.3201 75.0624C58.3845 75.0052 58.4644 74.9742 58.5533 74.9819C58.6317 74.9886 58.6985 75.0242 58.7487 75.0571C58.8004 75.0911 58.8528 75.135 58.9027 75.1783C58.9211 75.1943 58.9392 75.2102 58.9576 75.2263C58.992 75.2566 59.0272 75.2875 59.0667 75.3208C59.2989 75.5165 59.6154 75.7365 60.1122 75.7743C60.3673 75.7937 60.6796 75.763 61.0603 75.7204C61.0899 75.7171 61.1198 75.7138 61.1501 75.7104C61.5038 75.6706 61.905 75.6255 62.3414 75.612C63.2933 75.5827 64.4182 75.7033 65.6506 76.3486C66.8084 76.9551 67.9294 76.9998 69.1359 77.0441L69.1534 77.0447C70.3505 77.0887 71.6249 77.1354 73.0263 77.7771L72.8781 78.1005C71.5415 77.4885 70.3275 77.4438 69.1229 77.3996L69.1179 77.3994C67.9193 77.3554 66.7222 77.3115 65.4856 76.6637C64.3214 76.0542 63.2613 75.9395 62.3524 75.9676C61.9311 75.9806 61.5434 76.0241 61.1882 76.064C61.1585 76.0674 61.1291 76.0707 61.0998 76.074C60.7264 76.1157 60.3797 76.1514 60.0852 76.1289C59.4826 76.0831 59.0967 75.8112 58.8375 75.5928C58.7954 75.5574 58.7548 75.5217 58.7186 75.4899C58.7011 75.4745 58.6847 75.46 58.6696 75.447C58.6201 75.404 58.5834 75.3741 58.5533 75.3544C58.5531 75.3543 58.5528 75.3541 58.5526 75.3539C58.5519 75.3706 58.554 75.3958 58.5641 75.4326C58.5891 75.5243 58.6567 75.6507 58.7829 75.7915C59.0332 76.0706 59.4921 76.381 60.193 76.5571C60.5367 76.6435 60.8456 76.6575 61.1675 76.6507C61.2774 76.6484 61.3922 76.6434 61.5114 76.6382C61.733 76.6286 61.97 76.6183 62.2189 76.6233C63.0085 76.639 63.9798 76.8041 65.4707 77.5677C66.8994 78.2992 67.9323 78.3778 68.9479 78.455L68.9645 78.4563C69.8136 78.5209 70.6545 78.5871 71.6761 79.0405L79.9931 78.7276L80.0065 79.083L72.3294 79.3719C72.3411 79.3786 72.3529 79.3853 72.3646 79.392L72.187 79.7003C71.9859 79.5844 71.7927 79.4849 71.6061 79.3991L58.1912 79.9039L58.1885 79.9039L58.1882 79.9039L58.1878 79.9039L58.1871 79.9039C58.1855 79.9039 58.1826 79.904 58.1786 79.9042C58.1705 79.9046 58.1583 79.9054 58.1433 79.907C58.1124 79.9104 58.0744 79.917 58.0389 79.9288C57.9596 79.9552 57.9552 79.9808 57.9552 79.9995" fill="#85340A"/>
<path d="M80.4187 78.9884L59.9531 71.3996C59.9531 71.3996 59.5742 71.2423 59.4692 71.495C59.3643 71.7477 59.7436 71.9046 59.7436 71.9046L79.5813 81.0101M74.2774 75.3985C72.2226 73.1869 69.7371 73.3258 68.0037 71.2492C66.2697 69.1727 64.1463 69.1419 63.1629 68.6438C62.1791 68.1457 62.2414 67.1974 61.9183 67.3096C61.5949 67.4221 61.7035 68.4841 62.9122 69.382C64.1209 70.2799 65.2331 69.793 67.372 72.3078C69.511 74.8224 71.1924 74.2248 73.0375 76.6247" fill="#F6B40E"/>
<path fill-rule="evenodd" clip-rule="evenodd" d="M59.6714 72.067L79.5071 81.1715L79.6554 80.8483L59.8147 71.7413L59.8122 71.7403L59.8119 71.7402L59.8116 71.7401L59.811 71.7398C59.8095 71.7391 59.8068 71.7379 59.8032 71.7362C59.7959 71.7328 59.7849 71.7274 59.7717 71.7201C59.7444 71.7051 59.7118 71.6845 59.6835 71.6599C59.6204 71.6052 59.6263 71.5801 59.6334 71.563M59.6714 72.067L59.6677 72.0654C59.6648 72.0641 59.6612 72.0625 59.657 72.0605C59.6553 72.0598 59.6536 72.059 59.6517 72.0581C59.6387 72.052 59.6209 72.0432 59.6002 72.0318C59.5596 72.0094 59.504 71.975 59.4505 71.9287C59.3503 71.8419 59.2071 71.6622 59.3049 71.4266C59.4027 71.1912 59.6309 71.1654 59.7632 71.1749C59.8337 71.18 59.8973 71.195 59.9418 71.208C59.9645 71.2146 59.9833 71.2209 59.9969 71.2258C60.001 71.2273 60.0047 71.2287 60.0079 71.2299C60.0099 71.2306 60.0117 71.2313 60.0133 71.232L60.0184 71.234L71.789 75.5986C71.2776 75.1974 70.7665 74.937 70.2346 74.6677L70.2171 74.6588C69.299 74.1941 68.3229 73.7 67.2365 72.4228C66.1829 71.184 65.3914 70.6943 64.7219 70.4013C64.5022 70.3051 64.301 70.232 64.1007 70.1591C63.9858 70.1173 63.8711 70.0757 63.7535 70.0298C63.4382 69.9069 63.1259 69.7622 62.8061 69.5246C62.1775 69.0577 61.8241 68.54 61.6729 68.1101C61.5978 67.8966 61.5698 67.6966 61.5907 67.532C61.6106 67.3748 61.6849 67.2022 61.8598 67.1414C61.9412 67.1131 62.0269 67.1151 62.1061 67.1562C62.176 67.1924 62.2241 67.2508 62.2578 67.3005C62.2926 67.3517 62.3242 67.4122 62.3537 67.4713C62.3647 67.4932 62.3753 67.5148 62.3861 67.5368C62.4063 67.5779 62.427 67.62 62.4507 67.6658C62.5904 67.9354 62.7986 68.2598 63.2431 68.4849C63.4714 68.6005 63.7716 68.6915 64.1397 68.7979C64.1682 68.8062 64.1972 68.8145 64.2264 68.823C64.5684 68.9216 64.9564 69.0335 65.3647 69.188C66.2554 69.5252 67.2485 70.0671 68.1402 71.1349C68.9777 72.1383 69.9963 72.6086 71.094 73.1113L71.1099 73.1185C72.1991 73.6172 73.3586 74.1481 74.4077 75.2772L74.1471 75.5194C73.1464 74.4424 72.0419 73.9365 70.9459 73.4347L70.9413 73.4326C69.8508 72.9333 68.7617 72.4346 67.8671 71.3629C67.0248 70.3543 66.0892 69.8426 65.2388 69.5207C64.8446 69.3715 64.4698 69.2634 64.1264 69.1643C64.0976 69.156 64.0691 69.1478 64.0408 69.1397C63.6799 69.0353 63.3459 68.9357 63.0824 68.8022C62.5432 68.5292 62.2907 68.1304 62.1349 67.8294C62.1096 67.7806 62.0857 67.732 62.0644 67.6888C62.0541 67.6679 62.0445 67.6482 62.0356 67.6304C62.0063 67.5718 61.9838 67.5301 61.9636 67.5004C61.9634 67.5002 61.9632 67.4999 61.9631 67.4997C61.956 67.5148 61.9484 67.5389 61.9436 67.5768C61.9316 67.671 61.9457 67.8137 62.0084 67.992C62.1328 68.3457 62.438 68.8081 63.0182 69.239C63.3027 69.4504 63.5827 69.5815 63.8827 69.6984C63.9851 69.7383 64.0931 69.7776 64.2052 69.8185C64.4136 69.8944 64.6365 69.9756 64.8645 70.0754C65.588 70.3921 66.4222 70.9163 67.5074 72.1923C68.5474 73.4149 69.4716 73.8828 70.3804 74.3428L70.3952 74.3503C71.1549 74.7349 71.9065 75.1179 72.6768 75.9278L80.4805 78.8214L80.3568 79.1549L73.1536 76.4839C73.1619 76.4946 73.1701 76.5053 73.1784 76.516L72.8964 76.7328C72.7549 76.5488 72.6145 76.3829 72.4749 76.2323L59.888 71.565L59.8855 71.5639L59.8852 71.5638L59.8848 71.5637L59.8842 71.5634C59.8827 71.5628 59.88 71.5618 59.8762 71.5604C59.8686 71.5577 59.857 71.5538 59.8425 71.5495C59.8127 71.5409 59.7751 71.5324 59.7377 71.5297C59.6544 71.5237 59.6406 71.5457 59.6334 71.563" fill="#85340A"/>
<path d="M80.7739 79.2253L64.7702 64.3824C64.7702 64.3824 64.4804 64.092 64.2867 64.2853C64.0931 64.4786 64.3835 64.7688 64.3835 64.7688L79.2266 80.7727M76.4739 73.5586C75.4218 70.7289 73.0724 69.9061 72.2656 67.3242C71.4583 64.7422 69.5082 63.9012 68.7903 63.0646C68.072 62.228 68.4925 61.3757 68.151 61.3557C67.8091 61.3359 67.5031 62.3587 68.2762 63.6507C69.0492 64.9428 70.2632 64.9186 71.2769 68.0605C72.2907 71.2022 74.0729 71.2936 74.8591 74.2168" fill="#F6B40E"/>
<path fill-rule="evenodd" clip-rule="evenodd" d="M64.2546 64.8917L79.0961 80.894L79.3569 80.6521L64.5115 64.6457L64.5097 64.6438L64.5094 64.6436L64.5091 64.6433L64.5087 64.6428C64.5076 64.6416 64.5056 64.6395 64.5029 64.6366C64.4974 64.6306 64.4893 64.6213 64.4799 64.6096C64.4605 64.5853 64.4382 64.5537 64.4215 64.5203C64.3841 64.4456 64.3992 64.4246 64.4123 64.4115M64.2546 64.8917L64.2517 64.8888C64.2495 64.8865 64.2468 64.8836 64.2437 64.8802C64.2425 64.8789 64.2411 64.8775 64.2398 64.8759C64.2301 64.8653 64.217 64.8504 64.2022 64.8319C64.1733 64.7957 64.135 64.7427 64.1034 64.6795C64.044 64.5608 63.9805 64.34 64.161 64.1598C64.3414 63.9797 64.5621 64.0432 64.6807 64.1027C64.7439 64.1343 64.797 64.1726 64.8331 64.2016C64.8516 64.2163 64.8665 64.2294 64.8771 64.2391C64.8804 64.2421 64.8833 64.2447 64.8858 64.2471C64.8873 64.2486 64.8887 64.2499 64.89 64.2511L64.8939 64.2549L74.0983 72.7916C73.7793 72.2253 73.4068 71.7892 73.0184 71.3368L73.0056 71.3219C72.3352 70.5412 71.6225 69.7112 71.1076 68.1154C70.6082 66.5678 70.0644 65.8125 69.558 65.2855C69.3918 65.1126 69.2339 64.968 69.0768 64.8241C68.9866 64.7415 68.8966 64.6591 68.8055 64.5718C68.5612 64.3376 68.3281 64.0843 68.1235 63.7424C67.7215 63.0705 67.5931 62.457 67.6179 62.0019C67.6302 61.776 67.6809 61.5805 67.7632 61.4364C67.8418 61.2988 67.9764 61.1678 68.1613 61.1785C68.2473 61.1835 68.3257 61.2181 68.3832 61.2864C68.4338 61.3467 68.456 61.419 68.4681 61.4778C68.4807 61.5384 68.4867 61.6064 68.4914 61.6723C68.4931 61.6967 68.4946 61.7208 68.4962 61.7452C68.4991 61.7909 68.5022 61.8377 68.5065 61.8891C68.5324 62.1917 68.6007 62.571 68.9252 62.9491C69.0918 63.1432 69.3344 63.3423 69.6337 63.5814C69.6569 63.6 69.6804 63.6188 69.7042 63.6377C69.9825 63.8597 70.2981 64.1116 70.6162 64.4106C71.3101 65.0629 72.0201 65.9437 72.4353 67.2714C72.8252 68.519 73.5862 69.3433 74.408 70.2277L74.4199 70.2405C75.2354 71.118 76.1034 72.0522 76.6406 73.4969L76.3072 73.6209C75.7948 72.2429 74.968 71.3529 74.1474 70.4698L74.144 70.4661C73.3276 69.5875 72.5122 68.71 72.0958 67.3776C71.7036 66.1234 71.0351 65.2926 70.3726 64.6698C70.0654 64.3811 69.7606 64.1378 69.4812 63.9148C69.4578 63.8962 69.4346 63.8777 69.4116 63.8593C69.1181 63.6248 68.8477 63.4049 68.6553 63.1808C68.2616 62.7222 68.181 62.2571 68.1521 61.9194C68.1474 61.8646 68.144 61.8106 68.1409 61.7626C68.1394 61.7393 68.138 61.7174 68.1365 61.6975C68.1319 61.6322 68.1271 61.5851 68.1198 61.5499C68.1197 61.5496 68.1197 61.5493 68.1196 61.549C68.1073 61.5603 68.091 61.5796 68.0721 61.6128C68.025 61.6953 67.9834 61.8325 67.9731 62.0213C67.9527 62.3956 68.0577 62.9396 68.4288 63.5598C68.6107 63.8639 68.8192 64.0921 69.0517 64.315C69.131 64.391 69.2157 64.4687 69.3037 64.5494C69.4672 64.6993 69.642 64.8595 69.8145 65.039C70.3617 65.6085 70.9317 66.412 71.4461 68.0062C71.939 69.5337 72.6139 70.3197 73.2774 71.0924L73.2883 71.1051C73.8429 71.7511 74.3908 72.3926 74.7925 73.4356L80.8948 79.0953L80.6529 79.3561L75.0202 74.1319C75.0237 74.1448 75.0273 74.1579 75.0308 74.171L74.6873 74.2634C74.627 74.0392 74.5608 73.8322 74.4894 73.6396L64.6468 64.5108L64.6449 64.5089L64.6446 64.5086L64.6443 64.5083L64.6439 64.5079C64.6427 64.5068 64.6406 64.5048 64.6376 64.5021C64.6317 64.4967 64.6224 64.4886 64.6107 64.4791C64.5864 64.4597 64.5549 64.4375 64.5214 64.4207C64.4468 64.3833 64.4255 64.3983 64.4123 64.4115" fill="#85340A"/>
<path d="M72.1888 81.3789C69.2916 81.524 68.0087 83.1667 65.3683 82.8441C67.4563 83.5524 69.0749 81.8447 72.1587 81.9417M79.761 79.4941L66.1363 85.73L80.1802 80.5047" fill="#85340A"/>
<path d="M72.2556 78.2847C69.5235 77.31 67.7095 78.3367 65.3936 77.0283C67.0516 78.4817 69.2005 77.5234 72.0125 78.7932M79.9727 79.4411L64.9988 79.9884L79.9733 80.5352" fill="#85340A"/>
<path d="M73.5015 75.4515C71.3503 73.5055 69.2815 73.7598 67.6426 71.6648C68.6182 73.642 70.9703 73.579 73.0823 75.8282M80.1886 79.4731L66.1451 74.2484L79.7704 80.4841" fill="#85340A"/>
<path d="M75.7366 73.3109C74.4939 70.6897 72.4853 70.1331 71.7729 67.5703C71.9176 69.7704 74.1147 70.6122 75.2052 73.4985M80.3757 79.5854L69.4006 69.3842L79.6025 80.3594" fill="#85340A"/>
<path d="M81.0111 79.5805L71.9058 59.7431C71.9058 59.7431 71.7492 59.3639 71.4962 59.4683C71.2434 59.5729 71.4006 59.9521 71.4006 59.9521L78.9894 80.418M79.207 72.6996C79.3179 69.6827 77.4622 68.0234 77.7048 65.3293C77.947 62.6349 76.4673 61.1117 76.1242 60.064C75.7807 59.0162 76.4954 58.3897 76.1875 58.2406C75.8792 58.0914 75.2051 58.9193 75.4249 60.4088C75.6446 61.8984 76.7754 62.3406 76.5096 65.6312C76.244 68.9218 77.8555 69.6882 77.4632 72.6898" fill="#F6B40E"/>
<path fill-rule="evenodd" clip-rule="evenodd" d="M71.2347 60.0162L78.8227 80.48L79.1563 80.3563L71.5663 59.8872L71.5653 59.8848L71.5652 59.8845L71.565 59.8841L71.5648 59.8835C71.5642 59.882 71.5632 59.8793 71.5618 59.8755C71.5591 59.8679 71.5551 59.8563 71.5509 59.8418C71.5422 59.8119 71.5338 59.7743 71.5311 59.7369C71.5251 59.6536 71.5471 59.64 71.5642 59.6329M71.2347 60.0162L71.2332 60.0124C71.2321 60.0095 71.2307 60.0058 71.2291 60.0014C71.2285 59.9997 71.2278 59.9979 71.2271 59.996C71.2222 59.9824 71.2159 59.9636 71.2093 59.9409C71.1964 59.8964 71.1813 59.8328 71.1763 59.7622C71.1668 59.6299 71.1927 59.4016 71.4284 59.3041C71.664 59.2068 71.8436 59.35 71.9304 59.4503C71.9767 59.5037 72.011 59.5594 72.0334 59.6C72.0447 59.6207 72.0535 59.6385 72.0597 59.6515C72.0615 59.6555 72.0632 59.6591 72.0646 59.6622C72.0655 59.6641 72.0662 59.6659 72.0669 59.6675L72.0691 59.6725L77.306 71.0818C77.228 70.4365 77.0508 69.891 76.865 69.3244L76.8589 69.3058C76.5383 68.328 76.1975 67.2884 76.3324 65.6171C76.4634 63.9961 76.25 63.0902 75.9838 62.4096C75.8964 62.1862 75.8059 61.9922 75.7157 61.7991C75.664 61.6883 75.6125 61.5778 75.5617 61.4622C75.4256 61.1523 75.3072 60.8292 75.249 60.435C75.1347 59.6604 75.2508 59.0444 75.4479 58.6335C75.5458 58.4294 75.6674 58.2682 75.7986 58.1666C75.9239 58.0695 76.0984 58 76.2651 58.0807C76.3426 58.1182 76.4018 58.1802 76.4288 58.2653C76.4525 58.3403 76.4453 58.4157 76.434 58.4746C76.4224 58.5354 76.4019 58.6006 76.381 58.6632C76.3733 58.6864 76.3655 58.7093 76.3576 58.7324C76.3428 58.7758 76.3277 58.8201 76.3121 58.8693C76.2202 59.1588 76.1381 59.5354 76.2933 60.0088C76.3729 60.2519 76.5208 60.5287 76.7058 60.8641C76.7202 60.8902 76.7347 60.9165 76.7495 60.9432C76.9216 61.2548 77.1168 61.6082 77.2962 62.0062C77.6876 62.8744 78.0066 63.9598 77.8821 65.3454C77.7648 66.6472 78.1525 67.7 78.5733 68.8316L78.5794 68.8479C78.997 69.9707 79.4415 71.166 79.3848 72.7063L79.0294 72.6932C79.0834 71.2241 78.6601 70.0854 78.2399 68.9556L78.2381 68.9508C77.8201 67.8266 77.4026 66.7039 77.5278 65.3135C77.6455 64.0047 77.3457 62.9814 76.972 62.1524C76.7987 61.7681 76.6101 61.4267 76.4373 61.1138C76.4229 61.0876 76.4085 61.0617 76.3943 61.0359C76.2129 60.7069 76.0472 60.4003 75.9552 60.1196C75.767 59.5453 75.8705 59.0847 75.9731 58.7617C75.9897 58.7093 76.0072 58.6581 76.0227 58.6125C76.0302 58.5904 76.0373 58.5697 76.0436 58.5507C76.0643 58.4886 76.0779 58.4432 76.0846 58.4079C76.0847 58.4076 76.0847 58.4073 76.0848 58.4071C76.0691 58.4127 76.0466 58.4244 76.0164 58.4478C75.9414 58.5059 75.8504 58.6168 75.7687 58.7873C75.6065 59.1253 75.4954 59.6681 75.6009 60.383C75.6526 60.7336 75.7579 61.0243 75.8874 61.3192C75.9316 61.4198 75.9801 61.5239 76.0305 61.6321C76.1242 61.8332 76.2244 62.0482 76.3151 62.28C76.6027 63.0155 76.8218 63.976 76.687 65.6457C76.5578 67.2456 76.8806 68.23 77.1978 69.1978L77.203 69.2136C77.4683 70.0228 77.7289 70.8251 77.701 71.9424L81.1729 79.5065L80.8496 79.6549L77.6448 72.6728C77.6431 72.6862 77.6414 72.6996 77.6397 72.713L77.287 72.6669C77.317 72.4367 77.3351 72.2202 77.3429 72.0149L71.7429 59.8143L71.7418 59.8119L71.7417 59.8115L71.7415 59.8112L71.7413 59.8106C71.7406 59.8091 71.7394 59.8065 71.7377 59.8028C71.7343 59.7955 71.7289 59.7845 71.7216 59.7713C71.7067 59.7441 71.686 59.7115 71.6615 59.6831C71.6069 59.62 71.5815 59.6258 71.5642 59.6329" fill="#85340A"/>
<path d="M81.0946 79.9993L80.2739 58.1874C80.2739 58.1874 80.2743 57.7771 80.0006 57.7768C79.727 57.7766 79.7272 58.1871 79.7272 58.1871L78.9064 79.9993M82.0611 72.9517C83.3181 70.2069 82.2386 67.9638 83.4937 65.5676C84.7486 63.171 83.9644 61.1975 84.0483 60.0982C84.132 58.9987 85.032 58.6934 84.8047 58.4379C84.5769 58.1821 83.6373 58.6889 83.2703 60.1491C82.9033 61.6094 83.7788 62.4507 82.274 65.3891C80.7693 68.3276 81.9649 69.6523 80.4538 72.2753" fill="#F6B40E"/>
<path fill-rule="evenodd" clip-rule="evenodd" d="M79.5493 58.1829L78.7286 79.9927L79.084 80.0061L79.905 58.1906L79.905 58.1879L79.905 58.1876L79.905 58.1872L79.905 58.1865C79.905 58.1849 79.9051 58.182 79.9053 58.178C79.9057 58.17 79.9065 58.1577 79.9082 58.1427C79.9116 58.1118 79.9182 58.0738 79.93 58.0382C79.9564 57.959 79.9818 57.9548 80.0004 57.9548M79.5493 58.1829L79.5494 58.1788C79.5495 58.1756 79.5496 58.1717 79.5497 58.1671C79.5498 58.1652 79.5499 58.1633 79.55 58.1613C79.5507 58.1469 79.552 58.1271 79.5546 58.1036C79.5597 58.0575 79.5702 57.9929 79.5925 57.9259C79.6344 57.8 79.7456 57.599 80.0007 57.5991C80.2556 57.5994 80.3668 57.8004 80.4086 57.9263C80.4309 57.9933 80.4413 58.0579 80.4464 58.104C80.449 58.1274 80.4503 58.1472 80.451 58.1616C80.4512 58.166 80.4514 58.17 80.4515 58.1734C80.4515 58.1755 80.4516 58.1775 80.4516 58.1792L80.4517 58.1846L80.9238 70.7295C81.0987 70.1035 81.1437 69.5317 81.1889 68.9372L81.1904 68.9176C81.2684 67.8915 81.3514 66.8007 82.1156 65.3082C82.8569 63.8607 83.0064 62.9422 83.0209 62.2114C83.0257 61.9717 83.0163 61.7578 83.0069 61.5449C83.0016 61.4227 82.9962 61.3008 82.9936 61.1746C82.9864 60.8363 83.0006 60.4924 83.0978 60.1059C83.2886 59.3466 83.6316 58.8219 83.9709 58.5177C84.1394 58.3666 84.3135 58.2643 84.4736 58.2206C84.6265 58.1788 84.8143 58.1814 84.9374 58.3197C84.9947 58.3841 85.0257 58.464 85.018 58.5529C85.0112 58.6313 84.9757 58.6981 84.9427 58.7483C84.9088 58.8 84.8649 58.8524 84.8216 58.9023C84.8056 58.9208 84.7897 58.9389 84.7736 58.9572C84.7433 58.9917 84.7123 59.0268 84.6791 59.0663C84.4834 59.2985 84.2634 59.6151 84.2256 60.1119C84.2061 60.367 84.2369 60.6792 84.2794 61.0599C84.2827 61.0895 84.2861 61.1194 84.2895 61.1497C84.3293 61.5034 84.3744 61.9046 84.3879 62.3411C84.4172 63.2929 84.2966 64.4178 83.6512 65.6503C83.0448 66.8081 83 67.9291 82.9558 69.1356L82.9551 69.153C82.9112 70.3501 82.8645 71.6245 82.2227 73.0259L81.8993 72.8778C82.5114 71.5412 82.5561 70.3271 82.6003 69.1225L82.6005 69.1175C82.6445 67.9189 82.6884 66.7219 83.3361 65.4852C83.9457 64.3211 84.0604 63.2609 84.0323 62.352C84.0193 61.9307 83.9758 61.5431 83.9358 61.1879C83.9325 61.1582 83.9292 61.1287 83.9259 61.0994C83.8842 60.7261 83.8484 60.3794 83.8709 60.0848C83.9168 59.4822 84.1887 59.0963 84.4071 58.8371C84.4425 58.7951 84.4782 58.7544 84.51 58.7183C84.5254 58.7007 84.5398 58.6843 84.5529 58.6692C84.5958 58.6197 84.6257 58.583 84.6455 58.553C84.6456 58.5527 84.6458 58.5525 84.6459 58.5522C84.6293 58.5515 84.6041 58.5536 84.5672 58.5637C84.4756 58.5887 84.3492 58.6563 84.2084 58.7825C83.9293 59.0328 83.6189 59.4917 83.4428 60.1927C83.3564 60.5363 83.3424 60.8452 83.3492 61.1671C83.3515 61.277 83.3565 61.3918 83.3617 61.511C83.3713 61.7327 83.3815 61.9696 83.3766 62.2185C83.3609 63.0081 83.1958 63.9794 82.4322 65.4703C81.7007 66.899 81.6221 67.932 81.5449 68.9476L81.5436 68.9642C81.479 69.8132 81.4128 70.6542 80.9594 71.6757L81.2723 79.9927L80.9169 80.0061L80.628 72.3291C80.6213 72.3408 80.6146 72.3525 80.6078 72.3642L80.2996 72.1867C80.4155 71.9855 80.515 71.7924 80.6008 71.6057L80.096 58.1908L80.096 58.1881L80.096 58.1878L80.096 58.1874L80.096 58.1867C80.0959 58.1851 80.0959 58.1822 80.0957 58.1782C80.0953 58.1702 80.0945 58.1579 80.0929 58.1429C80.0895 58.1121 80.0829 58.074 80.0711 58.0385C80.0447 57.9593 80.0191 57.9549 80.0004 57.9548" fill="#85340A"/>
<path d="M81.0113 80.4186L88.6001 59.953C88.6001 59.953 88.7575 59.5741 88.5048 59.4691C88.2521 59.3642 88.0951 59.7435 88.0951 59.7435L78.9896 79.5812M84.6012 74.2773C86.8129 72.2225 86.674 69.737 88.7506 68.0036C90.8271 66.2696 90.8578 64.1462 91.356 63.1628C91.854 62.179 92.8024 62.2413 92.6902 61.9182C92.5777 61.5947 91.5156 61.7034 90.6177 62.9121C89.7198 64.1207 90.2067 65.233 87.692 67.3719C85.1774 69.5109 85.775 71.1923 83.3751 73.0373" fill="#F6B40E"/>
<path fill-rule="evenodd" clip-rule="evenodd" d="M87.9326 59.6711L78.8281 79.5067L79.1514 79.6551L88.2583 59.8143L88.2593 59.8119L88.2594 59.8116L88.2596 59.8112L88.2599 59.8106C88.2605 59.8091 88.2617 59.8065 88.2634 59.8028C88.2668 59.7955 88.2723 59.7845 88.2795 59.7713C88.2945 59.7441 88.3152 59.7114 88.3397 59.6831C88.3944 59.62 88.4195 59.6259 88.4366 59.633M87.9326 59.6711L87.9343 59.6673C87.9355 59.6644 87.9372 59.6608 87.9391 59.6566C87.9399 59.655 87.9407 59.6532 87.9415 59.6514C87.9477 59.6383 87.9565 59.6206 87.9679 59.5998C87.9902 59.5592 88.0246 59.5036 88.0709 59.4502C88.1578 59.3499 88.3375 59.2067 88.5731 59.3045C88.8085 59.4023 88.8342 59.6305 88.8247 59.7628C88.8197 59.8333 88.8046 59.897 88.7917 59.9415C88.7851 59.9642 88.7787 59.983 88.7738 59.9965C88.7723 60.0007 88.771 60.0044 88.7698 60.0075C88.769 60.0095 88.7683 60.0113 88.7677 60.0129L88.7657 60.018L84.4011 71.7886C84.8023 71.2772 85.0626 70.7662 85.3319 70.2342L85.3408 70.2167C85.8055 69.2986 86.2996 68.3225 87.5768 67.2361C88.8156 66.1825 89.3053 65.3911 89.5983 64.7215C89.6945 64.5018 89.7677 64.3006 89.8405 64.1003C89.8823 63.9854 89.924 63.8708 89.9698 63.7532C90.0927 63.4379 90.2374 63.1256 90.4751 62.8057C90.942 62.1772 91.4596 61.8237 91.8896 61.6725C92.103 61.5974 92.303 61.5694 92.4676 61.5903C92.6249 61.6103 92.7974 61.6845 92.8582 61.8595C92.8865 61.9408 92.8845 62.0265 92.8434 62.1057C92.8072 62.1756 92.7488 62.2237 92.6991 62.2574C92.648 62.2922 92.5874 62.3238 92.5283 62.3534C92.5064 62.3643 92.4848 62.3749 92.4629 62.3857C92.4217 62.4059 92.3797 62.4266 92.3338 62.4503C92.0642 62.59 91.7398 62.7983 91.5148 63.2428C91.3992 63.471 91.3081 63.7713 91.2017 64.1393C91.1934 64.1679 91.1851 64.1968 91.1767 64.226C91.078 64.5681 90.9662 64.956 90.8116 65.3644C90.4745 66.255 89.9325 67.2481 88.8647 68.1398C87.8613 68.9774 87.391 69.9959 86.8884 71.0936L86.8811 71.1095C86.3824 72.1987 85.8516 73.3582 84.7224 74.4073L84.4803 74.1467C85.5573 73.1461 86.0631 72.0416 86.565 70.9456L86.5671 70.941C87.0664 69.8504 87.565 68.7613 88.6367 67.8667C89.6454 67.0245 90.157 66.0889 90.4789 65.2385C90.6282 64.8442 90.7363 64.4694 90.8353 64.126C90.8436 64.0973 90.8518 64.0688 90.86 64.0405C90.9643 63.6796 91.064 63.3456 91.1974 63.0821C91.4704 62.5429 91.8693 62.2904 92.1702 62.1345C92.2191 62.1092 92.2676 62.0853 92.3108 62.0641C92.3317 62.0538 92.3514 62.0441 92.3692 62.0352C92.4278 62.0059 92.4695 61.9834 92.4992 61.9632C92.4995 61.963 92.4997 61.9629 92.5 61.9627C92.4849 61.9557 92.4608 61.948 92.4229 61.9432C92.3286 61.9312 92.1859 61.9453 92.0076 62.0081C91.6539 62.1325 91.1916 62.4377 90.7606 63.0178C90.5493 63.3023 90.4182 63.5823 90.3012 63.8823C90.2613 63.9847 90.222 64.0927 90.1811 64.2048C90.1052 64.4133 90.024 64.6361 89.9242 64.8642C89.6075 65.5876 89.0833 66.4218 87.8073 67.5071C86.5847 68.547 86.1168 69.4713 85.6568 70.38L85.6493 70.3949C85.2647 71.1546 84.8817 71.9062 84.0719 72.6765L81.1782 80.4801L80.8447 80.3564L83.5157 73.1532C83.5051 73.1615 83.4944 73.1698 83.4836 73.178L83.2668 72.896C83.4508 72.7545 83.6167 72.6142 83.7674 72.4745L88.4347 59.8876L88.4357 59.8851L88.4358 59.8848L88.436 59.8845L88.4362 59.8839C88.4368 59.8824 88.4378 59.8796 88.4392 59.8759C88.4419 59.8683 88.4459 59.8567 88.4501 59.8422C88.4588 59.8124 88.4672 59.7747 88.4699 59.7373C88.4759 59.6541 88.4539 59.6402 88.4366 59.633" fill="#85340A"/>
<path d="M80.7742 80.7738L95.6171 64.7701C95.6171 64.7701 95.9075 64.4803 95.7142 64.2866C95.5209 64.0929 95.2308 64.3833 95.2308 64.3833L79.2268 79.2264M86.441 76.4738C89.2706 75.4217 90.0935 73.0723 92.6753 72.2655C95.2573 71.4581 96.0983 69.5081 96.9349 68.7902C97.7715 68.0719 98.6238 68.4924 98.6438 68.1509C98.6636 67.809 97.6409 67.503 96.3488 68.2761C95.0567 69.0491 95.0809 70.263 91.939 71.2767C88.7973 72.2906 88.7059 74.0727 85.7827 74.859" fill="#F6B40E"/>
<path fill-rule="evenodd" clip-rule="evenodd" d="M95.1082 64.2543L79.1059 79.0959L79.3478 79.3567L95.3542 64.5113L95.3561 64.5094L95.3563 64.5092L95.3566 64.5089L95.3571 64.5084C95.3582 64.5073 95.3604 64.5053 95.3633 64.5026C95.3693 64.4972 95.3785 64.4891 95.3903 64.4797C95.4146 64.4602 95.4461 64.438 95.4796 64.4212C95.5543 64.3839 95.5753 64.3989 95.5884 64.412M95.1082 64.2543L95.1111 64.2515C95.1134 64.2493 95.1162 64.2466 95.1197 64.2434C95.121 64.2422 95.1224 64.2409 95.1239 64.2395C95.1346 64.2298 95.1495 64.2168 95.168 64.202C95.2042 64.173 95.2572 64.1348 95.3204 64.1031C95.439 64.0438 95.6599 63.9802 95.8401 64.1607C96.0202 64.3412 95.9567 64.5619 95.8972 64.6805C95.8656 64.7437 95.8273 64.7967 95.7983 64.8329C95.7835 64.8513 95.7705 64.8662 95.7608 64.8769C95.7578 64.8802 95.7551 64.883 95.7528 64.8855C95.7513 64.8871 95.75 64.8885 95.7488 64.8897L95.745 64.8936L87.2082 74.098C87.7746 73.7791 88.2107 73.4065 88.6631 73.0181L88.678 73.0054C89.4587 72.335 90.2887 71.6223 91.8844 71.1073C93.4321 70.608 94.1874 70.0642 94.7144 69.5578C94.8873 69.3916 95.0319 69.2337 95.1758 69.0765C95.2584 68.9863 95.3408 68.8964 95.4281 68.8053C95.6623 68.561 95.9155 68.3279 96.2575 68.1233C96.9294 67.7213 97.5429 67.5928 97.998 67.6176C98.2239 67.63 98.4194 67.6807 98.5635 67.7629C98.7011 67.8415 98.8321 67.9762 98.8214 68.1611C98.8163 68.2471 98.7817 68.3255 98.7135 68.3829C98.6532 68.4336 98.5809 68.4557 98.5221 68.4679C98.4615 68.4804 98.3934 68.4864 98.3275 68.4911C98.3032 68.4928 98.2791 68.4944 98.2547 68.496C98.2089 68.4989 98.1622 68.5019 98.1108 68.5063C97.8082 68.5321 97.4288 68.6004 97.0508 68.925C96.8567 69.0916 96.6576 69.3342 96.4185 69.6334C96.3999 69.6567 96.3811 69.6802 96.3621 69.704C96.1401 69.9822 95.8883 70.2979 95.5892 70.616C94.9369 71.3098 94.0562 72.0199 92.7284 72.4351C91.4809 72.8249 90.6566 73.5859 89.7722 74.4078L89.7594 74.4197C88.8818 75.2351 87.9477 76.1032 86.503 76.6403L86.379 76.3069C87.757 75.7946 88.647 74.9677 89.53 74.1472L89.5337 74.1438C90.4124 73.3273 91.2898 72.5119 92.6223 72.0956C93.8765 71.7034 94.7072 71.0348 95.3301 70.3723C95.6188 70.0652 95.8621 69.7603 96.0851 69.4809C96.1037 69.4576 96.1222 69.4344 96.1406 69.4114C96.3751 69.1179 96.595 68.8474 96.8191 68.6551C97.2777 68.2614 97.7428 68.1807 98.0805 68.1519C98.1353 68.1472 98.1893 68.1437 98.2373 68.1406C98.2606 68.1391 98.2824 68.1377 98.3023 68.1363C98.3677 68.1317 98.4148 68.1268 98.45 68.1195C98.4503 68.1195 98.4506 68.1194 98.4508 68.1194C98.4396 68.1071 98.4203 68.0908 98.3871 68.0718C98.3046 68.0247 98.1674 67.9831 97.9786 67.9728C97.6042 67.9524 97.0603 68.0575 96.4401 68.4285C96.136 68.6105 95.9077 68.819 95.6849 69.0514C95.6088 69.1308 95.5312 69.2155 95.4505 69.3034C95.3006 69.4669 95.1403 69.6417 94.9608 69.8142C94.3914 70.3615 93.5878 70.9315 91.9937 71.4459C90.4661 71.9388 89.6802 72.6136 88.9074 73.2772L88.8948 73.288C88.2488 73.8427 87.6073 74.3905 86.5643 74.7923L80.9046 80.8946L80.6438 80.6527L85.868 75.0199C85.855 75.0235 85.842 75.027 85.8289 75.0306L85.7365 74.6871C85.9607 74.6268 86.1677 74.5606 86.3603 74.4892L95.4891 64.6465L95.491 64.6446L95.4913 64.6444L95.4915 64.6441L95.492 64.6436C95.4931 64.6425 95.4951 64.6403 95.4978 64.6374C95.5032 64.6314 95.5113 64.6222 95.5207 64.6104C95.5402 64.5862 95.5624 64.5546 95.5792 64.5212C95.6166 64.4465 95.6016 64.4253 95.5884 64.412" fill="#85340A"/>
<path d="M78.6207 72.1888C78.4756 69.2916 76.833 68.0087 77.1555 65.3683C76.4473 67.4563 78.155 69.0749 78.0579 72.1587M80.5055 79.761L74.2697 66.1363L79.4949 80.1802" fill="#85340A"/>
<path d="M81.7149 72.2555C82.6896 69.5233 81.6629 67.7094 82.9713 65.3935C81.518 67.0515 82.4763 69.2004 81.2065 72.0124M80.5585 79.9726L80.0113 64.9987L79.4644 79.9731" fill="#85340A"/>
<path d="M84.5481 73.5014C86.4942 71.3501 86.2398 69.2814 88.3349 67.6425C86.3576 68.6181 86.4207 70.9702 84.1714 73.0821M80.5265 80.1884L85.7512 66.145L79.5155 79.7703" fill="#85340A"/>
<path d="M86.6888 75.7362C89.3099 74.4934 89.8666 72.4848 92.4294 71.7724C90.2293 71.9171 89.3874 74.1142 86.5012 75.2047M80.4143 80.3752L90.6154 69.4001L79.6403 79.602" fill="#85340A"/>
<path d="M80.4191 81.0112L100.257 71.9059C100.257 71.9059 100.636 71.7493 100.531 71.4963C100.427 71.2435 100.048 71.4007 100.048 71.4007L79.5817 78.9895M87.3001 79.2071C90.317 79.318 91.9762 77.4623 94.6703 77.705C97.3647 77.9472 98.8879 76.4674 99.9356 76.1243C100.983 75.7808 101.61 76.4955 101.759 76.1876C101.908 75.8794 101.08 75.2052 99.5908 75.425C98.1012 75.6448 97.659 76.7755 94.3684 76.5097C91.0779 76.2441 90.3115 77.8557 87.3099 77.4633" fill="#F6B40E"/>
<path fill-rule="evenodd" clip-rule="evenodd" d="M99.9837 71.2347L79.5199 78.8227L79.6436 79.1563L100.113 71.5663L100.115 71.5653L100.115 71.5652L100.116 71.565L100.116 71.5648C100.118 71.5642 100.121 71.5632 100.124 71.5618C100.132 71.5591 100.144 71.5551 100.158 71.5509C100.188 71.5422 100.226 71.5338 100.263 71.5311C100.346 71.5251 100.36 71.5471 100.367 71.5642M99.9837 71.2347L99.9875 71.2332C99.9904 71.2321 99.9941 71.2307 99.9985 71.2291C100 71.2285 100.002 71.2278 100.004 71.2271C100.017 71.2222 100.036 71.2159 100.059 71.2093C100.103 71.1964 100.167 71.1813 100.238 71.1763C100.37 71.1668 100.598 71.1927 100.696 71.4284C100.793 71.664 100.65 71.8436 100.55 71.9304C100.496 71.9767 100.441 72.011 100.4 72.0334C100.379 72.0447 100.361 72.0535 100.348 72.0597C100.344 72.0615 100.341 72.0632 100.338 72.0646C100.336 72.0655 100.334 72.0662 100.332 72.0669L100.327 72.0691L88.9181 77.306C89.5634 77.228 90.1089 77.0508 90.6754 76.865L90.6941 76.8589C91.6719 76.5383 92.7115 76.1975 94.3828 76.3324C96.0038 76.4634 96.9097 76.25 97.5903 75.9838C97.8136 75.8964 98.0077 75.8059 98.2008 75.7157C98.3116 75.664 98.4221 75.6125 98.5377 75.5617C98.8476 75.4256 99.1707 75.3072 99.5649 75.249C100.34 75.1347 100.955 75.2508 101.366 75.4479C101.57 75.5458 101.732 75.6674 101.833 75.7986C101.93 75.9239 102 76.0984 101.919 76.2651C101.882 76.3426 101.82 76.4018 101.735 76.4288C101.66 76.4525 101.584 76.4453 101.525 76.434C101.464 76.4224 101.399 76.4019 101.337 76.381C101.313 76.3733 101.291 76.3655 101.268 76.3576C101.224 76.3428 101.18 76.3277 101.131 76.3121C100.841 76.2202 100.465 76.1381 99.9911 76.2933C99.7479 76.3729 99.4712 76.5208 99.1357 76.7058C99.1097 76.7202 99.0833 76.7347 99.0567 76.7495C98.7451 76.9216 98.3917 77.1168 97.9936 77.2962C97.1255 77.6876 96.04 78.0066 94.6545 77.8821C93.3527 77.7648 92.2999 78.1525 91.1683 78.5733L91.1519 78.5794C90.0291 78.997 88.8339 79.4415 87.2936 79.3848L87.3067 79.0294C88.7758 79.0834 89.9145 78.6601 91.0443 78.2399L91.049 78.2381C92.1732 77.8201 93.296 77.4026 94.6863 77.5278C95.9951 77.6455 97.0185 77.3457 97.8474 76.972C98.2317 76.7987 98.5732 76.6101 98.8861 76.4373C98.9122 76.4229 98.9382 76.4085 98.964 76.3943C99.293 76.2129 99.5996 76.0472 99.8803 75.9552C100.455 75.767 100.915 75.8705 101.238 75.9731C101.291 75.9897 101.342 76.0072 101.387 76.0227C101.409 76.0302 101.43 76.0373 101.449 76.0436C101.511 76.0643 101.557 76.0779 101.592 76.0846C101.592 76.0847 101.593 76.0847 101.593 76.0848C101.587 76.0691 101.576 76.0466 101.552 76.0164C101.494 75.9414 101.383 75.8504 101.213 75.7687C100.875 75.6065 100.332 75.4954 99.6168 75.6009C99.2663 75.6526 98.9756 75.7579 98.6807 75.8874C98.5801 75.9316 98.4759 75.9801 98.3678 76.0305C98.1667 76.1242 97.9517 76.2244 97.7199 76.3151C96.9844 76.6027 96.0238 76.8218 94.3542 76.687C92.7543 76.5578 91.7699 76.8806 90.8021 77.1978L90.7863 77.203C89.9771 77.4683 89.1748 77.7289 88.0575 77.701L80.4934 81.1729L80.345 80.8496L87.3271 77.6448C87.3137 77.6431 87.3003 77.6414 87.2869 77.6397L87.333 77.287C87.5632 77.317 87.7797 77.3351 87.985 77.3429L100.186 71.7429L100.188 71.7418L100.188 71.7417L100.189 71.7415L100.189 71.7413C100.191 71.7406 100.193 71.7394 100.197 71.7377C100.204 71.7343 100.215 71.7289 100.229 71.7216C100.256 71.7067 100.288 71.686 100.317 71.6615C100.38 71.6069 100.374 71.5815 100.367 71.5642" fill="#85340A"/>
<path d="M80.0003 81.0949L101.812 80.2742C101.812 80.2742 102.222 80.2745 102.223 80.0009C102.223 79.7273 101.812 79.7274 101.812 79.7274L80.0002 78.9066M87.0478 82.0613C89.7926 83.3183 92.0358 82.2388 94.4319 83.494C96.8285 84.7489 98.802 83.9647 99.9013 84.0486C101.001 84.1322 101.306 85.0323 101.562 84.8049C101.817 84.5772 101.311 83.6376 99.8504 83.2706C98.3901 82.9036 97.5488 83.779 94.6104 82.2742C91.672 80.7696 90.3472 81.9652 87.7242 80.454" fill="#F6B40E"/>
<path fill-rule="evenodd" clip-rule="evenodd" d="M101.817 79.5494L80.0069 78.7287L79.9935 79.0842L101.809 79.9051L101.812 79.9051L101.812 79.9051L101.812 79.9051L101.813 79.9051C101.815 79.9052 101.818 79.9052 101.822 79.9054C101.83 79.9058 101.842 79.9066 101.857 79.9083C101.888 79.9117 101.926 79.9183 101.961 79.9301C102.041 79.9565 102.045 79.982 102.045 80.0005M101.817 79.5494L101.821 79.5495C101.824 79.5496 101.828 79.5497 101.833 79.5499C101.834 79.5499 101.836 79.55 101.838 79.5501C101.853 79.5508 101.873 79.5521 101.896 79.5547C101.942 79.5598 102.007 79.5703 102.074 79.5926C102.2 79.6345 102.401 79.7458 102.401 80.0008C102.4 80.2557 102.199 80.3669 102.073 80.4087C102.006 80.431 101.942 80.4415 101.896 80.4465C101.872 80.4491 101.852 80.4504 101.838 80.4511C101.834 80.4513 101.83 80.4515 101.826 80.4516C101.824 80.4516 101.822 80.4517 101.82 80.4517L101.815 80.4518L89.2701 80.9239C89.8961 81.0988 90.4679 81.1438 91.0625 81.189L91.082 81.1905C92.1081 81.2685 93.199 81.3515 94.6914 82.1157C96.1389 82.857 97.0575 83.0065 97.7882 83.0211C98.028 83.0258 98.2419 83.0164 98.4548 83.0071C98.5769 83.0017 98.6988 82.9963 98.825 82.9937C99.1633 82.9866 99.5072 83.0008 99.8937 83.0979C100.653 83.2887 101.178 83.6317 101.482 83.9711C101.633 84.1395 101.735 84.3136 101.779 84.4737C101.821 84.6266 101.818 84.8144 101.68 84.9376C101.616 84.9948 101.536 85.0258 101.447 85.0181C101.368 85.0114 101.301 84.9758 101.251 84.9429C101.2 84.9089 101.147 84.865 101.097 84.8217C101.079 84.8057 101.061 84.7898 101.042 84.7737C101.008 84.7434 100.973 84.7125 100.933 84.6792C100.701 84.4835 100.385 84.2635 99.8878 84.2257C99.6327 84.2063 99.3204 84.237 98.9397 84.2796C98.9101 84.2829 98.8802 84.2862 98.8499 84.2896C98.4962 84.3294 98.095 84.3745 97.6586 84.388C96.7067 84.4173 95.5818 84.2967 94.3494 83.6514C93.1916 83.0449 92.0706 83.0002 90.8641 82.9559L90.8466 82.9553C89.6495 82.9113 88.3751 82.8646 86.9737 82.2229L87.1219 81.8995C88.4585 82.5115 89.6725 82.5562 90.8771 82.6004L90.8821 82.6006C92.0807 82.6446 93.2778 82.6885 94.5144 83.3363C95.6786 83.9458 96.7387 84.0605 97.6476 84.0324C98.0689 84.0194 98.4566 83.9759 98.8118 83.936C98.8415 83.9326 98.8709 83.9293 98.9002 83.926C99.2736 83.8843 99.6203 83.8486 99.9148 83.8711C100.517 83.9169 100.903 84.1888 101.163 84.4072C101.205 84.4426 101.245 84.4783 101.281 84.5101C101.299 84.5255 101.315 84.54 101.33 84.553C101.38 84.596 101.417 84.6259 101.447 84.6456C101.447 84.6457 101.447 84.6459 101.447 84.6461C101.448 84.6294 101.446 84.6042 101.436 84.5674C101.411 84.4757 101.343 84.3493 101.217 84.2085C100.967 83.9294 100.508 83.619 99.807 83.4429C99.4633 83.3565 99.1544 83.3425 98.8325 83.3493C98.7226 83.3516 98.6078 83.3566 98.4886 83.3618C98.267 83.3714 98.03 83.3817 97.7811 83.3767C96.9915 83.361 96.0202 83.1959 94.5293 82.4323C93.1006 81.7008 92.0677 81.6222 91.0521 81.545L91.0355 81.5437C90.1864 81.4791 89.3455 81.4129 88.3239 80.9595L80.0069 81.2724L79.9935 80.917L87.6706 80.6281C87.6589 80.6214 87.6471 80.6147 87.6354 80.608L87.813 80.2997C88.0141 80.4156 88.2073 80.5151 88.3939 80.6009L101.809 80.0961L101.811 80.0961L101.812 80.0961L101.812 80.0961L101.813 80.0961C101.814 80.0961 101.817 80.096 101.821 80.0958C101.829 80.0954 101.842 80.0946 101.857 80.093C101.888 80.0896 101.926 80.083 101.961 80.0712C102.04 80.0448 102.045 80.0192 102.045 80.0005" fill="#85340A"/>
<path d="M79.5813 81.0116L100.047 88.6004C100.047 88.6004 100.426 88.7577 100.531 88.505C100.636 88.2523 100.256 88.0954 100.256 88.0954L80.4187 78.9899M85.7226 84.6015C87.7774 86.8131 90.2629 86.6742 91.9963 88.7508C93.7303 90.8273 95.8537 90.8581 96.8371 91.3562C97.8209 91.8543 97.7586 92.8026 98.0817 92.6904C98.4051 92.5779 98.2965 91.5159 97.0878 90.618C95.8791 89.7201 94.7669 90.207 92.628 87.6922C90.489 85.1776 88.8076 85.7752 86.9625 83.3753" fill="#F6B40E"/>
<path fill-rule="evenodd" clip-rule="evenodd" d="M100.329 87.933L80.4929 78.8285L80.3446 79.1517L100.185 88.2587L100.188 88.2597L100.188 88.2598L100.188 88.2599L100.189 88.2602C100.191 88.2609 100.193 88.2621 100.197 88.2638C100.204 88.2672 100.215 88.2726 100.228 88.2799C100.256 88.2949 100.288 88.3155 100.316 88.3401C100.38 88.3948 100.374 88.4199 100.367 88.437M100.329 87.933L100.332 87.9346C100.335 87.9359 100.339 87.9375 100.343 87.9395C100.345 87.9402 100.346 87.941 100.348 87.9419C100.361 87.948 100.379 87.9568 100.4 87.9682C100.44 87.9906 100.496 88.025 100.549 88.0713C100.65 88.1581 100.793 88.3378 100.695 88.5734C100.597 88.8088 100.369 88.8346 100.237 88.8251C100.166 88.82 100.103 88.805 100.058 88.792C100.035 88.7854 100.017 88.7791 100.003 88.7742C99.999 88.7727 99.9953 88.7713 99.9921 88.7701C99.9901 88.7694 99.9883 88.7687 99.9867 88.768L99.9816 88.766L88.211 84.4014C88.7224 84.8026 89.2335 85.063 89.7654 85.3323L89.7829 85.3412C90.701 85.8059 91.6771 86.3 92.7635 87.5772C93.8171 88.816 94.6086 89.3057 95.2781 89.5987C95.4978 89.6949 95.699 89.768 95.8993 89.8409C96.0142 89.8827 96.1289 89.9243 96.2465 89.9702C96.5618 90.0931 96.8741 90.2378 97.1939 90.4754C97.8225 90.9423 98.1759 91.46 98.3271 91.8899C98.4022 92.1034 98.4302 92.3034 98.4093 92.468C98.3894 92.6252 98.3151 92.7978 98.1402 92.8586C98.0588 92.8869 97.9731 92.8849 97.8939 92.8438C97.824 92.8076 97.7759 92.7492 97.7422 92.6995C97.7074 92.6483 97.6758 92.5878 97.6463 92.5287C97.6353 92.5068 97.6247 92.4852 97.6139 92.4632C97.5937 92.4221 97.573 92.38 97.5493 92.3342C97.4096 92.0646 97.2014 91.7402 96.7569 91.5151C96.5286 91.3995 96.2284 91.3085 95.8603 91.2021C95.8318 91.1938 95.8028 91.1855 95.7736 91.177C95.4316 91.0784 95.0436 90.9665 94.6353 90.812C93.7446 90.4748 92.7515 89.9329 91.8598 88.8651C91.0223 87.8617 90.0037 87.3914 88.906 86.8887L88.8901 86.8815C87.8009 86.3828 86.6414 85.8519 85.5923 84.7228L85.8529 84.4806C86.8536 85.5576 87.9581 86.0635 89.0541 86.5653L89.0587 86.5674C90.1492 87.0667 91.2383 87.5654 92.1329 88.6371C92.9752 89.6457 93.9108 90.1574 94.7612 90.4793C95.1554 90.6285 95.5302 90.7366 95.8736 90.8357C95.9024 90.844 95.9309 90.8522 95.9592 90.8603C96.3201 90.9647 96.6541 91.0643 96.9176 91.1978C97.4568 91.4708 97.7093 91.8696 97.8651 92.1706C97.8904 92.2194 97.9143 92.268 97.9356 92.3112C97.9459 92.3321 97.9555 92.3518 97.9644 92.3696C97.9937 92.4282 98.0162 92.4699 98.0364 92.4996C98.0366 92.4998 98.0368 92.5001 98.0369 92.5003C98.044 92.4852 98.0516 92.4611 98.0564 92.4232C98.0684 92.329 98.0543 92.1863 97.9916 92.008C97.8672 91.6543 97.562 91.1919 96.9818 90.761C96.6973 90.5496 96.4173 90.4185 96.1173 90.3016C96.0149 90.2617 95.9069 90.2224 95.7948 90.1815C95.5864 90.1056 95.3635 90.0244 95.1355 89.9246C94.412 89.6079 93.5778 89.0837 92.4926 87.8077C91.4526 86.5851 90.5284 86.1172 89.6196 85.6572L89.6048 85.6497C88.8451 85.2651 88.0935 84.8821 87.3232 84.0722L79.5195 81.1786L79.6432 80.8451L86.8464 83.5161C86.8381 83.5054 86.8299 83.4947 86.8216 83.484L87.1036 83.2672C87.2451 83.4512 87.3855 83.6171 87.5251 83.7677L100.112 88.435L100.114 88.4361L100.115 88.4362L100.115 88.4363L100.116 88.4366C100.117 88.4372 100.12 88.4382 100.124 88.4396C100.131 88.4423 100.143 88.4462 100.157 88.4505C100.187 88.4591 100.225 88.4676 100.262 88.4703C100.346 88.4763 100.359 88.4543 100.367 88.437" fill="#85340A"/>
<path d="M79.2261 80.7747L95.2298 95.6176C95.2298 95.6176 95.5196 95.908 95.7133 95.7147C95.9069 95.5214 95.6165 95.2312 95.6165 95.2312L80.7734 79.2273M83.5261 86.4414C84.5782 89.2711 86.9276 90.0939 87.7344 92.6758C88.5417 95.2578 90.4918 96.0988 91.2097 96.9354C91.928 97.772 91.5075 98.6243 91.849 98.6443C92.1909 98.6641 92.4969 97.6413 91.7238 96.3493C90.9508 95.0572 89.7368 95.0814 88.7231 91.9395C87.7093 88.7978 85.9271 88.7064 85.1409 85.7832" fill="#F6B40E"/>
<path fill-rule="evenodd" clip-rule="evenodd" d="M95.7454 95.1083L80.9039 79.106L80.6431 79.3479L95.4885 95.3543L95.4903 95.3562L95.4906 95.3564L95.4909 95.3567L95.4913 95.3572C95.4924 95.3584 95.4944 95.3605 95.4971 95.3634C95.5026 95.3694 95.5107 95.3787 95.5201 95.3904C95.5395 95.4147 95.5618 95.4463 95.5785 95.4797C95.6159 95.5544 95.6008 95.5754 95.5877 95.5885M95.7454 95.1083L95.7483 95.1112C95.7505 95.1135 95.7532 95.1164 95.7563 95.1198C95.7575 95.1211 95.7589 95.1225 95.7602 95.1241C95.7699 95.1347 95.783 95.1496 95.7978 95.1681C95.8267 95.2043 95.865 95.2573 95.8966 95.3205C95.956 95.4392 96.0195 95.66 95.839 95.8402C95.6586 96.0203 95.4379 95.9568 95.3193 95.8973C95.2561 95.8657 95.203 95.8274 95.1669 95.7984C95.1484 95.7837 95.1335 95.7706 95.1229 95.7609C95.1196 95.7579 95.1167 95.7553 95.1142 95.7529C95.1127 95.7514 95.1113 95.7501 95.11 95.7489L95.1061 95.7451L85.9017 87.2084C86.2207 87.7747 86.5932 88.2108 86.9816 88.6632L86.9944 88.6781C87.6648 89.4588 88.3775 90.2888 88.8924 91.8846C89.3918 93.4322 89.9356 94.1875 90.442 94.7145C90.6082 94.8874 90.7661 95.032 90.9232 95.1759C91.0134 95.2585 91.1034 95.3409 91.1945 95.4282C91.4388 95.6624 91.6719 95.9157 91.8765 96.2576C92.2785 96.9295 92.4069 97.543 92.3821 97.9981C92.3698 98.224 92.3191 98.4195 92.2368 98.5636C92.1582 98.7012 92.0236 98.8322 91.8387 98.8215C91.7527 98.8165 91.6743 98.7819 91.6168 98.7136C91.5662 98.6533 91.544 98.581 91.5319 98.5222C91.5193 98.4616 91.5133 98.3936 91.5086 98.3277C91.5069 98.3033 91.5054 98.2792 91.5038 98.2548C91.5009 98.2091 91.4978 98.1623 91.4935 98.1109C91.4676 97.8083 91.3993 97.429 91.0748 97.0509C90.9082 96.8568 90.6656 96.6577 90.3663 96.4186C90.3431 96.4 90.3196 96.3812 90.2958 96.3623C90.0175 96.1403 89.7019 95.8884 89.3838 95.5894C88.6899 94.9371 87.9799 94.0563 87.5647 92.7286C87.1748 91.481 86.4138 90.6567 85.592 89.7723L85.5801 89.7595C84.7646 88.882 83.8966 87.9478 83.3594 86.5031L83.6928 86.3791C84.2052 87.7571 85.032 88.6471 85.8526 89.5302L85.856 89.5339C86.6724 90.4125 87.4878 91.29 87.9042 92.6224C88.2964 93.8766 88.9649 94.7074 89.6274 95.3302C89.9346 95.6189 90.2394 95.8622 90.5188 96.0852C90.5422 96.1038 90.5654 96.1223 90.5884 96.1407C90.8819 96.3752 91.1523 96.5951 91.3447 96.8192C91.7384 97.2778 91.819 97.7429 91.8479 98.0806C91.8526 98.1354 91.856 98.1894 91.8591 98.2374C91.8606 98.2607 91.862 98.2826 91.8635 98.3025C91.8681 98.3678 91.8729 98.4149 91.8802 98.4501C91.8803 98.4504 91.8803 98.4507 91.8804 98.451C91.8927 98.4397 91.909 98.4204 91.9279 98.3872C91.975 98.3047 92.0166 98.1675 92.0269 97.9787C92.0473 97.6044 91.9423 97.0604 91.5712 96.4402C91.3893 96.1361 91.1808 95.9079 90.9483 95.685C90.869 95.609 90.7843 95.5313 90.6963 95.4506C90.5328 95.3007 90.358 95.1405 90.1855 94.961C89.6383 94.3915 89.0683 93.588 88.5539 91.9938C88.061 90.4663 87.3861 89.6803 86.7226 88.9076L86.7117 88.8949C86.1571 88.2489 85.6092 87.6074 85.2075 86.5644L79.1052 80.9047L79.3471 80.6439L84.9798 85.8681C84.9763 85.8552 84.9727 85.8421 84.9692 85.829L85.3127 85.7366C85.373 85.9608 85.4392 86.1678 85.5106 86.3604L95.3532 95.4892L95.3551 95.4911L95.3554 95.4914L95.3557 95.4917L95.3561 95.4921C95.3573 95.4932 95.3594 95.4952 95.3624 95.4979C95.3683 95.5033 95.3776 95.5114 95.3893 95.5209C95.4136 95.5403 95.4451 95.5625 95.4786 95.5793C95.5532 95.6167 95.5745 95.6017 95.5877 95.5885" fill="#85340A"/>
<path d="M87.8112 78.6211C90.7084 78.476 91.9913 76.8333 94.6317 77.1559C92.5437 76.4476 90.9251 78.1553 87.8413 78.0583M80.239 80.5059L93.8637 74.27L79.8198 79.4953" fill="#85340A"/>
<path d="M87.7444 81.7153C90.4765 82.69 92.2905 81.6633 94.6064 82.9717C92.9484 81.5183 90.7995 82.4766 87.9875 81.2068M80.0273 80.5589L95.0012 80.0116L80.0267 79.4648" fill="#85340A"/>
<path d="M86.4985 84.5485C88.6497 86.4945 90.7185 86.2402 92.3574 88.3352C91.3818 86.358 89.0297 86.421 86.9177 84.1718M79.8114 80.5269L93.8549 85.7516L80.2296 79.5159" fill="#85340A"/>
<path d="M84.2634 86.6891C85.5061 89.3103 87.5147 89.8669 88.2271 92.4297C88.0824 90.2296 85.8853 89.3878 84.7948 86.5015M79.6243 80.4146L90.5994 90.6158L80.3975 79.6406" fill="#85340A"/>
<path d="M80 88.8888C84.9093 88.8888 88.889 84.909 88.889 79.9998C88.889 75.0906 84.9093 71.1108 80 71.1108C75.0908 71.1108 71.1111 75.0906 71.1111 79.9998C71.1111 84.909 75.0908 88.8888 80 88.8888Z" fill="#F6B40E"/>
<path fill-rule="evenodd" clip-rule="evenodd" d="M80.0001 71.3511C75.2234 71.3511 71.3511 75.2234 71.3511 80.0001C71.3511 84.7767 75.2234 88.649 80.0001 88.649C84.7767 88.649 88.649 84.7767 88.649 80.0001C88.649 75.2234 84.7767 71.3511 80.0001 71.3511ZM70.8711 80.0001C70.8711 74.9583 74.9583 70.8711 80.0001 70.8711C85.0418 70.8711 89.129 74.9583 89.129 80.0001C89.129 85.0418 85.0418 89.129 80.0001 89.129C74.9583 89.129 70.8711 85.0418 70.8711 80.0001Z" fill="#85340A"/>
<path d="M83.0305 78.0991C82.4235 78.0991 81.8423 78.3621 81.5005 78.9091C82.1842 79.5244 83.6946 79.5913 84.7203 78.8391C84.2761 78.3606 83.6373 78.0991 83.0303 78.0991L83.0305 78.0991ZM83.0205 78.2391C83.6113 78.2284 84.1634 78.4998 84.2405 78.7691C83.5567 79.5212 82.4642 79.4559 81.7805 78.9091C82.0796 78.4305 82.561 78.2475 83.0205 78.2391V78.2391Z" fill="#843511"/>
<path d="M83.1456 77.6769C82.257 77.6769 82.0516 77.8823 81.6413 78.2241C81.2307 78.566 81.0259 78.4974 80.9576 78.566C80.8896 78.6345 80.9576 78.8393 81.0941 78.7707C81.2306 78.7022 81.5048 78.566 81.9144 78.224C82.325 77.8817 82.7346 77.8821 83.1452 77.8821C84.376 77.8821 85.0597 78.9076 85.1962 78.8392C85.3327 78.7706 84.5124 77.6768 83.1452 77.6768L83.1456 77.6769Z" fill="#85340A"/>
<path d="M85.6064 78.0862C84.0338 76.7189 82.0512 76.5135 80.9568 77.5395C80.689 77.8981 80.5174 78.2815 80.447 78.6817C80.3093 79.4603 80.5527 80.3015 81.1627 81.1636C81.0939 81.1633 80.9568 81.2316 80.8885 81.3001C80.3456 80.2621 80.1536 79.1958 80.3317 78.1816C80.3784 77.9166 80.4512 77.6558 80.546 77.4022C82.0502 76.1717 84.1012 76.0349 85.6055 78.0862L85.6064 78.0862Z" fill="#85340A"/>
<path d="M83.0087 79.3835C83.3485 79.3835 83.624 79.108 83.624 78.7682C83.624 78.4283 83.3485 78.1528 83.0087 78.1528C82.6688 78.1528 82.3933 78.4283 82.3933 78.7682C82.3933 79.108 82.6688 79.3835 83.0087 79.3835Z" fill="#85340A"/>
<path d="M84.7872 79.1809C83.6248 80.07 82.4624 80.0016 81.7787 79.5912C81.0949 79.1809 81.0949 79.0444 81.2315 79.0444C81.368 79.0444 81.5045 79.1809 82.0517 79.4544C82.5989 79.7282 83.4191 79.7282 84.7865 79.181L84.7872 79.1809Z" fill="#85340A"/>
<path d="M78.64 81.229C78.3477 81.2823 78.14 81.5417 78.14 81.839C78.14 82.1786 78.4208 82.449 78.76 82.449C78.9605 82.449 79.1448 82.354 79.26 82.189C79.4967 82.3669 79.8247 82.3858 80 82.389C80.027 82.3896 80.0618 82.389 80.08 82.389C80.2553 82.3858 80.5834 82.3669 80.82 82.189C80.9352 82.354 81.1195 82.449 81.32 82.449C81.6592 82.449 81.94 82.1786 81.94 81.839C81.94 81.5417 81.7323 81.2823 81.44 81.229C81.6042 81.2869 81.71 81.4455 81.71 81.619C81.71 81.8454 81.5272 82.029 81.3 82.029C81.0823 82.029 80.9028 81.8562 80.89 81.639C80.8233 81.7722 80.5591 82.1686 80.0401 82.189C79.521 82.1687 79.2568 81.7722 79.1901 81.639C79.1773 81.8561 78.9978 82.029 78.7801 82.029C78.5529 82.029 78.3701 81.8454 78.3701 81.619C78.3701 81.4455 78.476 81.2869 78.6401 81.229H78.64Z" fill="#85340A"/>
<path d="M79.3087 83.0498C78.6246 83.0498 78.3542 83.6696 77.7388 84.0798C78.0808 83.9434 78.3498 83.6736 78.8288 83.3998C79.3075 83.1264 79.7157 83.4598 79.9887 83.4598H79.9987C80.2718 83.4598 80.68 83.1265 81.1587 83.3998C81.6377 83.6737 81.9167 83.9434 82.2587 84.0798C81.6433 83.6696 81.3629 83.0498 80.6787 83.0498C80.5422 83.0498 80.2718 83.1236 79.9987 83.2598H79.9887C79.7157 83.1234 79.4453 83.0498 79.3087 83.0498Z" fill="#85340A"/>
<path d="M79.0784 83.8594C78.8083 83.8714 78.4513 83.9255 77.9384 84.0794C79.1695 83.806 79.4411 84.2194 79.9883 84.2194H79.9983C80.5455 84.2194 80.8171 83.8059 82.0483 84.0794C80.6805 83.6691 80.4086 83.9394 79.9983 83.9394H79.9883C79.7319 83.9394 79.5284 83.8394 79.0783 83.8594H79.0784Z" fill="#85340A"/>
<path d="M78 84.0702C77.9206 84.0712 77.834 84.0718 77.74 84.0802C79.1762 84.2171 78.4858 85.0402 79.99 85.0402H80C81.5042 85.0402 80.8238 84.217 82.26 84.0802C80.7557 83.9437 81.2313 84.8302 80 84.8302H79.99C78.8356 84.8302 79.1913 84.0553 78 84.0702H78Z" fill="#85340A"/>
<path d="M81.232 86.2914C81.232 85.6119 80.6806 85.0605 80.0012 85.0605C79.3217 85.0605 78.7704 85.6119 78.7704 86.2914C78.9057 85.7215 79.4157 85.3188 80.0012 85.3188C80.5879 85.3188 81.0969 85.7216 81.232 86.2914Z" fill="#85340A"/>
<path d="M74.4736 78.0862C76.0463 76.7189 78.0288 76.5135 79.1232 77.5395C79.3911 77.8981 79.5627 78.2815 79.6331 78.6817C79.7708 79.4603 79.5274 80.3015 78.9174 81.1636C78.9862 81.1633 79.1233 81.2316 79.1916 81.3001C79.7345 80.2621 79.9265 79.1958 79.7483 78.1816C79.7017 77.9166 79.6288 77.6558 79.5341 77.4022C78.0299 76.1717 75.9789 76.0349 74.4746 78.0862L74.4736 78.0862Z" fill="#85340A"/>
<path d="M76.9344 77.6769C77.8229 77.6769 78.0284 77.8823 78.4386 78.2241C78.8493 78.566 79.0541 78.4974 79.1224 78.566C79.1903 78.6345 79.1224 78.8393 78.9859 78.7707C78.8493 78.7022 78.5752 78.566 78.1656 78.224C77.7549 77.8817 77.3453 77.8821 76.9348 77.8821C75.704 77.8821 75.0202 78.9076 74.8838 78.8392C74.7473 78.7706 75.5675 77.6768 76.9348 77.6768L76.9344 77.6769Z" fill="#85340A"/>
<path d="M76.8925 78.0991C76.2856 78.0991 75.7043 78.3621 75.3625 78.9091C76.0463 79.5244 77.5566 79.5913 78.5824 78.8391C78.1381 78.3606 77.4993 78.0991 76.8924 78.0991L76.8925 78.0991ZM76.8825 78.2391C77.4733 78.2284 78.0255 78.4998 78.1025 78.7691C77.4188 79.5212 76.3263 79.4559 75.6425 78.9091C75.9417 78.4305 76.4231 78.2475 76.8825 78.2391V78.2391Z" fill="#843511"/>
<path d="M76.9728 79.3835C77.3126 79.3835 77.5881 79.108 77.5881 78.7682C77.5881 78.4283 77.3126 78.1528 76.9728 78.1528C76.6329 78.1528 76.3574 78.4283 76.3574 78.7682C76.3574 79.108 76.6329 79.3835 76.9728 79.3835Z" fill="#85340A"/>
</g>
<path fill-rule="evenodd" clip-rule="evenodd" d="M80 156C121.974 156 156 121.974 156 80C156 38.0264 121.974 4 80 4C38.0264 4 4 38.0264 4 80C4 121.974 38.0264 156 80 156ZM80 160C124.183 160 160 124.183 160 80C160 35.8172 124.183 0 80 0C35.8172 0 0 35.8172 0 80C0 124.183 35.8172 160 80 160Z" fill="black" fill-opacity="0.15"/>
</g>
<defs>
<clipPath id="clip0_1_15733">
<rect width="160" height="160" rx="80" fill="white"/>
</clipPath>
<clipPath id="clip1_1_15733">
<rect width="256" height="160" fill="white" transform="translate(-48)"/>
</clipPath>
</defs>
</svg>
