<svg width="160" height="160" viewBox="0 0 160 160" fill="none" xmlns="http://www.w3.org/2000/svg">
<g clip-path="url(#clip0_1_15706)">
<g clip-path="url(#clip1_1_15706)">
<path d="M-40 0H200V160H-40V0Z" fill="#CE1126"/>
<path d="M-40 0H40V160H-40V0Z" fill="#007A5E"/>
<path d="M120 0H200V160H120V0Z" fill="#FCD116"/>
<path d="M67.5074 97.1947L100.213 73.4325H59.7866L92.4925 97.1947L80 58.7466L67.5074 97.1947Z" fill="#FCD116"/>
</g>
<path fill-rule="evenodd" clip-rule="evenodd" d="M80 156C121.974 156 156 121.974 156 80C156 38.0264 121.974 4 80 4C38.0264 4 4 38.0264 4 80C4 121.974 38.0264 156 80 156ZM80 160C124.183 160 160 124.183 160 80C160 35.8172 124.183 0 80 0C35.8172 0 0 35.8172 0 80C0 124.183 35.8172 160 80 160Z" fill="black" fill-opacity="0.15"/>
</g>
<defs>
<clipPath id="clip0_1_15706">
<rect width="160" height="160" rx="80" fill="white"/>
</clipPath>
<clipPath id="clip1_1_15706">
<rect width="240" height="160" fill="white" transform="translate(-40)"/>
</clipPath>
</defs>
</svg>
