<svg width="160" height="160" viewBox="0 0 160 160" fill="none" xmlns="http://www.w3.org/2000/svg">
<g clip-path="url(#clip0_1_15728)">
<path d="M-20 -3H30L32.0625 0.361875H127.938L130 -3H180V160H130L127.938 156.638H32.0625L30 160H-20V-3Z" fill="#D52B1E"/>
<path d="M30 0H130V160H30V0ZM81.875 122.292L80.9375 104.312C80.9239 104.017 80.9767 103.722 81.0922 103.449C81.2077 103.177 81.3828 102.934 81.6047 102.738C81.8266 102.542 82.0896 102.398 82.3743 102.317C82.659 102.237 82.9583 102.221 83.25 102.271L101.146 105.417L98.7292 98.75C98.6311 98.4847 98.6186 98.1954 98.6933 97.9227C98.768 97.6499 98.9263 97.4074 99.1458 97.2292L118.75 81.3542L114.333 79.2917C114.035 79.1507 113.798 78.9057 113.668 78.6027C113.538 78.2996 113.522 77.9594 113.625 77.6458L117.5 65.7292L106.208 68.125C105.902 68.1888 105.584 68.1448 105.307 68.0005C105.029 67.8562 104.811 67.6205 104.688 67.3333L102.5 62.1875L93.6875 71.6458C93.486 71.8584 93.221 71.9999 92.9323 72.0491C92.6436 72.0983 92.3467 72.0526 92.0862 71.9188C91.8257 71.785 91.6155 71.5703 91.4873 71.307C91.3591 71.0437 91.3197 70.7459 91.375 70.4583L95.625 48.5417L88.8125 52.4792C88.6526 52.5729 88.4751 52.6328 88.291 52.6552C88.107 52.6775 87.9203 52.6618 87.7426 52.6091C87.5648 52.5564 87.3998 52.4677 87.2578 52.3486C87.1157 52.2295 86.9996 52.0825 86.9167 51.9167L80 38.3333L73.0833 51.9167C73.0004 52.0825 72.8843 52.2295 72.7422 52.3486C72.6002 52.4677 72.4352 52.5564 72.2574 52.6091C72.0797 52.6618 71.893 52.6775 71.709 52.6552C71.5249 52.6328 71.3474 52.5729 71.1875 52.4792L64.375 48.5417L68.625 70.4583C68.6803 70.7459 68.6409 71.0437 68.5127 71.307C68.3845 71.5703 68.1743 71.785 67.9138 71.9188C67.6533 72.0526 67.3564 72.0983 67.0677 72.0491C66.779 71.9999 66.514 71.8584 66.3125 71.6458L57.5 62.1875L55.3125 67.3333C55.1893 67.6205 54.9705 67.8562 54.6933 68.0005C54.4161 68.1448 54.0976 68.1888 53.7917 68.125L42.5 65.7292L46.375 77.6458C46.4777 77.9594 46.4624 78.2996 46.332 78.6027C46.2015 78.9057 45.965 79.1507 45.6667 79.2917L41.25 81.3542L60.8542 97.2292C61.0737 97.4074 61.232 97.6499 61.3067 97.9227C61.3814 98.1954 61.3689 98.4847 61.2708 98.75L58.8542 105.417L76.75 102.271C77.0417 102.221 77.341 102.237 77.6257 102.317C77.9104 102.398 78.1735 102.542 78.3953 102.738C78.6172 102.934 78.7923 103.177 78.9078 103.449C79.0233 103.722 79.0761 104.017 79.0625 104.312L78.125 122.292H81.875Z" fill="white"/>
<path fill-rule="evenodd" clip-rule="evenodd" d="M80 156C121.974 156 156 121.974 156 80C156 38.0264 121.974 4 80 4C38.0264 4 4 38.0264 4 80C4 121.974 38.0264 156 80 156ZM80 160C124.183 160 160 124.183 160 80C160 35.8172 124.183 0 80 0C35.8172 0 0 35.8172 0 80C0 124.183 35.8172 160 80 160Z" fill="black" fill-opacity="0.15"/>
</g>
<defs>
<clipPath id="clip0_1_15728">
<rect width="160" height="160" rx="80" fill="white"/>
</clipPath>
</defs>
</svg>
