<svg width="160" height="160" viewBox="0 0 160 160" fill="none" xmlns="http://www.w3.org/2000/svg">
<g clip-path="url(#clip0_1_15696)">
<g clip-path="url(#clip1_1_15696)">
<path d="M-26 0H185.429V160H-26V0Z" fill="#C8102E"/>
<path d="M-26 68.5714H42.5714V0H65.4286V68.5714H185.429V91.4286H65.4286V160H42.5714V91.4286H-26V68.5714Z" fill="white"/>
</g>
<path fill-rule="evenodd" clip-rule="evenodd" d="M80 156C121.974 156 156 121.974 156 80C156 38.0264 121.974 4 80 4C38.0264 4 4 38.0264 4 80C4 121.974 38.0264 156 80 156ZM80 160C124.183 160 160 124.183 160 80C160 35.8172 124.183 0 80 0C35.8172 0 0 35.8172 0 80C0 124.183 35.8172 160 80 160Z" fill="black" fill-opacity="0.15"/>
</g>
<defs>
<clipPath id="clip0_1_15696">
<rect width="160" height="160" rx="80" fill="white"/>
</clipPath>
<clipPath id="clip1_1_15696">
<rect width="211.429" height="160" fill="white" transform="translate(-26)"/>
</clipPath>
</defs>
</svg>
