<svg width="160" height="160" viewBox="0 0 160 160" fill="none" xmlns="http://www.w3.org/2000/svg">
<g clip-path="url(#clip0_1_15721)">
<g clip-path="url(#clip1_1_15721)">
<path d="M213.667 0H-53V160H213.667V0Z" fill="white"/>
<path d="M96.3334 0H64.3334V160H96.3334V0Z" fill="#CE1124"/>
<path d="M213.667 64H-53V96H213.667V64Z" fill="#CE1124"/>
</g>
<path fill-rule="evenodd" clip-rule="evenodd" d="M80 156C121.974 156 156 121.974 156 80C156 38.0264 121.974 4 80 4C38.0264 4 4 38.0264 4 80C4 121.974 38.0264 156 80 156ZM80 160C124.183 160 160 124.183 160 80C160 35.8172 124.183 0 80 0C35.8172 0 0 35.8172 0 80C0 124.183 35.8172 160 80 160Z" fill="black" fill-opacity="0.15"/>
</g>
<defs>
<clipPath id="clip0_1_15721">
<rect width="160" height="160" rx="80" fill="white"/>
</clipPath>
<clipPath id="clip1_1_15721">
<rect width="266.667" height="160" fill="white" transform="translate(-53)"/>
</clipPath>
</defs>
</svg>
