<svg width="160" height="160" viewBox="0 0 160 160" fill="none" xmlns="http://www.w3.org/2000/svg">
<path d="M85.8486 46.4405L83.2633 39.29L76.9916 42.3778L77.7899 47.5967L85.8486 46.4405Z" fill="#255DBD"/>
<path d="M79.9954 0C52.8738 0 28.9086 13.4958 14.4406 34.1376L14.4291 34.1536C14.0965 34.6285 13.7684 35.108 13.445 35.592L13.4312 35.6127C12.1305 37.5603 10.9124 39.5676 9.7815 41.6299L9.77232 41.646C9.49705 42.1484 9.22865 42.6553 8.96255 43.1646C8.94879 43.1899 8.93732 43.2151 8.92355 43.238C8.66433 43.7404 8.4097 44.2451 8.15966 44.7521C8.1459 44.7796 8.13443 44.8049 8.12066 44.8324C7.86833 45.3463 7.62287 45.8624 7.382 46.3809C7.37742 46.39 7.37283 46.4015 7.36824 46.4107C6.63417 47.9982 5.94827 49.6132 5.31743 51.2534C5.30367 51.2878 5.29219 51.3222 5.27843 51.3543C5.07886 51.8728 4.88616 52.3912 4.69806 52.9143C4.6797 52.9648 4.66135 53.0152 4.643 53.0657C4.45948 53.5819 4.27826 54.1003 4.10392 54.6233C4.08557 54.6738 4.06951 54.7266 4.05345 54.777C3.87911 55.3047 3.70706 55.8346 3.54419 56.3668C3.53272 56.4012 3.52354 56.4333 3.51437 56.4678C3.17486 57.5758 2.856 58.693 2.56466 59.8216C2.55778 59.8469 2.5509 59.8744 2.54402 59.8996C2.40408 60.4387 2.27103 60.9801 2.14257 61.5238C2.12881 61.5858 2.11275 61.6477 2.09898 61.7096C1.97511 62.2373 1.85812 62.7649 1.74571 63.2948C1.72966 63.3705 1.7136 63.4462 1.69754 63.5219C1.58743 64.0495 1.48191 64.5772 1.38097 65.1094C1.36721 65.1828 1.35344 65.2585 1.33968 65.3319C1.23875 65.871 1.14469 66.4124 1.05523 66.9561C1.04605 67.0089 1.03917 67.0639 1.02999 67.1167C0.938235 67.6856 0.851064 68.2545 0.770775 68.828C0.690486 69.4015 0.617079 69.9773 0.550553 70.5554C0.543671 70.6059 0.539084 70.6564 0.532202 70.7068C0.46797 71.2551 0.412915 71.8057 0.360154 72.3586C0.353272 72.4411 0.344096 72.5214 0.337214 72.604C0.286747 73.1431 0.243161 73.6822 0.206458 74.2236C0.199576 74.3154 0.192694 74.4071 0.188106 74.4989C0.151402 75.038 0.119287 75.5817 0.0940529 76.1231C0.0894649 76.2102 0.087171 76.2951 0.082583 76.3823C0.0573493 76.9375 0.0389975 77.4926 0.0252337 78.0501C0.0252337 78.112 0.0252337 78.1716 0.0206458 78.2336C0.00688192 78.8209 0 79.4081 0 79.9954V80.0092C0 80.3923 0.00458795 80.7754 0.00917589 81.1585C0.628549 124.807 36.2035 160 80 160C123.797 160 160 124.183 160 79.9977C160 35.8122 124.177 0 79.9954 0ZM128.453 128.459C122.156 134.756 114.827 139.7 106.667 143.15C98.2256 146.72 89.2539 148.532 79.9954 148.532C70.7369 148.532 61.7652 146.722 53.3234 143.15C48.4946 141.106 43.9571 138.537 39.75 135.477L54.4107 120.639L60.4026 102.135L47.0173 87.9695L29.9524 86.1297L23.1003 100.362L34.7652 114.546L32.5974 129.496C32.2418 129.154 31.8862 128.81 31.5352 128.459C25.2383 122.162 20.2948 114.833 16.8446 106.673C14.0621 100.096 12.3553 93.193 11.7337 86.0861L20.4898 89.7634L24.1257 83.2117L15.5485 78.9723L16.5166 73.1431L29.9111 77.511L54.4107 50.2876L53.968 41.7079L40.6607 33.9311L32.2097 40.8454L27.6309 35.7939C28.8696 34.3303 30.1703 32.9103 31.5398 31.5407C37.8368 25.2436 45.166 20.2999 53.3257 16.8497C54.1859 16.485 55.0553 16.1454 55.9271 15.8174L66.9542 29.8225L84.1246 11.5941C91.9218 12.0529 99.4873 13.8124 106.667 16.8497C108.638 17.6824 110.558 18.6047 112.428 19.6094L99.8291 23.5368L89.114 37.0992L95.1402 44.1304L87.9349 51.2144L78.564 51.999L79.8211 60.8379L92.9908 60.3447L100.389 55.4515L103.72 63.304L118.624 64.6231L114.297 70.6082L100.802 71.2345L94.0621 65.231L80.8327 65.9146L67.9498 87.1803L76.0681 102.493L90.4995 107.996L98.1086 133.591L114.061 125.209L118.768 102.367L128.797 85.8131L120.083 80.9612L123.29 77.277L148.376 84.4137C147.89 92.1102 146.14 99.5773 143.139 106.67C139.689 114.83 134.75 122.162 128.453 128.459Z" fill="#255DBD"/>
</svg>
