<svg width="160" height="160" viewBox="0 0 160 160" fill="none" xmlns="http://www.w3.org/2000/svg">
<g clip-path="url(#clip0_1_15722)">
<g clip-path="url(#clip1_1_15722)">
<path d="M220 0H-60V160H220V0Z" fill="#DA0000"/>
<path d="M220 0H-60V106.667H220V0Z" fill="white"/>
<path d="M220 0H-60V53.3333H220V0Z" fill="#239F40"/>
<path fill-rule="evenodd" clip-rule="evenodd" d="M9.68876 45.8667H-6.48901V44.6222H9.68876V45.8667ZM10.9332 48.3556H7.19987V49.6H9.68876V50.8444H5.95543V47.1111H10.9332V44.6222H12.1777V49.6H13.4221V44.6222H14.6665V49.6H15.911V44.6222H17.1554V50.8444H10.9332V48.3556ZM-6.48901 47.1111H-0.266791V49.6H3.46654V48.3556H0.977653V47.1111H4.71099V50.8444H-1.51124V48.3556H-5.24457V50.8444H-6.48901V47.1111ZM-2.75568 50.8444H-4.00012V49.6H-2.75568V50.8444Z" fill="white"/>
<path fill-rule="evenodd" clip-rule="evenodd" d="M4.71099 54.5778H-6.48901V52.0889H4.71099V54.5778ZM17.1554 54.5778H5.95543V52.0889H17.1554V54.5778Z" fill="white"/>
<path fill-rule="evenodd" clip-rule="evenodd" d="M4.71099 107.911H-6.48901V105.422H4.71099V107.911ZM17.1554 107.911H5.95543V105.422H17.1554V107.911Z" fill="white"/>
<path fill-rule="evenodd" clip-rule="evenodd" d="M9.68876 110.4H-6.48901V109.156H9.68876V110.4ZM10.9332 112.889H7.19987V114.133H9.68876V115.378H5.95543V111.644H10.9332V109.156H12.1777V114.133H13.4221V109.156H14.6665V114.133H15.911V109.156H17.1554V115.378H10.9332V112.889ZM-6.48901 111.644H-0.266791V114.133H3.46654V112.889H0.977653V111.644H4.71099V115.378H-1.51124V112.889H-5.24457V115.378H-6.48901V111.644ZM-2.75568 115.378H-4.00012V114.133H-2.75568V115.378Z" fill="white"/>
<path fill-rule="evenodd" clip-rule="evenodd" d="M34.5777 45.8667H18.3999V44.6222H34.5777V45.8667ZM35.8221 48.3556H32.0888V49.6H34.5777V50.8444H30.8443V47.1111H35.8221V44.6222H37.0666V49.6H38.311V44.6222H39.5555V49.6H40.7999V44.6222H42.0443V50.8444H35.8221V48.3556ZM18.3999 47.1111H24.6221V49.6H28.3555V48.3556H25.8666V47.1111H29.5999V50.8444H23.3777V48.3556H19.6443V50.8444H18.3999V47.1111ZM22.1332 50.8444H20.8888V49.6H22.1332V50.8444Z" fill="white"/>
<path fill-rule="evenodd" clip-rule="evenodd" d="M29.5999 54.5778H18.3999V52.0889H29.5999V54.5778ZM42.0443 54.5778H30.8443V52.0889H42.0443V54.5778Z" fill="white"/>
<path fill-rule="evenodd" clip-rule="evenodd" d="M29.5999 107.911H18.3999V105.422H29.5999V107.911ZM42.0443 107.911H30.8443V105.422H42.0443V107.911Z" fill="white"/>
<path fill-rule="evenodd" clip-rule="evenodd" d="M34.5777 110.4H18.3999V109.156H34.5777V110.4ZM35.8221 112.889H32.0888V114.133H34.5777V115.378H30.8443V111.644H35.8221V109.156H37.0666V114.133H38.311V109.156H39.5555V114.133H40.7999V109.156H42.0443V115.378H35.8221V112.889ZM18.3999 111.644H24.6221V114.133H28.3555V112.889H25.8666V111.644H29.5999V115.378H23.3777V112.889H19.6443V115.378H18.3999V111.644ZM22.1332 115.378H20.8888V114.133H22.1332V115.378Z" fill="white"/>
<path fill-rule="evenodd" clip-rule="evenodd" d="M59.4666 45.8667H43.2888V44.6222H59.4666V45.8667ZM60.711 48.3556H56.9777V49.6H59.4666V50.8444H55.7333V47.1111H60.711V44.6222H61.9555V49.6H63.1999V44.6222H64.4444V49.6H65.6888V44.6222H66.9333V50.8444H60.711V48.3556ZM43.2888 47.1111H49.511V49.6H53.2444V48.3556H50.7555V47.1111H54.4888V50.8444H48.2666V48.3556H44.5333V50.8444H43.2888V47.1111ZM47.0222 50.8444H45.7777V49.6H47.0222V50.8444Z" fill="white"/>
<path fill-rule="evenodd" clip-rule="evenodd" d="M54.4888 54.5778H43.2888V52.0889H54.4888V54.5778ZM66.9333 54.5778H55.7333V52.0889H66.9333V54.5778Z" fill="white"/>
<path fill-rule="evenodd" clip-rule="evenodd" d="M54.4888 107.911H43.2888V105.422H54.4888V107.911ZM66.9333 107.911H55.7333V105.422H66.9333V107.911Z" fill="white"/>
<path fill-rule="evenodd" clip-rule="evenodd" d="M59.4666 110.4H43.2888V109.156H59.4666V110.4ZM60.711 112.889H56.9777V114.133H59.4666V115.378H55.7333V111.644H60.711V109.156H61.9555V114.133H63.1999V109.156H64.4444V114.133H65.6888V109.156H66.9333V115.378H60.711V112.889ZM43.2888 111.644H49.511V114.133H53.2444V112.889H50.7555V111.644H54.4888V115.378H48.2666V112.889H44.5333V115.378H43.2888V111.644ZM47.0222 115.378H45.7777V114.133H47.0222V115.378Z" fill="white"/>
<path fill-rule="evenodd" clip-rule="evenodd" d="M84.3555 45.8667H68.1777V44.6222H84.3555V45.8667ZM85.6 48.3556H81.8666V49.6H84.3555V50.8444H80.6222V47.1111H85.6V44.6222H86.8444V49.6H88.0888V44.6222H89.3333V49.6H90.5777V44.6222H91.8222V50.8444H85.6V48.3556ZM68.1777 47.1111H74.4V49.6H78.1333V48.3556H75.6444V47.1111H79.3777V50.8444H73.1555V48.3556H69.4222V50.8444H68.1777V47.1111ZM71.9111 50.8444H70.6666V49.6H71.9111V50.8444Z" fill="white"/>
<path fill-rule="evenodd" clip-rule="evenodd" d="M79.3777 54.5778H68.1777V52.0889H79.3777V54.5778ZM91.8222 54.5778H80.6222V52.0889H91.8222V54.5778Z" fill="white"/>
<path fill-rule="evenodd" clip-rule="evenodd" d="M79.3777 107.911H68.1777V105.422H79.3777V107.911ZM91.8222 107.911H80.6222V105.422H91.8222V107.911Z" fill="white"/>
<path fill-rule="evenodd" clip-rule="evenodd" d="M84.3555 110.4H68.1777V109.156H84.3555V110.4ZM85.6 112.889H81.8666V114.133H84.3555V115.378H80.6222V111.644H85.6V109.156H86.8444V114.133H88.0888V109.156H89.3333V114.133H90.5777V109.156H91.8222V115.378H85.6V112.889ZM68.1777 111.644H74.4V114.133H78.1333V112.889H75.6444V111.644H79.3777V115.378H73.1555V112.889H69.4222V115.378H68.1777V111.644ZM71.9111 115.378H70.6666V114.133H71.9111V115.378Z" fill="white"/>
<path fill-rule="evenodd" clip-rule="evenodd" d="M109.244 45.8667H93.0667V44.6222H109.244V45.8667ZM110.489 48.3556H106.756V49.6H109.244V50.8444H105.511V47.1111H110.489V44.6222H111.733V49.6H112.978V44.6222H114.222V49.6H115.467V44.6222H116.711V50.8444H110.489V48.3556ZM93.0667 47.1111H99.2889V49.6H103.022V48.3556H100.533V47.1111H104.267V50.8444H98.0444V48.3556H94.3111V50.8444H93.0667V47.1111ZM96.8 50.8444H95.5555V49.6H96.8V50.8444Z" fill="white"/>
<path fill-rule="evenodd" clip-rule="evenodd" d="M104.267 54.5778H93.0667V52.0889H104.267V54.5778ZM116.711 54.5778H105.511V52.0889H116.711V54.5778Z" fill="white"/>
<path fill-rule="evenodd" clip-rule="evenodd" d="M104.267 107.911H93.0667V105.422H104.267V107.911ZM116.711 107.911H105.511V105.422H116.711V107.911Z" fill="white"/>
<path fill-rule="evenodd" clip-rule="evenodd" d="M109.244 110.4H93.0667V109.156H109.244V110.4ZM110.489 112.889H106.756V114.133H109.244V115.378H105.511V111.644H110.489V109.156H111.733V114.133H112.978V109.156H114.222V114.133H115.467V109.156H116.711V115.378H110.489V112.889ZM93.0667 111.644H99.2889V114.133H103.022V112.889H100.533V111.644H104.267V115.378H98.0444V112.889H94.3111V115.378H93.0667V111.644ZM96.8 115.378H95.5555V114.133H96.8V115.378Z" fill="white"/>
<path fill-rule="evenodd" clip-rule="evenodd" d="M134.133 45.8667H117.956V44.6222H134.133V45.8667ZM135.378 48.3556H131.644V49.6H134.133V50.8444H130.4V47.1111H135.378V44.6222H136.622V49.6H137.867V44.6222H139.111V49.6H140.356V44.6222H141.6V50.8444H135.378V48.3556ZM117.956 47.1111H124.178V49.6H127.911V48.3556H125.422V47.1111H129.156V50.8444H122.933V48.3556H119.2V50.8444H117.956V47.1111ZM121.689 50.8444H120.444V49.6H121.689V50.8444Z" fill="white"/>
<path fill-rule="evenodd" clip-rule="evenodd" d="M129.156 54.5778H117.956V52.0889H129.156V54.5778ZM141.6 54.5778H130.4V52.0889H141.6V54.5778Z" fill="white"/>
<path fill-rule="evenodd" clip-rule="evenodd" d="M129.156 107.911H117.956V105.422H129.156V107.911ZM141.6 107.911H130.4V105.422H141.6V107.911Z" fill="white"/>
<path fill-rule="evenodd" clip-rule="evenodd" d="M134.133 110.4H117.956V109.156H134.133V110.4ZM135.378 112.889H131.644V114.133H134.133V115.378H130.4V111.644H135.378V109.156H136.622V114.133H137.867V109.156H139.111V114.133H140.356V109.156H141.6V115.378H135.378V112.889ZM117.956 111.644H124.178V114.133H127.911V112.889H125.422V111.644H129.156V115.378H122.933V112.889H119.2V115.378H117.956V111.644ZM121.689 115.378H120.444V114.133H121.689V115.378Z" fill="white"/>
<path fill-rule="evenodd" clip-rule="evenodd" d="M159.022 45.8667H142.844V44.6222H159.022V45.8667ZM160.267 48.3556H156.533V49.6H159.022V50.8444H155.289V47.1111H160.267V44.6222H161.511V49.6H162.756V44.6222H164V49.6H165.244V44.6222H166.489V50.8444H160.267V48.3556ZM142.844 47.1111H149.067V49.6H152.8V48.3556H150.311V47.1111H154.044V50.8444H147.822V48.3556H144.089V50.8444H142.844V47.1111ZM146.578 50.8444H145.333V49.6H146.578V50.8444Z" fill="white"/>
<path fill-rule="evenodd" clip-rule="evenodd" d="M154.044 54.5778H142.844V52.0889H154.044V54.5778ZM166.489 54.5778H155.289V52.0889H166.489V54.5778Z" fill="white"/>
<path fill-rule="evenodd" clip-rule="evenodd" d="M154.044 107.911H142.844V105.422H154.044V107.911ZM166.489 107.911H155.289V105.422H166.489V107.911Z" fill="white"/>
<path fill-rule="evenodd" clip-rule="evenodd" d="M159.022 110.4H142.844V109.156H159.022V110.4ZM160.267 112.889H156.533V114.133H159.022V115.378H155.289V111.644H160.267V109.156H161.511V114.133H162.756V109.156H164V114.133H165.244V109.156H166.489V115.378H160.267V112.889ZM142.844 111.644H149.067V114.133H152.8V112.889H150.311V111.644H154.044V115.378H147.822V112.889H144.089V115.378H142.844V111.644ZM146.578 115.378H145.333V114.133H146.578V115.378Z" fill="white"/>
<path d="M69.0371 96.7276C73.0453 98.0299 77.3807 97.9042 81.3066 96.3718C85.2326 94.8393 88.5067 91.9947 90.5727 88.3214C92.6387 84.6481 93.3689 80.3728 92.6394 76.222C91.9099 72.0712 89.7656 68.3011 86.571 65.5523C88.6497 68.6283 89.8312 72.2221 89.9833 75.9315C90.1354 79.6408 89.2521 83.3193 87.4321 86.5551C85.6122 89.7909 82.9276 92.4563 79.6788 94.2529C76.43 96.0495 72.7453 96.9064 69.0371 96.7276Z" fill="#DA0000"/>
<path d="M92.367 93.2282C95.0013 91.7057 97.121 89.4313 98.4545 86.6965C99.7881 83.9617 100.275 80.8911 99.8522 77.8779C99.4296 74.8648 98.117 72.0465 96.0826 69.7841C94.0481 67.5216 91.3846 65.9181 88.4331 65.179C90.5362 66.7601 92.3066 68.7407 93.6429 71.0072C94.9793 73.2737 95.8552 75.7816 96.2207 78.3873C96.5861 80.9929 96.4338 83.645 95.7726 86.1917C95.1113 88.7384 93.954 91.1295 92.367 93.2282Z" fill="#DA0000"/>
<path d="M80 100L79 80L80 64.2545C80.6075 65.1032 81.4195 65.7849 82.3607 66.2362V77.9919L81.5562 97.8581L80 100Z" fill="#DA0000"/>
<path d="M79.6001 63L80.0001 63.3757C80.407 63.9541 81.0122 64.3631 81.7007 64.5249C82.3892 64.6866 83.1131 64.5899 83.7351 64.2532C84.357 63.9164 84.8336 63.363 85.0745 62.698C85.3153 62.033 85.3036 61.3028 85.0416 60.6458C84.9383 61.1929 84.6702 61.6953 84.2731 62.0856C83.876 62.4758 83.3691 62.7352 82.8203 62.829C82.2715 62.9228 81.7072 62.8464 81.2031 62.6102C80.6989 62.3739 80.2792 61.9891 80.0001 61.5073" fill="#DA0000"/>
<path d="M90.9631 96.7276C86.955 98.0299 82.6195 97.9042 78.6936 96.3718C74.7677 94.8393 71.4935 91.9947 69.4276 88.3214C67.3616 84.6481 66.6313 80.3728 67.3608 76.222C68.0903 72.0712 70.2346 68.3011 73.4293 65.5523C71.3506 68.6283 70.169 72.2221 70.0169 75.9315C69.8648 79.6408 70.7482 83.3193 72.5681 86.5551C74.388 89.7909 77.0726 92.4563 80.3214 94.2529C83.5702 96.0495 87.255 96.9064 90.9631 96.7276Z" fill="#DA0000"/>
<path d="M67.6332 93.2282C64.999 91.7057 62.8793 89.4313 61.5457 86.6965C60.2122 83.9617 59.7255 80.8911 60.1481 77.8779C60.5707 74.8648 61.8833 72.0465 63.9177 69.7841C65.9521 67.5216 68.6157 65.9181 71.5671 65.179C69.4641 66.7601 67.6936 68.7407 66.3573 71.0072C65.021 73.2737 64.145 75.7816 63.7796 78.3873C63.4141 80.9929 63.5664 83.645 64.2277 86.1917C64.889 88.7384 66.0463 91.1295 67.6332 93.2282Z" fill="#DA0000"/>
<path d="M80.0002 100L81.0002 80L80.0002 64.2545C79.3927 65.1032 78.5807 65.7849 77.6396 66.2362V77.9919L78.4441 97.8581L80.0002 100Z" fill="#DA0000"/>
<path d="M80.4001 63L80.0001 63.3757C79.5932 63.9541 78.9881 64.3631 78.2996 64.5249C77.6111 64.6866 76.8871 64.5899 76.2652 64.2532C75.6432 63.9164 75.1666 63.363 74.9258 62.698C74.6849 62.033 74.6966 61.3028 74.9586 60.6458C75.0619 61.1929 75.3301 61.6953 75.7271 62.0856C76.1242 62.4758 76.6312 62.7352 77.1799 62.829C77.7287 62.9228 78.2931 62.8464 78.7972 62.6102C79.3013 62.3739 79.7211 61.9891 80.0001 61.5073" fill="#DA0000"/>
</g>
<path fill-rule="evenodd" clip-rule="evenodd" d="M80 156C121.974 156 156 121.974 156 80C156 38.0264 121.974 4 80 4C38.0264 4 4 38.0264 4 80C4 121.974 38.0264 156 80 156ZM80 160C124.183 160 160 124.183 160 80C160 35.8172 124.183 0 80 0C35.8172 0 0 35.8172 0 80C0 124.183 35.8172 160 80 160Z" fill="black" fill-opacity="0.15"/>
</g>
<defs>
<clipPath id="clip0_1_15722">
<rect width="160" height="160" rx="80" fill="white"/>
</clipPath>
<clipPath id="clip1_1_15722">
<rect width="280" height="160" fill="white" transform="translate(-60)"/>
</clipPath>
</defs>
</svg>
