<svg width="160" height="160" viewBox="0 0 160 160" fill="none" xmlns="http://www.w3.org/2000/svg">
<g clip-path="url(#clip0_1_15723)">
<g clip-path="url(#clip1_1_15723)">
<path d="M200 0H-40V160H200V0Z" fill="white"/>
<path d="M80 128C106.51 128 128 106.51 128 80C128 53.4903 106.51 32 80 32C53.4903 32 32 53.4903 32 80C32 106.51 53.4903 128 80 128Z" fill="#BC002D"/>
</g>
<path fill-rule="evenodd" clip-rule="evenodd" d="M80 156C121.974 156 156 121.974 156 80C156 38.0264 121.974 4 80 4C38.0264 4 4 38.0264 4 80C4 121.974 38.0264 156 80 156ZM80 160C124.183 160 160 124.183 160 80C160 35.8172 124.183 0 80 0C35.8172 0 0 35.8172 0 80C0 124.183 35.8172 160 80 160Z" fill="black" fill-opacity="0.15"/>
</g>
<defs>
<clipPath id="clip0_1_15723">
<rect width="160" height="160" rx="80" fill="white"/>
</clipPath>
<clipPath id="clip1_1_15723">
<rect width="240" height="160" fill="white" transform="translate(-40)"/>
</clipPath>
</defs>
</svg>
