<svg width="160" height="160" viewBox="0 0 160 160" fill="none" xmlns="http://www.w3.org/2000/svg">
<g clip-path="url(#clip0_1_15714)">
<g clip-path="url(#clip1_1_15714)">
<path d="M-40 0H200V160H-40V0Z" fill="#C1272D"/>
<path fill-rule="evenodd" clip-rule="evenodd" d="M80 40.0017L88.9801 67.64H118.041L94.5301 84.7216L103.51 112.359L80 95.2783L56.4902 112.359L65.47 84.7216L41.959 67.64H71.02L80 40.0017ZM69.7845 71.4427H53.6625L66.7055 80.9189L69.7845 71.4427ZM69.9403 83.2691L73.7828 71.4427H86.2173L90.0598 83.2691L80 90.5779L69.9403 83.2691ZM68.7047 87.0718L63.7232 102.404L76.7653 92.9281L68.7047 87.0718ZM83.2348 92.9281L96.2769 102.404L91.2954 87.0718L83.2348 92.9281ZM93.2946 80.9189L106.338 71.4427H90.2156L93.2946 80.9189ZM84.9817 67.64H75.0184L80 52.3076L84.9817 67.64Z" fill="#006233"/>
</g>
<path fill-rule="evenodd" clip-rule="evenodd" d="M80 156C121.974 156 156 121.974 156 80C156 38.0264 121.974 4 80 4C38.0264 4 4 38.0264 4 80C4 121.974 38.0264 156 80 156ZM80 160C124.183 160 160 124.183 160 80C160 35.8172 124.183 0 80 0C35.8172 0 0 35.8172 0 80C0 124.183 35.8172 160 80 160Z" fill="black" fill-opacity="0.15"/>
</g>
<defs>
<clipPath id="clip0_1_15714">
<rect width="160" height="160" rx="80" fill="white"/>
</clipPath>
<clipPath id="clip1_1_15714">
<rect width="240" height="160" fill="white" transform="translate(-40)"/>
</clipPath>
</defs>
</svg>
