<svg width="160" height="160" viewBox="0 0 160 160" fill="none" xmlns="http://www.w3.org/2000/svg">
<g clip-path="url(#clip0_1_15725)">
<g clip-path="url(#clip1_1_15725)">
<path d="M-40 0H200V160H-40V0Z" fill="#006C35"/>
<path d="M110.486 110C110.092 110 109.028 111.088 109.028 111.481C109.028 111.782 109.56 112.384 110 112.731V113.634H35C37.662 116.296 41.6204 116.366 49.5833 116.366H110V117.269C109.537 117.639 109.028 118.218 109.028 118.519C109.028 118.912 110.092 120 110.486 120C110.81 120 111.389 119.422 111.759 118.935H115.093C115.197 119.105 115.375 119.25 115.604 119.353C115.833 119.455 116.102 119.509 116.377 119.509C116.653 119.509 116.922 119.455 117.151 119.353C117.379 119.25 117.557 119.105 117.662 118.935H121.62C122.106 119.491 122.754 119.514 123.148 119.514C124.282 119.514 125 119.028 125 116.366C125 113.866 123.889 113.634 121.157 113.634H110.972V112.731C111.412 112.384 111.944 111.782 111.944 111.481C111.944 111.088 110.879 110 110.486 110ZM110.972 116.366H121.157C120.972 117.06 120.972 117.593 121.157 118.102H117.662C117.557 117.932 117.379 117.787 117.151 117.685C116.922 117.583 116.653 117.528 116.377 117.528C116.102 117.528 115.833 117.583 115.604 117.685C115.375 117.787 115.197 117.932 115.093 118.102H111.759C111.574 117.847 111.227 117.454 110.972 117.269V116.366Z" fill="white"/>
<path d="M119.532 78.1285C122.347 77.0506 125.151 75.9572 127.966 74.8815C127.818 75.2793 127.623 75.7342 127.123 75.935C124.528 76.9253 121.938 77.9238 119.344 78.9136C119.173 78.9818 119.003 79.0561 118.816 79.0922C118.987 78.8198 119.149 78.5441 119.313 78.27C119.349 78.1935 119.447 78.163 119.532 78.1286L119.532 78.1285ZM110.768 74.381C111.374 74.7482 111.925 75.1678 112.312 75.6198C113.027 76.4914 113.211 77.6214 112.767 78.6017C112.729 78.6822 112.647 78.7421 112.578 78.8065C112.716 78.2639 112.756 77.6892 112.541 77.1561C112.246 76.3816 111.578 75.7314 110.686 75.3508C110.701 75.0121 110.746 74.6704 110.768 74.3811L110.768 74.381ZM87.5498 73.9095C87.9271 73.657 88.4508 73.6326 88.9227 73.6332C89.3967 73.6593 89.8981 73.6759 90.316 73.8762C90.5137 74.0581 90.3257 74.2734 90.1232 74.3877C89.3014 74.857 88.3962 75.2642 87.7293 75.8806C87.5484 76.0398 87.6424 76.2878 87.871 76.381C88.2166 76.518 88.617 76.5246 88.997 76.5169C89.8994 76.4781 90.766 76.2079 91.5212 75.8229C91.7315 75.7169 91.9201 75.5849 92.1375 75.4867C91.6719 75.9333 91.1488 76.3432 90.5718 76.6994C90.0852 76.9884 89.5369 77.2392 88.9282 77.3146C88.4494 77.3468 87.934 77.3285 87.5203 77.1144C87.0596 76.8985 86.8437 76.4154 87.014 76.0165C87.1171 75.7924 87.3078 75.6026 87.5083 75.4279C88.0258 74.9941 88.6582 74.6623 89.2893 74.3422C88.8616 74.3261 88.4283 74.3078 88.0034 74.3488C87.7257 74.371 87.5392 74.5358 87.3422 74.6695C87.2826 74.4094 87.2812 74.1009 87.5498 73.9095L87.5498 73.9095ZM70.6148 73.2565C70.9899 73.1112 71.5074 73.1322 71.8032 73.3852C72.0508 73.6171 72.0774 73.9361 72.0592 74.2262C71.8607 74.4354 71.6322 74.6279 71.466 74.8559C71.1182 74.9069 70.7529 74.862 70.4128 74.943C70.2417 75.0217 70.0181 75.0694 69.936 75.2281C69.8287 75.4328 69.8785 75.6603 69.9241 75.8722C70.1008 76.6122 70.4275 77.3395 70.4107 78.1018C70.3918 78.3692 70.3694 78.6466 70.2095 78.8884C70.1723 78.4646 69.9837 78.064 69.847 77.6563C69.5889 76.9134 69.3842 76.1512 69.354 75.379C69.3204 75.0816 69.5363 74.8259 69.7544 74.6018C70.0762 74.2456 70.6533 74.1413 71.1658 74.0642C71.0326 73.9671 70.8818 73.8551 70.6848 73.8767C70.4093 73.9083 70.2228 74.0908 70.0713 74.2589C70.044 73.8878 70.1723 73.4496 70.6147 73.2565L70.6148 73.2565ZM95.1739 73.1128C95.1984 73.0929 95.2307 73.0851 95.2706 73.0901C95.1248 73.2221 95.0448 73.3885 94.9326 73.5384C94.6136 74.0155 94.2448 74.522 94.3296 75.0834C94.3387 75.3469 94.526 75.6875 94.9151 75.6853C95.1051 75.6104 95.1542 75.4184 95.2496 75.2803C95.2376 75.6914 95.1612 76.1907 94.6732 76.4259C94.2679 76.3743 93.9637 76.0897 93.9476 75.7685C93.8648 74.7971 94.3788 73.8391 95.1739 73.1128V73.1128ZM22.4806 67.6401C22.7127 67.3127 22.9307 66.956 23.3367 66.7397C22.8438 67.5269 22.3312 68.3246 22.116 69.1939C22.0444 69.5262 22.0087 69.9101 22.28 70.1958C22.4911 70.375 22.8297 70.4077 23.1186 70.3522C23.5569 70.2757 23.7609 69.9128 23.9418 69.6249C24.0807 69.8396 23.9369 70.0715 23.8731 70.2857C23.6915 70.7389 23.4748 71.2298 22.9735 71.5245C22.5886 71.7574 22.0368 71.6642 21.6665 71.459C21.1785 71.1572 21.1673 70.6096 21.2529 70.1664C21.4456 69.2694 21.9442 68.4366 22.4806 67.64L22.4806 67.6401ZM58.2101 64.1284C58.3531 63.9131 58.6336 63.658 58.9778 63.7656C59.3915 63.8643 59.8838 64.1239 59.8178 64.5134C59.7071 64.646 59.5647 64.7597 59.4392 64.8834C59.3053 64.6826 59.1552 64.4257 58.8411 64.383C58.4324 64.489 58.1876 64.8135 58.0586 65.1225C57.7873 65.7977 57.727 66.5105 57.6513 67.2123C57.5524 67.2539 57.4535 67.2949 57.3526 67.3326C57.3554 66.6869 57.178 66.0012 56.6304 65.5008C56.5062 65.3349 56.2307 65.4181 56.0442 65.3382C55.6964 65.2395 55.5702 64.9394 55.4861 64.6825C55.444 64.5089 55.369 64.3003 55.5155 64.1455C55.8233 64.0756 56.0645 64.2892 56.284 64.424C56.8491 64.849 57.2397 65.3959 57.5594 65.953C57.694 65.331 57.8364 64.6931 58.2101 64.1283L58.2101 64.1284ZM117 62.4241C117.428 62.3076 117.878 62.4607 118.228 62.656C118.812 62.9977 119.268 63.462 119.62 63.9608C119.808 64.2498 120.022 64.5666 119.947 64.9028C119.902 65.1291 119.879 65.3721 119.708 65.5652C119.519 65.7505 119.163 65.7316 118.925 65.6212C118.653 65.4992 118.394 65.3599 118.109 65.2568C117.724 66.0845 116.913 66.7363 116.033 67.2534C115.438 67.614 114.785 67.9102 114.124 68.187C113.716 68.3612 113.265 68.4544 112.827 68.5676C112.39 68.6658 111.946 68.7951 111.484 68.759C111.775 68.7457 112.005 68.5964 112.251 68.4899C113.53 67.9013 114.782 67.2683 115.92 66.5178C116.525 66.1039 117.143 65.6729 117.55 65.1214C117.287 65.0765 117.023 65.0377 116.758 65.0094C116.544 64.5173 116.542 63.9154 117.003 63.5082C116.773 63.3684 116.746 63.1148 116.708 62.904C116.675 62.7204 116.753 62.4874 117 62.4242M118.147 63.643C118.234 64.0075 118.26 64.3792 118.267 64.7497C118.628 64.7908 118.986 64.904 119.353 64.8712C119.541 64.8496 119.534 64.6549 119.43 64.5622C119.088 64.19 118.614 63.9098 118.147 63.643M116.927 64.2377C117.111 64.5079 117.529 64.5767 117.87 64.6632C117.941 64.489 118.031 64.3065 117.997 64.1218C117.873 63.9309 117.706 63.6813 117.396 63.6824C117.128 63.7911 117.022 64.0286 116.927 64.2377ZM93.271 61.9105C93.4834 61.693 93.8432 61.5871 94.1825 61.5788C94.4181 61.5771 94.5324 61.7774 94.5864 61.9299C94.6888 62.29 94.707 62.6816 94.4854 63.0173C94.6004 63.0833 94.7161 63.1504 94.8339 63.2159C94.803 63.4461 94.7813 63.678 94.7757 63.9099C94.5415 63.8106 94.3613 63.6525 94.1607 63.5193C93.5367 64.3709 92.6245 65.1093 91.488 65.5265C90.8871 65.7662 90.1992 65.871 89.5302 65.805C90.7972 65.4466 92.0278 64.9296 92.947 64.1362C93.2632 63.8644 93.5353 63.5637 93.7653 63.242C93.5872 63.0916 93.374 62.9629 93.2352 62.787C93.1245 62.5058 93.0432 62.1696 93.271 61.9105M93.6188 62.1879C93.7107 62.3937 93.8866 62.5635 94.0696 62.7232C94.1467 62.5451 94.2477 62.3515 94.1348 62.1685C93.9617 62.1419 93.7878 62.1569 93.6188 62.1879ZM22.5541 64.417C25.0966 63.1538 27.6495 61.9023 30.1968 60.6457C30.1238 61.0845 29.9339 61.5921 29.3996 61.8118C27.0415 62.9685 24.6779 64.1185 22.3234 65.2792C22.2624 65.3047 22.1986 65.3257 22.132 65.3418C22.2821 65.0362 22.3964 64.7194 22.5541 64.417L22.5541 64.417ZM75.7815 57.7442C75.9771 57.5201 76.1979 57.3054 76.4454 57.1146C76.2631 57.4419 76.3718 57.7992 76.4567 58.1337C76.5527 58.4999 76.6824 58.8593 76.8276 59.2155C76.9292 59.484 77.3184 59.5783 77.6297 59.631C77.8162 59.6782 78.0448 59.5684 77.9726 59.3997C77.8008 58.9647 77.5813 58.5426 77.3303 58.1331C77.4193 57.8585 77.5203 57.5867 77.6058 57.3115C77.7236 57.3115 77.8428 57.3127 77.9627 57.3138C78.0658 57.8225 78.3722 58.284 78.6541 58.7412C78.6548 59.2355 78.6176 59.7509 78.396 60.2196C78.2481 60.5519 77.7531 60.6551 77.3534 60.6285C76.8227 60.5475 76.4707 60.1852 76.1593 59.8668C76.0044 60.2845 75.5662 60.6085 75.0473 60.7394C74.6083 60.867 74.1021 60.6817 73.8665 60.3755C73.6085 60.036 73.5594 59.626 73.5714 59.2377C73.5945 58.6824 73.7306 58.0349 74.3602 57.7015C74.4044 57.7015 74.4927 57.702 74.5369 57.702C74.5089 57.712 74.4514 57.7314 74.4233 57.7414C74.0405 58.2956 74.0166 58.9918 74.3567 59.5627C74.4556 59.743 74.7059 59.8728 74.959 59.8306C75.2746 59.7702 75.5242 59.5926 75.7394 59.4096C75.7471 58.8542 75.7443 58.2983 75.7815 57.7441L75.7815 57.7442ZM25.6193 56.5842C26.19 56.4866 26.7096 56.769 27.1155 57.0525C27.6589 57.4724 28.1118 57.9728 28.3986 58.5315C28.4856 58.7001 28.5241 58.8843 28.4919 59.0657C28.4505 59.3065 28.4267 59.5706 28.2331 59.7708C28.006 59.9367 27.6476 59.9007 27.4065 59.7731C27.1666 59.6477 26.9163 59.5351 26.6555 59.4396C26.2642 60.259 25.4649 60.907 24.5934 61.4241C23.909 61.8335 23.163 62.1775 22.3917 62.4732C21.8392 62.6391 21.274 62.7817 20.7005 62.8948C20.4719 62.9442 20.2342 62.9392 20 62.9342C20.1374 62.9087 20.284 62.9004 20.4095 62.8443C21.6646 62.2835 22.8887 61.6749 24.0296 60.977C24.8001 60.486 25.5651 59.9662 26.1119 59.3066C25.8462 59.2589 25.579 59.2139 25.3077 59.1934C25.0938 58.7002 25.0875 58.1 25.5383 57.6861C25.321 57.5358 25.2894 57.2884 25.2502 57.0764C25.2089 56.8711 25.3414 56.6276 25.6191 56.5843M26.6848 57.812C26.7858 58.1798 26.7956 58.5576 26.8145 58.9321C27.1946 58.9659 27.5774 59.1085 27.9602 59.0341C28.1376 58.9554 28.0128 58.7751 27.9202 58.683C27.5704 58.3429 27.1273 58.0716 26.6848 57.812M25.7516 57.9701C25.6268 58.1166 25.4816 58.2852 25.5013 58.4699C25.7221 58.6896 26.0951 58.7811 26.4324 58.8294C26.4654 58.724 26.5046 58.6208 26.5306 58.5149C26.6231 58.2996 26.4128 58.1066 26.2445 57.9568C26.119 57.8364 25.8602 57.8325 25.7516 57.9701ZM68.088 56.1599C68.4604 56.4056 68.6868 56.759 68.9385 57.0813C69.5829 57.9784 70.1319 58.9159 70.6635 59.8573C71.8295 61.8783 72.5965 64.0359 73.0187 66.2299C73.1379 66.9101 73.2599 67.5941 73.2354 68.283C73.3062 69.6505 73.5116 71.0486 74.2331 72.3073C74.7639 73.1624 75.6668 73.9213 76.3738 74.476C76.7107 74.6601 76.8533 74.6167 76.9421 74.5415C76.997 74.4949 76.9754 73.8951 77.0876 73.6133C77.2474 73.1507 77.6134 72.7568 78.0026 72.3978C78.438 72.0206 78.9309 71.6744 79.5128 71.4464C80.6782 70.9787 81.8863 70.581 83.1064 70.2126C84.0249 69.943 84.9588 69.7039 85.9139 69.5302C81.815 69.553 77.7159 69.5796 73.6168 69.6168C73.8216 68.829 74.0298 68.0418 74.2409 67.2552C74.6756 66.8036 75.2225 66.4324 75.7624 66.0635C78.1127 64.529 80.8261 63.3935 83.5742 62.3765C83.2523 61.9776 82.805 61.6059 82.7341 61.1161C82.568 60.4282 82.9291 59.748 83.3834 59.1754C83.6527 58.8504 83.9044 58.4953 84.3188 58.2717C84.7346 58.0437 85.2972 58.0286 85.752 58.1907C87.2757 58.732 88.8475 59.685 90.0094 60.5408C90.1258 60.634 90.2752 60.7144 90.3481 60.8359C90.0746 61.5366 89.7858 62.2345 89.5207 62.938C88.3092 63.1521 87.0912 63.3568 85.9104 63.6647C86.0303 64.2567 86.2442 64.9024 85.923 65.4761C85.8109 65.4639 85.6587 65.4484 85.6398 65.3396C85.5942 64.842 85.2913 64.3893 84.98 63.9655C83.4732 64.4348 81.9699 64.9202 80.5494 65.5377C79.4044 66.0409 78.2433 66.5867 77.3949 67.3917C83.6969 67.3934 89.9997 67.3934 96.3019 67.3917C95.8981 68.0941 95.4662 68.787 95.0546 69.4865C90.9283 70.282 86.8096 71.1324 82.8068 72.2631C81.1268 72.7502 79.4481 73.2861 77.9582 74.0805C77.8039 74.1737 77.7149 74.3457 77.8271 74.4855C78.0585 74.7668 78.4806 74.8827 78.8347 75.043C79.6045 75.3803 80.4579 75.5639 81.2964 75.7609C81.8973 75.9013 82.4982 76.0411 83.0983 76.1831C83.0485 77.0247 83.0401 77.8685 82.9756 78.709C82.484 78.709 81.9827 78.6402 81.4884 78.6058C80.5201 78.5149 79.537 78.4538 78.6031 78.2186C77.3312 77.9001 76.1854 77.2955 75.2879 76.5176C74.3028 75.6788 73.5904 74.6608 73.0799 73.594C72.383 72.1155 71.9945 70.3045 71.8599 68.734C71.7982 68.7273 71.7833 69.04 71.7237 69.035C71.5492 69.7273 71.3438 70.3419 71.0515 71.0098C70.9961 71.1685 70.8488 71.2895 70.7191 71.4126C69.781 72.2747 68.7804 73.0942 67.7344 73.8735C66.6637 74.663 65.5474 75.4186 64.3414 76.0766C63.073 76.7651 61.7009 77.3842 60.1835 77.6443C59.3681 77.778 58.4411 77.8036 57.7266 77.413C56.9287 76.9814 56.5395 76.2314 56.3292 75.5124C55.6021 75.949 54.8694 76.3795 54.1205 76.7928C53.4446 77.1517 52.7715 77.5312 51.9973 77.7476C50.0621 78.3162 48.0484 78.689 46.0451 79.0735C44.6084 79.3309 43.1711 79.5888 41.7246 79.8091C43.0645 79.2072 44.4254 78.6324 45.7597 78.0222C49.3798 76.3835 52.9459 74.6614 56.35 72.753C56.8141 70.9938 57.5636 69.224 59.0157 67.8122C59.0339 67.8083 59.0711 67.8 59.0893 67.7961C58.9736 67.9908 58.9182 68.2044 58.799 68.398C57.924 69.6107 57.3021 70.9511 57.0818 72.3396C58.6314 71.448 60.1437 70.5133 61.5671 69.4969C62.4464 68.8733 63.2723 68.2031 64.0268 67.4842C64.2343 67.2806 64.5162 67.1059 64.5947 66.8385C64.6291 66.6645 64.6097 66.5571 64.4847 66.1964C63.6048 64.2721 62.3559 61.8711 61.5265 60.1791C61.8105 59.3242 62.0734 58.4649 62.3602 57.6105C62.7424 57.8097 62.9913 58.1226 63.2633 58.4055C63.8187 59.0507 64.341 59.7142 64.8101 60.4015C65.0723 60.7793 65.1221 61.2181 65.2182 61.6353C64.8417 61.3673 64.5794 61.004 64.1615 60.7749C64.1797 60.8359 64.205 60.8953 64.2379 60.9535C64.8991 61.9859 65.3514 63.0983 65.6445 64.2311C65.8254 64.904 65.9039 65.5941 65.8534 66.2821C65.8156 67.0277 65.6873 67.7916 65.2547 68.4645C64.8704 69.062 64.3537 69.5973 63.8137 70.1111C61.9837 71.8102 59.8388 73.2749 57.6604 74.6851C57.6632 74.7672 57.781 74.7894 57.8512 74.8344C58.6308 75.2194 59.6063 75.1805 60.477 75.0607C61.1333 74.9403 61.8092 74.8488 62.41 74.5947C63.9869 73.9417 65.3619 73.0313 66.6893 72.1038C68.4296 70.8506 70.0688 69.5109 71.6324 68.1206C71.1101 66.6538 70.5674 65.192 70.0149 63.7323C69.7148 62.9701 69.4357 62.2012 69.0767 61.4551C68.4814 60.4709 67.9093 59.4751 67.3904 58.4648C67.5999 57.6931 67.8636 56.9297 68.0872 56.1597M83.9482 60.1292C83.7574 60.189 83.5976 60.3555 83.6775 60.5225C83.7069 60.649 83.8815 60.6928 83.9734 60.7865C84.3555 61.1377 84.7173 61.5033 85.0497 61.8855C85.8791 61.647 86.7213 61.4401 87.5584 61.2209C86.9351 60.7499 86.243 60.3017 85.4114 60.0887C84.9381 59.9616 84.4087 59.9772 83.948 60.1292L83.9482 60.1292ZM102.298 59.115C104.852 57.8635 107.393 56.5947 109.951 55.3482C109.878 55.7371 109.737 56.1631 109.334 56.4194C106.857 57.6416 104.366 58.8471 101.891 60.0714C101.997 59.7452 102.163 59.434 102.298 59.115L102.298 59.115ZM89.4108 54.3973C89.6471 54.2891 89.9934 54.2969 90.1533 54.4944C90.3734 54.7574 90.4323 55.1013 90.3132 55.4031C90.0881 56.0017 89.591 56.5104 89.049 56.9531C88.3899 57.4624 87.6011 57.9318 86.6685 58.0466C86.8249 57.8935 87.0535 57.8086 87.2547 57.6987C87.8324 57.3908 88.3885 57.0513 88.8737 56.6547C89.1282 56.4217 89.4037 56.1698 89.4494 55.8508C89.4669 55.5834 89.1605 55.3548 88.8477 55.3104C88.392 55.3742 88.108 55.686 87.7729 55.9052C87.6929 55.7116 87.9068 55.5756 88.033 55.4336C88.4347 55.0475 88.8393 54.6331 89.4107 54.3973L89.4108 54.3973ZM56.1413 53.1014C56.9224 52.7203 57.688 52.3175 58.4789 51.9491C58.4011 52.3425 58.2398 52.7979 57.7567 52.9938C56.029 53.8304 54.3204 54.6918 52.5864 55.5197C52.7799 55.2062 52.9706 54.8895 53.1838 54.5844C54.1612 54.0806 55.1569 53.5968 56.1413 53.1015L56.1413 53.1014ZM131.382 50.651C132.521 51.2574 133.46 52.1228 133.968 53.1364C134.469 54.119 134.464 55.234 134.061 56.2376C134.006 56.3535 133.889 56.4406 133.791 56.5338C133.967 55.8526 134.027 55.1375 133.783 54.4618C133.438 53.3911 132.451 52.5018 131.252 51.9637C131.311 51.5271 131.325 51.0878 131.382 50.6511L131.382 50.651ZM103.943 51.091C104.139 50.9018 104.329 50.7093 104.544 50.5334C104.34 50.9106 104.495 51.3206 104.592 51.7029C104.702 52.0529 104.808 52.4063 104.975 52.7425C105.183 52.9583 105.549 53.0681 105.885 53.0598C106.041 53.0593 106.116 52.9145 106.062 52.8107C105.897 52.3891 105.683 51.9797 105.44 51.583C105.487 51.2917 105.624 51.0116 105.72 50.7276C105.836 50.7359 105.954 50.7437 106.074 50.7531C106.152 51.2696 106.493 51.7272 106.761 52.191C106.75 52.5644 106.717 52.94 106.626 53.3072C106.557 53.563 106.437 53.8592 106.11 53.9746C105.832 54.06 105.506 54.1077 105.225 54.0046C104.812 53.8598 104.518 53.5746 104.265 53.2895C104.104 53.6927 103.696 54.0123 103.195 54.1538C102.784 54.3036 102.283 54.1466 102.022 53.8725C101.723 53.5491 101.67 53.1325 101.665 52.7436C101.682 52.3702 101.719 51.9858 101.923 51.6429C102.055 51.4127 102.259 51.1864 102.572 51.1004C102.154 51.6468 102.108 52.3475 102.416 52.9344C102.505 53.1008 102.688 53.2617 102.932 53.2673C103.303 53.2523 103.591 53.0409 103.837 52.8407C103.831 52.3641 103.858 51.8887 103.859 51.4121C103.876 51.3046 103.835 51.1753 103.943 51.091L103.943 51.091ZM42.0686 47.2231C43.0004 47.7008 43.7423 48.4276 44.097 49.2636C44.3851 49.9393 44.3648 50.6827 44.1082 51.3623C44.0738 51.4727 43.9686 51.5554 43.8747 51.6364C44.064 50.9951 44.0437 50.2999 43.7043 49.6914C43.3586 49.0629 42.7248 48.5447 41.9739 48.2096C42.0146 47.8813 42.0349 47.5517 42.0686 47.2233L42.0686 47.2231ZM72.1426 46.5097C72.3536 46.3028 72.5423 46.0648 72.8227 45.9139C72.6376 46.1363 72.7154 46.4109 72.7596 46.6562C72.8634 47.1138 73.0177 47.5643 73.2 48.0065C73.2575 48.1912 73.498 48.27 73.6964 48.341C73.8759 48.3943 74.0918 48.4437 74.2741 48.3727C74.3891 48.2928 74.3351 48.1563 74.2945 48.0576C74.1191 47.6703 73.9397 47.282 73.6929 46.9192L73.9761 46.0748C74.0996 46.0826 74.2229 46.0893 74.3485 46.0953C74.4053 46.6152 74.7664 47.0689 75.0265 47.5355C75.0174 47.9333 74.9809 48.3344 74.8722 48.7238C74.8105 48.9535 74.6766 49.1959 74.4024 49.3113C74.0876 49.4101 73.7125 49.4561 73.4047 49.3191C73.0478 49.1571 72.7624 48.9102 72.5388 48.6406C72.3593 49.0539 71.9281 49.3812 71.4043 49.5161C71.0439 49.6231 70.6155 49.5089 70.3694 49.2831C70.0559 49.0257 69.9718 48.6529 69.9417 48.3094C69.9171 47.8678 69.962 47.4124 70.1801 47.0013C70.3049 46.7628 70.5278 46.5525 70.8231 46.4366C70.5335 46.8915 70.3848 47.4207 70.5468 47.9233C70.6184 48.1868 70.7376 48.523 71.1084 48.6057C71.5088 48.6462 71.8272 48.4054 72.0852 48.1968C72.1335 47.6354 72.1033 47.0706 72.1426 46.5098V46.5097ZM103.147 45.7985C104.496 45.3369 105.844 44.8709 107.223 44.4715C107.181 44.7194 107.068 45.0024 106.763 45.1206C104.804 45.7819 102.838 46.432 100.921 47.1665C100.541 47.3329 100.149 47.5038 99.8528 47.7601C100.065 47.9448 100.381 48.0142 100.668 48.0973C100.664 48.2765 100.665 48.4557 100.665 48.6355C100.259 48.5578 99.8535 48.4407 99.5394 48.2172C99.5576 47.9625 99.552 47.7062 99.5962 47.4533C99.6418 47.2236 99.9383 47.1154 100.153 46.9906C101.103 46.5224 102.132 46.1657 103.148 45.7984L103.147 45.7985ZM42.4715 43.5651L42.5269 43.6089C42.4048 43.7315 42.4673 43.8935 42.4869 44.0344C42.5535 44.3379 42.6488 44.6385 42.7806 44.9287C42.8241 45.0585 42.9945 45.1206 43.1396 45.1639C43.2665 45.185 43.472 45.2344 43.5246 45.1001C43.4376 44.7856 43.2287 44.5049 43.0996 44.2031C43.1606 44.0289 43.1894 43.8419 43.2938 43.6805C43.364 43.6816 43.4355 43.6838 43.507 43.6877C43.5771 44.0261 43.7994 44.324 43.9592 44.6363C43.9501 44.9576 43.9375 45.2909 43.7846 45.5928C43.6893 45.797 43.3857 45.8513 43.1417 45.8485C42.7847 45.8086 42.5506 45.57 42.3395 45.3626C42.2035 45.6655 41.8557 45.9024 41.4504 45.944C41.1096 45.9579 40.8208 45.7404 40.731 45.4924C40.6125 45.1645 40.6258 44.8122 40.7219 44.4821C40.797 44.2513 40.9435 44.0017 41.245 43.9129C41.0073 44.2308 40.9485 44.6219 41.0817 44.9764C41.1336 45.1229 41.2296 45.3065 41.4484 45.3276C41.691 45.3309 41.8712 45.1844 42.0444 45.0707C42.0892 44.7079 42.0352 44.3417 42.092 43.9795C42.1797 43.8236 42.3551 43.7082 42.4714 43.5651L42.4715 43.5651ZM53.6451 42.9398C53.7937 42.9715 53.9011 43.0674 54.0237 43.1357C54.767 43.62 55.3861 44.2496 55.6813 44.9814C55.9575 45.6438 55.9407 46.3711 55.6946 47.0374C55.661 47.1528 55.5684 47.246 55.487 47.3425C55.4807 47.3303 55.4681 47.3054 55.4611 47.2932C55.6406 46.6774 55.614 46.0144 55.3006 45.4285C54.9619 44.7867 54.3273 44.2552 53.5618 43.9207C53.5814 43.5934 53.6136 43.2661 53.6452 42.9399L53.6451 42.9398ZM60.3881 42.3684C60.5768 42.0051 61.0711 41.7 61.5864 41.7698C61.8438 41.8137 62.024 41.9928 62.1158 42.1787C62.296 42.5615 62.3227 42.9787 62.2595 43.3814C62.5757 43.681 62.9193 43.9845 63.0518 44.3728C63.2972 44.8837 63.0777 45.4291 62.8688 45.9223C62.6016 46.5747 62.094 47.1672 61.9993 47.8607C61.9664 48.0321 62.0498 48.2191 62.2714 48.2784C62.6276 48.1952 62.683 47.8601 62.7559 47.616C62.8674 47.595 63.042 47.5855 63.0805 47.697C63.1415 48.0055 62.9705 48.3023 62.8323 48.5835C62.7075 48.7971 62.5343 49.0496 62.2139 49.0973C61.9579 49.1344 61.7623 48.9569 61.6599 48.7944C61.3682 48.3261 61.4601 47.7708 61.7041 47.3032C62.0841 46.5581 62.5862 45.808 62.5399 44.9814C62.5413 44.6303 62.3548 44.2952 62.0568 44.0394C61.6116 44.9908 60.8915 45.8485 60.062 46.6163C59.633 47.038 59.0166 47.2954 58.4283 47.5522C57.9018 47.768 57.3675 47.9805 56.8065 48.1364C57.8863 47.5217 58.922 46.8499 59.8181 46.0694C60.5571 45.4131 61.2372 44.673 61.5114 43.8076L61.4932 43.7588C61.0935 43.5546 60.6132 43.3743 60.405 43.0137C60.3166 42.8085 60.3279 42.5777 60.3882 42.3686M60.7885 42.4729C60.6855 42.5256 60.7563 42.6265 60.8404 42.6609C61.0921 42.7769 61.3508 42.8845 61.6124 42.9866C61.6061 42.778 61.6538 42.5189 61.4231 42.3702C61.2232 42.2382 60.9498 42.3525 60.7885 42.4729ZM103.475 42.0085C103.609 41.8226 103.818 41.5935 104.126 41.6257C104.453 41.684 104.774 41.8232 104.975 42.0407C105.078 42.1766 105.162 42.3841 104.981 42.5039C104.885 42.5777 104.817 42.7025 104.7 42.7397C104.535 42.5694 104.407 42.2654 104.074 42.2742C103.657 42.3957 103.426 42.7302 103.301 43.0481C103.043 43.7039 102.99 44.3951 102.909 45.0742C102.826 45.1419 102.715 45.1796 102.615 45.2279C102.615 44.5394 102.413 43.8021 101.79 43.2935C101.49 43.2641 101.133 43.2358 100.965 43.0055C100.76 42.7121 100.613 42.3498 100.754 42.0192C101.072 41.9698 101.329 42.1584 101.545 42.3149C102.116 42.7293 102.485 43.278 102.818 43.8233C102.959 43.2041 103.1 42.5706 103.475 42.0086L103.475 42.0085ZM22.2836 42.2321C22.4575 41.9891 22.6496 41.7389 22.9511 41.583C22.4701 42.4041 21.9105 43.2196 21.7318 44.1255C21.6757 44.4218 21.6736 44.7613 21.9134 45.0104C22.1378 45.234 22.5458 45.2378 22.8634 45.1596C23.219 45.047 23.3844 44.7452 23.5506 44.4939C23.6249 44.4956 23.6404 44.5649 23.6761 44.6065C23.4889 45.1884 23.308 45.8198 22.7533 46.2609C22.238 46.6919 21.2213 46.47 20.9682 45.9347C20.7845 45.5497 20.8455 45.1236 20.9535 44.7308C21.2186 43.8466 21.7206 43.0193 22.2837 42.2321L22.2836 42.2321ZM70.6423 41.3095C71.5665 41.8093 72.3244 42.5306 72.6777 43.3783C72.8531 43.8232 72.9175 44.2975 72.8495 44.7613C72.7991 45.0992 72.731 45.4498 72.4919 45.7405C72.4583 45.6517 72.4807 45.5608 72.5017 45.4725C72.6609 44.8018 72.5255 44.0828 72.0859 43.4925C71.7234 43.0004 71.187 42.5877 70.556 42.3153C70.568 41.9791 70.6093 41.6446 70.6423 41.3095L70.6423 41.3095ZM83.5389 40.8579C83.9035 41.0077 84.1419 41.2812 84.3768 41.5375C84.9496 42.201 85.4362 42.9461 85.873 43.6702C85.9157 43.7657 85.9179 43.8844 85.9481 44.2027C85.6845 43.9758 85.3759 43.7567 84.984 43.6901C84.9146 43.8116 84.9153 43.9425 84.9742 44.0668C85.4832 45.3022 86.0589 46.5205 86.5519 47.7604C86.866 48.5687 87.1415 49.3991 87.152 50.2501C87.1738 51.0401 87.0034 51.829 86.7089 52.5823C86.4131 53.2901 85.9594 53.9919 85.2028 54.4591C84.5802 54.8591 83.7493 55.0249 82.9571 54.9661C81.9902 54.909 81.0744 54.54 80.4035 53.992C80.0451 53.7218 79.7542 53.4028 79.4814 53.0777L79.5859 53.0583C79.5572 53.061 79.5004 53.0666 79.4716 53.0693C78.8658 52.2616 78.4164 51.3801 78.157 50.463C78.1801 50.3442 77.894 50.3542 77.9228 50.4724C77.5532 51.8099 76.9635 53.1292 75.9875 54.2687C75.4174 54.9233 74.6798 55.5075 73.7647 55.8531C72.7677 56.2253 71.5932 56.2497 70.5435 56.0112C69.489 55.7704 68.6532 55.1114 68.2003 54.3347C67.544 53.2218 67.4437 51.9619 67.5159 50.752C67.6569 49.7745 67.9654 48.8186 68.2669 47.8661C68.3686 47.5732 68.459 47.2581 68.3279 46.9607C68.2858 46.9435 68.2024 46.9091 68.161 46.8919C68.02 46.9646 67.8749 47.0362 67.7648 47.1382C66.9922 47.8128 66.5533 48.675 66.2027 49.5299C65.9376 50.2184 65.7308 50.9213 65.592 51.6331C65.4076 52.7582 65.125 53.8966 64.4708 54.9161C64.116 55.4581 63.5831 56.0212 62.7803 56.1455C62.0364 56.2243 61.2412 56.0395 60.6964 55.6246C60.0289 55.1308 59.7365 54.4129 59.5605 53.7228C59.28 52.484 59.367 51.2142 59.543 49.9703C59.6608 49.2037 59.8291 48.4425 60.0387 47.6886C60.1074 47.6836 60.1768 47.6797 60.2476 47.6764C59.97 48.9474 59.7785 50.2378 59.8269 51.5298C59.8704 52.266 59.9798 53.016 60.3577 53.6973C60.6143 54.1639 61.0497 54.5983 61.6548 54.7991C62.2263 54.9833 62.9316 55.0166 63.4666 54.742C64.0199 54.4546 64.2793 53.9414 64.4847 53.466C64.8893 52.4136 65.0681 51.3191 65.3857 50.25C65.7188 49.1649 66.1977 48.1092 66.7852 47.0939C67.1218 46.5019 67.4927 45.92 67.9688 45.3896C68.3916 44.9175 68.78 44.3993 69.3802 44.0526C69.4251 44.0542 69.5135 44.0581 69.5583 44.0598C69.6684 44.4154 69.5387 44.7837 69.519 45.1438C69.4818 45.7385 69.2084 46.2972 69.0513 46.8735C68.8564 47.5326 68.6896 48.1972 68.5227 48.8612C68.2646 49.8121 68.0809 50.8151 68.4056 51.7716C68.651 52.5216 69.3052 53.1835 70.1886 53.5252C70.7629 53.7643 71.4073 53.8858 72.0538 53.9041C72.9625 53.9768 73.9126 53.8902 74.7252 53.544C75.7047 53.1402 76.3982 52.4078 76.8477 51.6256C77.2873 50.844 77.5383 49.9973 77.6112 49.1447C77.621 47.4509 77.4724 45.7245 76.7404 44.1185C76.6471 43.8966 76.5251 43.6663 76.5784 43.4283C76.6941 42.7753 76.9697 42.1468 77.2929 41.5416C77.3132 41.4723 77.4184 41.4673 77.4815 41.4318C77.8272 42.2489 78.163 43.0716 78.3727 43.9188C78.637 45.02 78.7892 46.1356 78.9456 47.2485C79.0697 48.043 79.1061 48.8496 79.3579 49.6285C79.5668 50.2748 79.8921 50.9072 80.4033 51.4426C81.0245 52.1255 81.9571 52.6326 82.9941 52.8262C83.8818 52.9893 84.8298 52.7796 85.5765 52.3873C85.9691 52.1754 86.3766 51.8181 86.2461 51.4137C85.003 48.8262 83.9807 46.1768 82.9648 43.5299C82.8975 43.3114 82.7692 43.1022 82.7481 42.8775C82.88 42.1775 83.1899 41.5062 83.5391 40.8577L83.5389 40.8579ZM48.8037 43.0326C49.2286 42.2737 49.6528 41.5142 50.0868 40.7586C50.9261 42.2864 51.609 43.8675 52.1208 45.4835C52.1811 45.8102 52.0591 46.1387 52.0738 46.4671C51.7808 46.0554 51.4442 45.6643 51.1371 45.2593C51.2163 46.0005 51.3601 46.7378 51.447 47.479C52.0345 51.8566 52.5513 56.2404 52.9923 60.6292C53.4979 60.3396 53.8835 59.9241 54.1002 59.4619C54.3827 58.9416 54.6877 58.424 55.1007 57.9591C55.2557 57.7921 55.4604 57.578 55.7605 57.6296C55.9302 57.6373 56.0109 57.7816 56.0277 57.8986C56.1027 58.3108 55.7086 58.6664 55.776 59.0753C55.7942 59.4109 56.1258 59.6989 56.5199 59.8004C57.2014 59.9951 57.9418 59.908 58.6408 59.8298C58.9563 59.7749 59.3504 59.7277 59.5039 59.4686C59.3399 59.0525 59.1576 58.6409 58.9507 58.237C59.2459 57.6418 59.5831 57.0592 59.891 56.4673C59.9702 56.3275 60.0235 56.1732 60.1539 56.0556C60.3776 56.7325 60.4337 57.4348 60.5241 58.1283C60.6174 59.2494 60.3902 60.4134 59.6834 61.3998C59.3027 61.9046 58.734 62.3634 57.9922 62.5093C57.3457 62.6319 56.6354 62.5759 56.0492 62.3207C55.3705 62.015 54.9049 61.478 54.663 60.8993C54.2956 61.5673 53.8125 62.1986 53.1976 62.7417C53.2691 63.6083 53.349 64.4742 53.4037 65.3414C53.4444 66.3084 53.131 67.256 52.7685 68.1713C52.5925 68.5646 52.4193 68.9602 52.2019 69.3408C50.2696 71.8395 47.7153 74.0529 44.6504 75.7055C42.6444 76.7956 40.4252 77.641 38.0953 78.1964C36.8774 78.476 35.6322 78.704 34.3651 78.7772C33.0574 78.7917 31.7302 78.658 30.508 78.2785C29.3609 77.9246 28.3589 77.2799 27.7159 76.4467C25.4568 76.6314 23.1843 76.7329 20.9125 76.7374C22.9388 76.1627 24.9449 75.5419 26.9172 74.8583C25.805 70.3464 28.4525 65.4081 30.4104 62.776C29.0504 65.0013 28.171 67.26 27.971 69.5536C27.8596 71.1058 28.0005 72.7356 28.9148 74.1404C31.3456 73.2412 33.7121 72.2304 35.9811 71.0964C37.9051 70.1212 39.7639 69.0571 41.453 67.8373C42.2537 67.2514 43.032 66.6401 43.6897 65.9499C43.8838 65.7691 43.7892 65.5111 43.7261 65.3053C43.5796 64.9596 43.4134 64.6196 43.2444 64.2812C42.0945 64.6495 40.8696 64.902 39.6223 64.8975C38.9422 64.913 38.2424 64.8104 37.6562 64.5269C37.1534 64.2817 36.7804 63.879 36.629 63.4274C36.4194 62.8349 36.5105 62.2096 36.636 61.6122C36.8351 60.7473 37.2376 59.8824 38.0026 59.2279C38.5397 58.7707 39.2506 58.419 40.0388 58.3269C40.93 58.3302 41.7692 58.6742 42.4052 59.1518C43.2151 59.7593 43.7676 60.547 44.1926 61.3553C44.9856 60.9897 45.7478 60.557 46.3382 59.995C46.9173 59.5185 47.5134 59.032 48.2531 58.7119C48.4375 58.6281 48.7558 58.5354 48.8785 58.7313C49.0124 59.022 48.8848 59.3415 48.795 59.6305C48.5566 60.0522 48.8448 60.5315 49.201 60.8538C49.6967 61.2965 50.5115 61.3392 51.2021 61.2399C50.4785 55.3566 49.743 49.4739 49.0188 43.5904C49.0041 43.393 48.8961 43.2127 48.8035 43.0324M38.9494 61.0979C38.5946 61.2189 38.1508 61.398 38.0982 61.7359C38.1816 61.9928 38.563 62.0721 38.8498 62.127C39.7719 62.2685 40.7302 62.2657 41.6517 62.1226C41.6348 62.0965 41.5998 62.0449 41.5823 62.0188C41.102 61.5884 40.4898 61.2178 39.762 61.109C39.4949 61.0774 39.2109 61.0169 38.9494 61.0979M44.9872 63.5011C45.0825 64.7 44.8701 65.9121 44.3926 67.051C44.2082 67.4466 44.0546 67.8654 43.7068 68.1949C41.9967 70.0034 39.7936 71.4808 37.4721 72.7778C35.4036 73.9179 33.2196 74.9291 30.9367 75.7741C31.3265 75.9245 31.736 76.0454 32.1616 76.117C33.3017 76.3172 34.479 76.2096 35.6211 76.0792C39.1969 75.6554 42.564 74.4205 45.4639 72.7328C47.3865 71.6139 49.138 70.3108 50.6665 68.8601C51.1776 68.3475 51.8066 67.8465 51.9314 67.1719C51.8093 66.0274 51.6481 64.8857 51.5135 63.7418C50.7184 63.9943 49.734 64.0536 49.0125 63.632C48.1367 63.1089 47.8036 62.2162 47.6655 61.3918C46.9103 62.1946 46.022 62.9225 44.9871 63.5011L44.9872 63.5011ZM88.7636 41.4036C88.962 41.1429 89.1513 40.855 89.49 40.6907C88.9977 41.4707 88.4957 42.2641 88.2741 43.1251C88.1879 43.4974 88.1585 43.9506 88.5448 44.2296C88.7691 44.3162 89.0279 44.3678 89.2726 44.2996C89.7199 44.2202 89.9289 43.8519 90.1035 43.5534C90.1518 43.6732 90.1841 43.7975 90.1322 43.9207C89.973 44.4388 89.7613 44.9814 89.2824 45.3736C88.7432 45.8307 87.6557 45.5678 87.4503 44.982C87.2701 44.4505 87.4349 43.8935 87.6326 43.3797C87.9201 42.6918 88.3184 42.0355 88.7636 41.4036L88.7636 41.4036ZM31.9482 42.8643C32.4263 42.1309 32.8856 41.3903 33.3519 40.6525C34.1092 42.2175 34.7087 43.8307 35.1245 45.4739C35.1518 45.7729 35.0488 46.0708 35.0151 46.3682C34.673 46.002 34.4675 45.561 34.1191 45.1954C34.3091 46.4298 34.3771 47.6741 34.5012 48.9134C34.6393 50.5162 34.7697 52.1195 34.8994 53.7227C35.9379 53.5851 36.8711 53.0997 37.498 52.4373C38.441 51.4454 38.8596 50.1972 38.9781 48.9756C38.9704 47.4061 38.8646 45.8095 38.2412 44.3073C38.1311 43.9999 37.9285 43.7026 37.9327 43.3769C38.007 42.7717 38.2629 42.1914 38.5336 41.626C38.6023 41.494 38.6471 41.3259 38.8491 41.2865C39.1569 42.0393 39.4752 42.7916 39.68 43.5672C39.9976 44.7821 40.1511 46.0191 40.3278 47.2508C40.4456 47.9964 40.4807 48.7542 40.7191 49.4849C41.0283 50.4674 41.6552 51.4249 42.6873 52.0495C43.4635 52.5155 44.4549 52.8345 45.4422 52.7108C46.1384 52.6115 46.8431 52.3923 47.3305 51.9719C47.5506 51.7855 47.7021 51.5125 47.6081 51.2573C46.6111 49.2263 45.797 47.1431 44.9739 45.065C44.6928 44.3422 44.4165 43.6176 44.1409 42.8937C44.0624 42.71 44.1648 42.5209 44.2026 42.3395C44.3758 41.7858 44.6002 41.2371 44.9101 40.7223C45.2474 40.8505 45.4662 41.104 45.6863 41.3332C46.3503 42.0899 46.8797 42.9142 47.3663 43.7492C47.3431 43.8557 47.3207 43.9627 47.3025 44.0704C47.0557 43.8279 46.7387 43.6105 46.3419 43.5489C46.2788 43.6676 46.2816 43.7974 46.3363 43.9178C46.778 44.9747 47.2492 46.0237 47.6986 47.0783C48.0807 48.0186 48.54 49.3856 48.514 49.9698C48.4337 50.7902 48.2883 51.8779 47.9747 52.6426C47.6298 53.3222 47.029 54.1338 46.2107 54.5072C45.5088 54.8412 44.6422 54.8928 43.8513 54.7696C42.8101 54.6049 41.9169 54.0723 41.2773 53.4165C40.3784 52.4923 39.8266 51.3816 39.4999 50.2522C39.4508 50.2533 39.3527 50.2567 39.3036 50.2583C38.9978 51.3945 38.533 52.5135 37.815 53.5303C37.1713 54.4396 36.2816 55.2989 35.0545 55.7327C35.269 58.546 35.4934 61.3586 35.6469 64.1746C35.6694 65.5632 35.5985 66.9512 35.5116 68.3381C35.5102 68.5267 35.4106 68.7014 35.3363 68.8779C35.0958 69.4798 34.8413 70.0784 34.5707 70.6731C34.5279 70.7724 34.4725 70.8695 34.3933 70.9549C34.3582 68.3037 34.0743 65.6591 33.8478 63.0151C33.6423 60.6868 33.4369 58.3583 33.2371 56.03C32.2548 56.0128 31.243 55.7854 30.518 55.2395C29.6732 54.6242 29.2419 53.7372 29.0358 52.8617C28.8535 52.0862 28.8149 51.2912 28.8914 50.5062C29.0596 49.481 29.3913 48.4785 29.7075 47.4766C29.751 47.2975 29.7825 47.1094 29.7314 46.929C29.7117 46.8636 29.6928 46.7859 29.5967 46.7676C29.4495 46.7526 29.3401 46.8397 29.2405 46.9102C28.6894 47.3318 28.329 47.8771 28.0142 48.423C27.4175 49.5509 27.0663 50.7531 26.8748 51.9641C26.7163 52.7625 26.485 53.5574 26.1064 54.3102C25.8056 54.8694 25.4305 55.4452 24.7784 55.7958C24.2216 56.0993 23.4854 56.0621 22.8762 55.8879C22.1049 55.6616 21.5559 55.1146 21.2642 54.5221C20.7573 53.5035 20.7243 52.3885 20.7552 51.3083C20.8274 50.0424 21.0546 48.7831 21.4045 47.5471C21.4704 47.536 21.537 47.5255 21.6029 47.5154C21.3196 48.9334 21.089 50.3714 21.2229 51.8089C21.2881 52.4319 21.4283 53.061 21.7649 53.6313C22.051 54.1183 22.553 54.556 23.2177 54.7153C23.7828 54.8529 24.4525 54.8418 24.9334 54.5411C25.4565 54.2099 25.704 53.6923 25.8954 53.2008C26.3455 51.9553 26.5145 50.6577 26.9808 49.4157C27.433 48.1979 28.0479 47.0168 28.8087 45.8995C29.2498 45.3204 29.7265 44.7539 30.2805 44.2379C30.4445 44.1026 30.6093 43.9101 30.8701 43.9079C31.0132 43.9805 30.962 44.1397 30.9655 44.2535C30.8926 44.8138 30.8856 45.3869 30.6738 45.9288C30.2867 47.0412 30.0259 48.1779 29.7419 49.3085C29.5449 50.1889 29.4923 51.1293 29.9179 51.9736C30.2313 52.6177 30.8834 53.1403 31.6701 53.431C32.0978 53.5908 32.5599 53.6884 33.0276 53.7417C32.7695 50.6005 32.4765 47.4612 32.2093 44.3201C32.1483 43.8314 32.189 43.3271 31.9485 42.8644L31.9482 42.8643ZM136.106 42.8765C136.527 42.0854 136.917 41.2849 137.343 40.4954C137.997 42.1991 138.635 43.9079 139.168 45.6375C139.248 45.9354 139.352 46.2311 139.391 46.5345C139.336 46.7747 139.243 47.0105 139.236 47.2574C139.003 46.9023 138.769 46.5484 138.532 46.1955C138.83 50.6209 139.189 55.0441 139.59 59.4651C139.714 60.8869 139.895 62.306 139.961 63.7306C140.082 66.3697 139.966 69.0658 138.952 71.6028C138.572 72.5198 138.087 73.4135 137.472 74.2479C136.644 75.3263 135.416 76.1768 134.065 76.8303C131.658 77.9759 128.904 78.5717 126.154 78.9395C125.998 78.9845 125.935 78.8413 125.847 78.7764C128.3 77.8416 130.659 76.7431 132.861 75.4739C133.961 74.8215 135.039 74.1341 135.965 73.3264C137.027 72.3805 137.828 71.2416 138.192 70.0056C138.591 68.7629 138.453 67.4698 138.366 66.2048C138.136 63.289 137.851 60.3759 137.608 57.4605C137.235 52.9681 136.858 48.475 136.484 43.9825C136.404 43.6668 136.155 43.3961 136.04 43.0888C136.01 43.0134 136.081 42.9457 136.106 42.8763L136.106 42.8765ZM129.891 43.6477C131.325 42.4566 132.716 41.2328 134.094 40C134.155 41.1079 133.434 42.1264 132.63 42.9918C132.2 43.495 131.592 43.8717 131.046 44.29C130.785 44.4775 130.531 44.6706 130.28 44.8658C130.352 45.1621 130.462 45.4539 130.503 45.7546C130.482 46.0336 130.425 46.311 130.383 46.589C130.074 46.2051 129.853 45.7768 129.5 45.4173C129.655 46.6739 129.731 47.936 129.837 49.1958C130.113 52.895 130.366 56.5949 130.605 60.2956C130.591 60.3911 130.696 60.4515 130.764 60.5192C131.785 61.4168 132.801 62.3178 133.756 63.2597C134.506 64.0497 135.216 64.8662 135.818 65.7334C136.607 66.8685 137.232 68.0979 137.416 69.3937C137.517 70.2087 137.467 71.0497 137.132 71.8302C136.541 69.6916 135.454 67.7472 134.187 66.3985C133.122 65.2496 131.956 64.124 130.779 63.0454C130.861 64.3647 130.943 65.6845 131.007 67.0043C131.069 68.7069 130.99 70.41 130.899 72.111C130.9 72.4333 130.716 72.7279 130.621 73.0358C130.347 73.7271 130.126 74.4349 129.775 75.1051C129.719 73.534 129.652 71.9612 129.532 70.3918C129.316 67.5808 129.09 64.7709 128.887 61.9598C128.856 61.7385 128.872 61.5127 128.819 61.2952C128.045 60.579 127.209 59.9055 126.4 59.2143C124.976 58.037 123.537 56.8709 122.044 55.7492C122.327 58.6856 122.62 61.6213 122.885 64.5589C122.999 65.8925 123.149 67.2262 123.165 68.5638C123.185 69.7272 123.171 70.891 123.138 72.0539C123.142 72.7878 123.154 73.5462 122.826 74.2441C122.339 75.1085 121.466 75.8302 120.414 76.2756C119.592 76.6207 118.663 76.8043 117.733 76.8105C117.106 76.8215 116.482 76.6895 115.927 76.4626C114.956 76.0293 114.263 75.2904 113.817 74.4948C113.511 73.9472 113.292 73.3686 113.174 72.7767C113.105 72.5176 113.032 72.218 112.74 72.0561C112.507 71.9318 112.228 72.0311 112.003 72.1143C111.456 72.3451 110.928 72.6236 110.532 73.0069C109.242 74.2352 108.628 75.8029 108.244 77.3458C108.056 78.0115 107.758 78.6733 107.235 79.2231C106.856 79.6147 106.314 79.9898 105.673 79.9997C105.171 80.0075 104.687 79.8383 104.239 79.663C103.247 79.2491 102.559 78.4904 102.15 77.6803C102.04 77.4638 101.907 77.2838 101.692 76.5168C101.461 75.6899 101.381 74.4338 101.47 73.1555C101.514 73.0318 101.352 72.9869 101.263 72.9181C100.91 72.6784 100.765 72.2979 100.77 71.9395C100.76 70.6242 101.001 69.2861 101.701 68.0827C102.268 67.0902 103.118 66.2237 103.945 65.3605C104.023 65.2673 104.161 65.1929 104.199 65.0842C103.683 64.6188 103.139 64.1727 102.589 63.7328C102.276 63.446 101.895 63.2129 101.586 62.9234C100.426 61.9287 99.2863 60.9202 98.1468 59.9109C98.2555 61.3871 98.3382 62.8645 98.4315 64.3418C98.5023 65.7098 98.6222 67.0773 98.5976 68.447C98.6026 69.668 98.5331 70.888 98.4701 72.1073C98.4665 72.4113 98.3116 72.6943 98.2135 72.9839C97.9372 73.6979 97.6876 74.4201 97.3524 75.1192C97.29 74.5412 97.3279 73.9592 97.2816 73.3807C97.1547 70.4943 96.8693 67.6145 96.6667 64.7313C96.4942 62.5255 96.342 60.318 96.1583 58.1134C95.399 57.3677 94.5975 56.646 93.8466 55.8932C92.9673 55.0156 92.0887 54.1318 91.3526 53.1737C90.296 51.6692 89.1096 50.2084 87.6449 48.9302C87.5615 48.8681 87.5874 48.7754 87.5881 48.6961C87.6386 47.869 87.6786 47.0417 87.7304 46.2147C88.7731 46.7517 89.7674 47.347 90.7231 47.9777C91.4635 48.4831 92.1682 49.0251 92.7677 49.6382C93.077 49.9278 93.3623 50.2973 93.2586 50.6928C92.9066 50.5824 92.5427 50.4942 92.2096 50.3511C92.0757 50.2928 91.9299 50.2556 91.7798 50.2379C91.7581 50.4692 91.9572 50.6518 92.1066 50.8337C93.1927 52.0925 94.3257 53.3246 95.4882 54.5396C95.6376 54.6955 95.8023 54.8442 95.9173 55.0195C95.8436 53.5949 95.7063 52.1719 95.6087 50.7479C95.444 48.5488 95.275 46.3503 95.1102 44.1511C95.0801 43.8227 95.1004 43.4837 94.9335 43.1747C94.8529 43.0515 94.9721 42.9389 95.038 42.8324C95.437 42.2222 95.8226 41.6058 96.2013 40.9867C96.2195 40.9434 96.3072 40.8319 96.3338 40.939C97.0511 42.4141 97.6092 43.9375 98.0215 45.4836C98.1484 45.8536 97.992 46.2308 97.9451 46.6009C97.6772 46.182 97.3736 45.7787 97.0763 45.3726C97.4571 49.2344 97.6779 53.1055 97.9633 56.9716C98.1561 57.2279 98.452 57.431 98.6876 57.6651C100.963 59.7411 103.325 61.7553 105.686 63.7697C107.44 62.2286 109.212 60.6996 110.99 59.1757C111.067 59.1191 111.12 59.0497 111.093 58.9637C110.558 54.1567 110.022 49.3491 109.486 44.542C109.418 44.0561 109.436 43.5557 109.206 43.0941C109.644 42.349 110.124 41.619 110.56 40.8722C110.798 41.2644 110.962 41.6833 111.15 42.0927C111.592 43.1129 111.974 44.1498 112.276 45.201C112.339 45.4379 112.443 45.677 112.402 45.9222C112.37 46.1435 112.331 46.3644 112.301 46.5863C112.008 46.1946 111.727 45.7974 111.432 45.4068C111.851 49.2785 112.276 54.1535 112.657 57.7459C114.5 56.1965 116.329 54.6354 118.181 53.0925C118.384 52.9095 118.615 52.7458 118.803 52.5516C117.902 51.5936 117.061 50.6011 116.222 49.6086C115.931 49.2819 115.704 48.9235 115.426 48.59C114.84 47.8711 114.241 47.1438 113.436 46.564C113.366 45.6298 113.328 44.6933 113.277 43.7574C115.168 45.0645 117.088 46.3459 118.925 47.7008C119.101 47.8256 119.241 47.9787 119.34 48.1496C119.174 46.6878 119.023 45.2254 118.866 43.763C118.847 43.6288 118.853 43.489 118.782 43.3636C118.735 43.2349 118.605 43.0973 118.711 42.9658C119.145 42.2585 119.555 41.5417 119.985 40.8322C120.738 42.2413 121.324 43.7049 121.788 45.1893C121.836 45.3979 121.951 45.6026 121.916 45.8179C121.881 46.0553 121.861 46.2939 121.827 46.5313C121.561 46.1818 121.295 45.8323 121.032 45.4822C120.987 45.4267 120.944 45.3713 120.905 45.3147C121.145 46.9873 121.304 48.6665 121.491 50.3431C122.876 49.1804 124.298 48.0459 125.73 46.9192C126.368 46.4415 127.03 45.9833 127.641 45.4834C127.584 44.8343 127.551 44.1841 127.486 43.5356C127.474 43.3298 127.235 43.1223 127.403 42.9253C127.855 42.2452 128.284 41.5545 128.706 40.8617C129.2 41.7605 129.534 42.7103 129.891 43.6473M121.643 51.7957C121.665 52.0581 121.693 52.3205 121.723 52.5824C122.173 53.0223 122.63 53.4583 123.106 53.8816C124.918 55.5005 126.793 57.0743 128.632 58.6738C128.347 54.7178 128.028 50.7623 127.745 46.8057C125.67 48.4378 123.636 50.101 121.643 51.7957M117.728 48.2074C118.31 48.9264 118.915 49.6348 119.56 50.3189C119.508 49.6848 119.43 49.0513 119.36 48.4183C119.325 48.4743 119.287 48.5304 119.257 48.5875C118.819 48.3345 118.284 48.1359 117.728 48.2075M114.002 58.4407C113.626 58.7908 113.208 59.1136 112.854 59.4776C112.938 60.5993 113.119 61.7182 113.23 62.8395C113.285 64.6929 112.896 66.6601 111.456 68.1769C111.497 67.9355 111.477 67.6915 111.481 67.4485C111.479 66.6169 111.523 65.7853 111.518 64.9531C111.513 64.1559 111.531 64.2106 111.492 62.5614C111.476 61.8729 111.368 61.3267 111.298 60.8423C110.795 61.2628 110.316 61.701 109.815 62.1227C108.828 62.9948 107.78 63.8203 106.768 64.674C107.796 65.5494 108.44 66.7017 108.606 67.8873C108.774 69.1482 108.377 70.4892 107.331 71.4695C106.408 72.3288 105.084 72.8714 103.709 73.121C103.064 73.2342 102.375 73.3119 101.735 73.141C101.815 73.6703 101.915 74.1978 102.049 74.7204C102.279 75.6014 102.578 76.4907 103.172 77.2668C103.49 77.6635 103.925 78.0479 104.524 78.1644C105.164 78.2876 105.816 78.0335 106.266 77.6851C106.667 77.4005 106.853 76.9878 107.022 76.595C107.53 75.4383 107.702 74.1956 108.374 73.0833C108.846 72.2007 109.446 71.3441 110.311 70.664C110.76 70.2945 111.276 69.9794 111.816 69.6987C112.189 69.5222 112.639 69.3752 113.078 69.4784C113.495 69.5755 113.776 69.8668 113.969 70.1602C114.408 70.821 114.522 71.5766 114.877 72.2634C115.138 72.8309 115.482 73.4074 116.095 73.7901C116.714 74.1768 117.531 74.2955 118.303 74.2695C119.65 74.224 121.867 73.355 121.979 73.1095C122.095 72.8548 121.788 70.9261 121.667 69.8357C121.081 64.5085 120.52 59.1798 119.946 53.8523C119.927 53.7058 119.76 53.6065 119.678 53.4822C117.752 55.1104 115.885 56.7814 114.002 58.4408M105.221 66.0838C104.818 66.4521 104.437 66.8366 104.058 67.2205C103.336 67.9905 102.614 68.7694 102.08 69.6326C101.945 69.8518 101.823 70.1253 101.978 70.3583C102.161 70.5968 102.552 70.6323 102.873 70.6329C104.291 70.5879 105.613 70.0859 106.764 69.459C107.149 69.3086 107.511 68.9758 107.366 68.6146C107.175 68.1292 106.814 67.7009 106.461 67.281C106.094 66.8682 105.708 66.4649 105.296 66.0794C105.277 66.0805 105.24 66.0827 105.221 66.0838L105.221 66.0838Z" fill="white"/>
</g>
<path fill-rule="evenodd" clip-rule="evenodd" d="M80 156C121.974 156 156 121.974 156 80C156 38.0264 121.974 4 80 4C38.0264 4 4 38.0264 4 80C4 121.974 38.0264 156 80 156ZM80 160C124.183 160 160 124.183 160 80C160 35.8172 124.183 0 80 0C35.8172 0 0 35.8172 0 80C0 124.183 35.8172 160 80 160Z" fill="black" fill-opacity="0.15"/>
</g>
<defs>
<clipPath id="clip0_1_15725">
<rect width="160" height="160" rx="80" fill="white"/>
</clipPath>
<clipPath id="clip1_1_15725">
<rect width="240" height="160" fill="white" transform="translate(-40)"/>
</clipPath>
</defs>
</svg>
