<svg width="160" height="160" viewBox="0 0 160 160" fill="none" xmlns="http://www.w3.org/2000/svg">
<g clip-path="url(#clip0_1_15737)">
<g clip-path="url(#clip1_1_15737)">
<path d="M200 0H-40V160H200V0Z" fill="#00853F"/>
<path d="M200 0H40V160H200V0Z" fill="#FDEF42"/>
<path d="M200 0H120V160H200V0Z" fill="#E31B23"/>
<path d="M80 53.333L71.7595 78.6945L84.4403 82.8147L80 53.333Z" fill="#00853F"/>
<path d="M80 53.333L88.2405 78.6945L75.5597 82.8147L80 53.333Z" fill="#00853F"/>
<path d="M105.361 71.7598H78.6947V85.0931L105.361 71.7598Z" fill="#00853F"/>
<path d="M105.361 71.7598L83.7875 87.434L75.9504 76.6471L105.361 71.7598Z" fill="#00853F"/>
<path d="M95.6743 101.573L87.4339 76.2117L74.7531 80.332L95.6743 101.573Z" fill="#00853F"/>
<path d="M95.6743 101.573L74.1005 85.899L81.9377 75.1121L95.6743 101.573Z" fill="#00853F"/>
<path d="M64.3257 101.574L85.8995 85.8999L78.0623 75.1131L64.3257 101.574Z" fill="#00853F"/>
<path d="M64.3257 101.574L72.5661 76.2127L85.2469 80.3329L64.3257 101.574Z" fill="#00853F"/>
<path d="M54.6384 71.7588L76.2122 87.4331L84.0494 76.6462L54.6384 71.7588Z" fill="#00853F"/>
<path d="M54.6384 71.7588H81.3051V85.0921L54.6384 71.7588Z" fill="#00853F"/>
</g>
<path fill-rule="evenodd" clip-rule="evenodd" d="M80 156C121.974 156 156 121.974 156 80C156 38.0264 121.974 4 80 4C38.0264 4 4 38.0264 4 80C4 121.974 38.0264 156 80 156ZM80 160C124.183 160 160 124.183 160 80C160 35.8172 124.183 0 80 0C35.8172 0 0 35.8172 0 80C0 124.183 35.8172 160 80 160Z" fill="black" fill-opacity="0.15"/>
</g>
<defs>
<clipPath id="clip0_1_15737">
<rect width="160" height="160" rx="80" fill="white"/>
</clipPath>
<clipPath id="clip1_1_15737">
<rect width="240" height="160" fill="white" transform="translate(-40)"/>
</clipPath>
</defs>
</svg>
