<svg width="160" height="160" viewBox="0 0 160 160" fill="none" xmlns="http://www.w3.org/2000/svg">
<g clip-path="url(#clip0_1_15730)">
<path d="M-10 0H170V160H-10V0Z" fill="white"/>
<path d="M17.5963 56.4258L34.2373 31.4643L38.3976 34.2378L21.7566 59.1993L17.5963 56.4258ZM23.8367 60.586L40.4777 35.6245L44.6379 38.398L27.9969 63.3595L23.8367 60.586ZM30.0771 64.7463L46.7181 39.7848L50.8783 42.5583L34.2373 67.5198L30.0771 64.7463Z" fill="black"/>
<path d="M109.122 117.442L125.763 92.4809L129.923 95.2544L113.282 120.216L109.122 117.442ZM115.362 121.603L132.003 96.6411L136.163 99.4146L119.522 124.376L115.362 121.603ZM121.603 125.763L138.244 100.801L142.404 103.575L125.763 128.536L121.603 125.763Z" fill="black"/>
<path fill-rule="evenodd" clip-rule="evenodd" d="M135.47 118.483L114.669 104.615L116.056 102.535L136.857 116.403L135.47 118.483Z" fill="white"/>
<path d="M55.0386 63.3594C59.452 56.7392 66.3146 52.1434 74.1166 50.583C81.9186 49.0226 90.0209 50.6254 96.6411 55.0389C103.261 59.4523 107.857 66.3149 109.418 74.1169C110.978 81.9189 109.375 90.0212 104.962 96.6414L55.0386 63.3594Z" fill="#CD2E3A"/>
<path d="M55.0386 63.3598C50.6251 69.98 49.0223 78.0823 50.5827 85.8843C52.1431 93.6863 56.7389 100.549 63.3591 104.962C69.9793 109.376 78.0816 110.979 85.8836 109.418C93.6856 107.858 100.548 103.262 104.962 96.6418C107.168 93.3317 107.97 89.2805 107.19 85.3795C106.409 81.4786 104.111 78.0473 100.801 75.8405C97.4913 73.6338 93.4401 72.8324 89.5391 73.6126C85.6381 74.3928 82.2068 76.6907 80.0001 80.0008L55.0386 63.3598Z" fill="#0047A0"/>
<path d="M80 80.0001C84.5953 73.1072 82.7327 63.7941 75.8398 59.1988C68.9468 54.6036 59.6338 56.4662 55.0385 63.3591C50.4432 70.252 52.3058 79.5651 59.1988 84.1603C66.0917 88.7556 75.4047 86.893 80 80.0001Z" fill="#CD2E3A"/>
<path d="M34.2374 128.536L17.5964 103.575L21.7567 100.801L38.3977 125.763L34.2374 128.536ZM40.4778 124.376L23.8368 99.4144L27.9971 96.6409L44.6381 121.602L40.4778 124.376ZM46.7182 120.216L30.0772 95.2541L34.2374 92.4806L50.8784 117.442L46.7182 120.216Z" fill="black"/>
<path d="M125.763 67.5186L109.122 42.557L113.282 39.7835L129.923 64.7451L125.763 67.5186ZM132.003 63.3583L115.362 38.3968L119.523 35.6233L136.164 60.5848L132.003 63.3583ZM138.244 59.1981L121.603 34.2365L125.763 31.463L142.404 56.4245L138.244 59.1981Z" fill="black"/>
<path fill-rule="evenodd" clip-rule="evenodd" d="M38.051 109.469L31.8107 113.629L30.4239 111.549L36.6643 107.389L38.051 109.469ZM123.336 52.6119L116.056 57.4655L114.669 55.3854L121.949 50.5318L123.336 52.6119ZM135.817 44.2914L129.577 48.4516L128.19 46.3715L134.43 42.2113L135.817 44.2914Z" fill="white"/>
<path fill-rule="evenodd" clip-rule="evenodd" d="M80 156C121.974 156 156 121.974 156 80C156 38.0264 121.974 4 80 4C38.0264 4 4 38.0264 4 80C4 121.974 38.0264 156 80 156ZM80 160C124.183 160 160 124.183 160 80C160 35.8172 124.183 0 80 0C35.8172 0 0 35.8172 0 80C0 124.183 35.8172 160 80 160Z" fill="black" fill-opacity="0.15"/>
</g>
<defs>
<clipPath id="clip0_1_15730">
<rect width="160" height="160" rx="80" fill="white"/>
</clipPath>
</defs>
</svg>
