<svg width="160" height="160" viewBox="0 0 160 160" fill="none" xmlns="http://www.w3.org/2000/svg">
<g clip-path="url(#clip0_1_15700)">
<g clip-path="url(#clip1_1_15700)">
<path d="M-40 0H200V160H-40V0Z" fill="#E70013"/>
<path d="M80 120C102.091 120 120 102.091 120 80C120 57.9086 102.091 40 80 40C57.9086 40 40 57.9086 40 80C40 102.091 57.9086 120 80 120Z" fill="white"/>
<path d="M80 110C96.5685 110 110 96.5685 110 80C110 63.4315 96.5685 50 80 50C63.4315 50 50 63.4315 50 80C50 96.5685 63.4315 110 80 110Z" fill="#E70013"/>
<path d="M88 104C101.255 104 112 93.2548 112 80C112 66.7452 101.255 56 88 56C74.7452 56 64 66.7452 64 80C64 93.2548 74.7452 104 88 104Z" fill="white"/>
<path d="M70 79.9999L102.562 69.4199L82.44 97.1199V62.8799L102.56 90.5799L70 79.9999Z" fill="#E70013"/>
</g>
<path fill-rule="evenodd" clip-rule="evenodd" d="M80 156C121.974 156 156 121.974 156 80C156 38.0264 121.974 4 80 4C38.0264 4 4 38.0264 4 80C4 121.974 38.0264 156 80 156ZM80 160C124.183 160 160 124.183 160 80C160 35.8172 124.183 0 80 0C35.8172 0 0 35.8172 0 80C0 124.183 35.8172 160 80 160Z" fill="black" fill-opacity="0.15"/>
</g>
<defs>
<clipPath id="clip0_1_15700">
<rect width="160" height="160" rx="80" fill="white"/>
</clipPath>
<clipPath id="clip1_1_15700">
<rect width="240" height="160" fill="white" transform="translate(-40)"/>
</clipPath>
</defs>
</svg>
