<svg width="160" height="160" viewBox="0 0 160 160" fill="none" xmlns="http://www.w3.org/2000/svg">
<g clip-path="url(#clip0_1_15726)">
<g clip-path="url(#clip1_1_15726)">
<path d="M-9 0H231V160H-9V0Z" fill="white"/>
<path d="M79.8889 17.7773H231V35.5551H79.8889V17.7773Z" fill="#0038A8"/>
<path d="M79.8889 53.333H231V71.1108H79.8889V53.333Z" fill="#0038A8"/>
<path d="M-9 88.8887H231V106.666H-9V88.8887Z" fill="#0038A8"/>
<path d="M-9 124.444H231V142.222H-9V124.444Z" fill="#0038A8"/>
<path d="M33.4318 53.1357L36.3743 57.5296C24.2832 66.2797 31.665 71.454 23.0964 74.2549C28.4257 69.054 22.392 68.2518 26.8822 57.4116" fill="#FCD116"/>
<path fill-rule="evenodd" clip-rule="evenodd" d="M33.5122 52.7285L36.7753 57.601L36.5462 57.7668C33.5462 59.9378 31.7681 61.8768 30.6496 63.5998C29.532 65.3212 29.063 66.8414 28.6975 68.199C28.6569 68.35 28.6174 68.4997 28.5782 68.6481C28.2688 69.8211 27.9818 70.9088 27.3268 71.8567C26.5768 72.9421 25.3676 73.8206 23.1875 74.5332L21.9897 74.9247L22.8916 74.0446C24.2026 72.7651 24.7854 71.7845 25.021 70.8791C25.2584 69.9665 25.1546 69.096 25.0131 67.9846L25.0082 67.9468C24.8685 66.8504 24.7033 65.5543 24.8537 63.8589C25.0057 62.1441 25.479 60.0323 26.6112 57.299L26.7234 57.0281L27.2653 57.2525L27.1531 57.5234C26.0402 60.2102 25.5839 62.2638 25.4379 63.9107C25.2931 65.5428 25.4517 66.787 25.5911 67.8812L25.5948 67.9105C25.7343 69.0048 25.859 69.9875 25.5886 71.0268C25.3829 71.8173 24.9552 72.6212 24.1748 73.5366C25.5345 72.9472 26.3246 72.2755 26.8443 71.5233C27.4372 70.6654 27.6972 69.6832 28.0118 68.4951C28.0505 68.3488 28.0901 68.1993 28.1312 68.0466C28.5027 66.6668 28.9909 65.0777 30.1576 63.2804C31.2939 61.5301 33.0645 59.5961 35.9738 57.4583L33.0249 53.0549L33.5122 52.7285Z" fill="#7B3F00"/>
<path d="M27.8754 49.1673L26.8492 54.3549C12.1122 51.9925 13.6731 60.871 5.63375 56.7926C13.0797 56.8834 9.54868 51.9837 20.3889 47.4936" fill="#FCD116"/>
<path fill-rule="evenodd" clip-rule="evenodd" d="M28.2202 48.9364L27.0821 54.6893L26.8028 54.6445C23.1464 54.0583 20.5181 54.1721 18.5088 54.5995C16.5014 55.0265 15.0948 55.7698 13.8763 56.4714C13.7408 56.5494 13.607 56.6273 13.4744 56.7046C12.4262 57.3152 11.4541 57.8814 10.3207 58.0885C9.02287 58.3257 7.54658 58.0918 5.50115 57.0541L4.37701 56.4838L5.63744 56.4992C7.46821 56.5215 8.58499 56.2365 9.40837 55.7559C10.2385 55.2715 10.802 54.5727 11.5085 53.679L11.5433 53.6349C12.2379 52.7561 13.0564 51.7204 14.3698 50.628C15.7052 49.5172 17.5433 48.3547 20.2767 47.2225L20.5477 47.1102L20.7722 47.6522L20.5012 47.7645C17.8145 48.8774 16.0289 50.0111 14.745 51.079C13.4789 52.132 12.692 53.1277 11.9983 54.0053L11.9687 54.0428C11.2722 54.9239 10.6448 55.7136 9.70407 56.2626C8.98777 56.6807 8.10767 56.9503 6.90323 57.047C8.28189 57.592 9.31571 57.6758 10.2153 57.5114C11.241 57.324 12.1195 56.8133 13.1819 56.1957C13.3128 56.1196 13.4465 56.0419 13.5836 55.9629C14.822 55.25 16.2908 54.4715 18.3867 54.0257C20.4278 53.5915 23.0474 53.4759 26.6162 54.0215L27.6447 48.8226L28.2202 48.9364Z" fill="#7B3F00"/>
<path d="M27.8759 49.1677L25.5541 48.7494L25.578 48.8453C19.3837 50.3633 16.0203 52.9312 13.3859 54.8829C12.0681 55.8584 10.9311 56.6881 9.69805 57.1375C8.88141 57.4402 8.00485 57.5458 7.13968 57.4458C13.5342 59.7173 13.1108 52.1541 26.85 54.3563L27.8759 49.1677Z" fill="#7B3F00"/>
<path fill-rule="evenodd" clip-rule="evenodd" d="M28.0331 49.0607L26.956 54.5087L26.8289 54.4883C23.4058 53.9397 20.8717 54.0003 18.8972 54.361C16.9238 54.7214 15.5029 55.3826 14.3051 56.0441C13.9937 56.2162 13.6954 56.3895 13.4052 56.5581C12.5863 57.034 11.8317 57.4726 11.0269 57.7387C9.92232 58.1039 8.71929 58.1488 7.095 57.5718L5.98774 57.1785L7.15501 57.3135C7.99931 57.4111 8.85473 57.308 9.65166 57.0126L9.65235 57.0124C10.864 56.5708 11.9852 55.754 13.3065 54.7759M28.0331 49.0607L27.8995 49.0367L28.0331 49.0607ZM27.7186 49.2753L25.7334 48.9176L25.7398 48.9433L25.6098 48.9752C19.5871 50.4512 16.2553 52.9217 13.6517 54.8522C13.5892 54.8986 13.5271 54.9446 13.4654 54.9904C12.1511 55.9633 10.9985 56.8058 9.74409 57.263C9.23301 57.4525 8.69901 57.5665 8.15876 57.6032C9.25253 57.8435 10.1278 57.7548 10.9431 57.4852C11.7194 57.2285 12.4394 56.8102 13.2496 56.3395C13.5441 56.1683 13.8506 55.9902 14.176 55.8105C15.3891 55.1405 16.8381 54.4657 18.8493 54.0984C20.8346 53.7358 23.3614 53.6738 26.744 54.2046L27.7186 49.2753ZM25.4162 48.7481L25.3748 48.5817L27.8995 49.0367M25.4162 48.7481C19.4231 50.2404 16.0857 52.7151 13.4938 54.637C13.4309 54.6836 13.3685 54.7299 13.3065 54.7759" fill="#7B3F00"/>
<path fill-rule="evenodd" clip-rule="evenodd" d="M13.2174 54.2766C15.8334 52.3367 19.2753 49.7842 25.4379 48.2758L25.5774 48.8456C19.53 50.3258 16.1649 52.8212 13.5645 54.7496C13.5047 54.7939 13.4452 54.838 13.3862 54.8818C12.0777 55.8513 10.924 56.6904 9.69902 57.1376C8.45369 57.5922 7.147 57.6392 5.53612 57.0692L5.73183 56.5161C7.22123 57.0431 8.38739 56.9919 9.49783 56.5865C10.6286 56.1737 11.7136 55.3909 13.0369 54.4104C13.0967 54.3661 13.1568 54.3215 13.2174 54.2766Z" fill="#7B3F00"/>
<path d="M35.4444 44.4443L31.296 40.2959L12.6284 67.2602L39.5928 48.5926L35.4444 44.4443L12.6284 67.2602Z" fill="#FCD116"/>
<path fill-rule="evenodd" clip-rule="evenodd" d="M31.2549 39.8398L40.0485 48.6335L11.4692 68.4191L31.2549 39.8398ZM35.0297 44.444L31.3371 40.7515L14.7206 64.753L35.0297 44.444ZM15.1353 65.1677L35.4444 44.8587L39.1369 48.5513L15.1353 65.1677Z" fill="#7B3F00"/>
<path d="M26.7528 42.4316L22.359 45.3741C13.6089 33.283 8.43455 40.6648 5.63371 32.0962C10.8346 37.4255 11.6866 31.4017 22.5267 35.8919" fill="#FCD116"/>
<path fill-rule="evenodd" clip-rule="evenodd" d="M27.1597 42.5122L22.2871 45.7753L22.1213 45.5462C19.9503 42.5462 18.0113 40.7682 16.2883 39.6496C14.5669 38.5321 13.0467 38.0631 11.6891 37.6976C11.5381 37.6569 11.3884 37.6174 11.24 37.5783C10.067 37.2688 8.97927 36.9819 8.03136 36.3269C6.94595 35.5769 6.06747 34.3675 5.35486 32.1875L4.96322 30.9894L5.84361 31.8915C7.12281 33.2023 8.10654 33.7858 9.01673 34.0224C9.93433 34.2609 10.8114 34.1581 11.9289 34.0178L11.9699 34.0127C13.0717 33.8743 14.373 33.7108 16.0713 33.8619C17.7907 34.0149 19.9056 34.4888 22.639 35.621L22.91 35.7332L22.6855 36.2753L22.4145 36.163C19.7278 35.0501 17.671 34.5932 16.0194 34.4463C14.3839 34.3007 13.1343 34.4577 12.0345 34.5958L12.002 34.5999C10.9014 34.7381 9.91281 34.8614 8.86916 34.5902C8.07504 34.3838 7.26835 33.9555 6.35155 33.1745C6.94098 34.5344 7.61267 35.3245 8.36487 35.8442C9.22276 36.437 10.205 36.6971 11.393 37.0116C11.5394 37.0504 11.6888 37.0899 11.8416 37.1311C13.2214 37.5025 14.8105 37.9907 16.6077 39.1575C18.358 40.2938 20.2921 42.0644 22.4299 44.9737L26.8333 42.0247L27.1597 42.5122Z" fill="#7B3F00"/>
<path d="M26.7523 42.4324L25.4065 40.4948L25.3555 40.5796C19.902 37.2729 15.708 36.7104 12.4652 36.2277C10.8435 35.9856 9.45289 35.7684 8.2632 35.2142C7.47171 34.8508 6.77719 34.3057 6.23617 33.6232C9.15156 39.751 14.2001 34.1036 22.3581 45.3758L26.7523 42.4324Z" fill="#7B3F00"/>
<path fill-rule="evenodd" clip-rule="evenodd" d="M26.9395 42.468L22.3256 45.5586L22.2501 45.4543C20.2176 42.6459 18.3828 40.8969 16.7317 39.7557C15.0814 38.6152 13.6091 38.078 12.2944 37.6988C11.9525 37.6002 11.619 37.5119 11.2946 37.4259C10.379 37.1834 9.53532 36.9599 8.77813 36.579C7.73878 36.0562 6.85635 35.2373 6.11581 33.6807L5.61098 32.6196L6.34092 33.5405C6.86889 34.2065 7.54665 34.7385 8.31905 35.0931L8.31972 35.0935C9.48869 35.638 10.8591 35.8532 12.485 36.0959M26.9395 42.468L26.8621 42.3565L26.9395 42.468ZM26.5654 42.3973L25.4147 40.7406L25.401 40.7634L25.2865 40.6939C19.9841 37.4789 15.8812 36.8699 12.6752 36.394C12.5982 36.3826 12.5217 36.3712 12.4457 36.3599C10.8284 36.1185 9.41766 35.8993 8.20734 35.3356C7.71202 35.1081 7.25378 34.8112 6.84585 34.4551C7.44928 35.3985 8.1309 35.9546 8.89808 36.3405C9.62849 36.7079 10.4334 36.9212 11.3391 37.1612C11.6685 37.2485 12.0111 37.3393 12.3683 37.4423C13.6999 37.8263 15.2015 38.3738 16.8834 39.5362C18.5437 40.6836 20.3742 42.4265 22.3907 45.1936L26.5654 42.3973ZM25.3102 40.3964L25.3986 40.2495L26.8621 42.3565M25.3102 40.3964C20.0171 37.2139 15.9075 36.6039 12.7156 36.1301C12.6382 36.1186 12.5613 36.1072 12.485 36.0959" fill="#7B3F00"/>
<path fill-rule="evenodd" clip-rule="evenodd" d="M12.7751 35.6795C15.9966 36.1576 20.2353 36.7865 25.6595 40.0775L25.3552 40.5791C20.0323 37.3496 15.8884 36.7346 12.6861 36.2594C12.6124 36.2485 12.5392 36.2376 12.4665 36.2268C10.8557 35.9871 9.44659 35.7646 8.26417 35.2147C7.06212 34.6556 6.10492 33.7648 5.36894 32.2227L5.8984 31.97C6.57888 33.3958 7.43974 34.1842 8.51159 34.6827C9.60307 35.1904 10.9238 35.4041 12.5528 35.6465C12.6264 35.6575 12.7004 35.6685 12.7751 35.6795Z" fill="#7B3F00"/>
<path d="M35.4443 44.4438V38.5771L3.17767 44.4438L35.4443 50.3105V44.4438H3.17767H35.4443Z" fill="#FCD116"/>
<path fill-rule="evenodd" clip-rule="evenodd" d="M35.7375 38.2266V50.6628L1.53777 44.4447L35.7375 38.2266ZM35.1509 38.9295L6.43067 44.1514H35.1509V38.9295ZM35.1509 44.738H6.43067L35.1509 49.9599V44.738Z" fill="#7B3F00"/>
<path d="M35.4443 44.4443V50.311V44.4443H3.17767L35.4443 50.311" fill="#7B3F00"/>
<path d="M30.7216 36.8754L25.534 35.8492C27.8965 21.1122 19.018 22.6731 23.0963 14.6338C23.0055 22.0797 28.1567 19.1441 32.6468 29.9843" fill="#FCD116"/>
<path fill-rule="evenodd" clip-rule="evenodd" d="M30.9525 37.2202L25.1997 36.0821L25.2445 35.8028C25.8306 32.1464 25.7168 29.5181 25.2894 27.5088C24.8624 25.5014 24.1191 24.0948 23.4176 22.8763C23.3396 22.7408 23.2616 22.607 23.1844 22.4744C22.5738 21.4262 22.0075 20.4541 21.8004 19.3207C21.5632 18.0229 21.7972 16.5466 22.8348 14.5012L23.4051 13.377L23.3897 14.6374C23.3674 16.4648 23.667 17.6211 24.1734 18.5032C24.6842 19.3931 25.4195 20.0323 26.3431 20.8122C26.3712 20.8359 26.3994 20.8598 26.4278 20.8837C28.2728 22.4409 30.6821 24.4743 32.9179 29.8722L33.0302 30.1432L32.4882 30.3677L32.3759 30.0967C30.1943 24.8298 27.8662 22.8652 26.0592 21.3403C26.0275 21.3136 25.996 21.2869 25.9646 21.2604C25.0505 20.4885 24.2343 19.7879 23.6646 18.7953C23.2289 18.0364 22.9452 17.123 22.8437 15.8987C22.2971 17.2796 22.213 18.3147 22.3775 19.2153C22.565 20.241 23.0756 21.1195 23.6933 22.1819C23.7694 22.3128 23.8471 22.4465 23.926 22.5836C24.639 23.822 25.4174 25.2908 25.8633 27.3867C26.2974 29.4278 26.413 32.0474 25.8675 35.6162L31.0664 36.6447L30.9525 37.2202Z" fill="#7B3F00"/>
<path d="M30.7207 36.8759L31.1391 34.5541L31.0431 34.578C29.5251 28.3837 26.9572 25.0203 25.0056 22.3859C24.03 21.0681 23.2003 19.9311 22.7509 18.698C22.4482 17.8814 22.3426 17.0048 22.4426 16.1397C20.1711 22.5342 27.7343 22.1108 25.5322 35.85L30.7207 36.8759Z" fill="#7B3F00"/>
<path fill-rule="evenodd" clip-rule="evenodd" d="M30.8282 37.0331L25.3802 35.956L25.4006 35.8289C25.9493 32.4058 25.8886 29.8717 25.5279 27.8972C25.1675 25.9238 24.5063 24.5029 23.8448 23.3051C23.6727 22.9937 23.4994 22.6954 23.3308 22.4052C22.8549 21.5863 22.4164 20.8317 22.1503 20.0269C21.785 18.9223 21.7401 17.7193 22.3171 16.095L22.7104 14.9877L22.5754 16.155C22.4778 16.9993 22.5809 17.8547 22.8763 18.6517L22.8765 18.6523C23.3181 19.864 24.135 20.9852 25.113 22.3065M30.8282 37.0331L30.8523 36.8995L30.8282 37.0331ZM30.6136 36.7186L30.9714 34.7334L30.9456 34.7398L30.9137 34.6098C29.4378 28.5871 26.9672 25.2553 25.0367 22.6517C24.9903 22.5892 24.9443 22.5271 24.8985 22.4654C23.9256 21.1511 23.0831 19.9985 22.6259 18.7441C22.4365 18.233 22.3224 17.699 22.2858 17.1588C22.0454 18.2525 22.1341 19.1278 22.4037 19.9431C22.6604 20.7194 23.0787 21.4394 23.5495 22.2496C23.7206 22.5441 23.8987 22.8506 24.0784 23.176C24.7484 24.3891 25.4232 25.8381 25.7905 27.8493C26.1531 29.8346 26.2151 32.3614 25.6843 35.744L30.6136 36.7186ZM31.1409 34.4162L31.3072 34.3748L30.8523 36.8995M31.1409 34.4162C29.6485 28.4231 27.1738 25.0857 25.2519 22.4938C25.2053 22.4309 25.159 22.3685 25.113 22.3065" fill="#7B3F00"/>
<path fill-rule="evenodd" clip-rule="evenodd" d="M25.6126 22.2171C27.5525 24.8331 30.105 28.2751 31.6134 34.4377L31.0436 34.5771C29.5633 28.5297 27.068 25.1647 25.1396 22.5643C25.0952 22.5044 25.0512 22.445 25.0074 22.3859C24.0379 21.0774 23.1988 19.9238 22.7516 18.6988C22.297 17.4534 22.25 16.1468 22.82 14.5359L23.3731 14.7316C22.846 16.221 22.8973 17.3871 23.3027 18.4976C23.7155 19.6284 24.4983 20.7134 25.4788 22.0367C25.523 22.0964 25.5676 22.1566 25.6126 22.2171Z" fill="#7B3F00"/>
<path d="M35.4442 44.4443L39.5925 40.2959L12.6282 21.6283L31.2958 48.5926L35.4442 44.4443L12.6282 21.6283L35.4442 44.4443Z" fill="#FCD116"/>
<path fill-rule="evenodd" clip-rule="evenodd" d="M40.0486 40.2549L31.2548 49.0487L11.4688 20.4689L40.0486 40.2549ZM39.1367 40.3371L15.136 23.7213L35.4443 44.0295L39.1367 40.3371ZM35.0294 44.4444L14.7212 24.1361L31.337 48.1368L35.0294 44.4444Z" fill="#7B3F00"/>
<path d="M35.4443 44.4443L31.296 48.5927L35.4443 44.4443L12.6284 21.6284L31.296 48.5927" fill="#7B3F00"/>
<path d="M37.457 35.7528L34.5145 31.3589C46.6056 22.6088 39.2238 17.4345 47.7924 14.6337C42.4631 19.8346 48.466 20.6923 43.9758 31.5324" fill="#FCD116"/>
<path fill-rule="evenodd" clip-rule="evenodd" d="M37.3764 36.1599L34.1133 31.2873L34.3424 31.1215C37.3424 28.9505 39.1205 27.0115 40.239 25.2885C41.3565 23.5671 41.8255 22.0469 42.1911 20.6893C42.2317 20.5383 42.2712 20.3886 42.3103 20.2402C42.6198 19.0672 42.9067 17.9795 43.5617 17.0316C44.3118 15.9461 45.5211 15.0677 47.7011 14.3551L48.8993 13.9634L47.9971 14.8438C46.6863 16.123 46.1013 17.1073 45.8628 18.0183C45.6224 18.9366 45.7228 19.8146 45.8604 20.9327L45.866 20.9777C46.0017 22.0792 46.1619 23.38 46.009 25.0767C45.8541 26.7965 45.3789 28.9116 44.2467 31.6449L44.1345 31.9159L43.5925 31.6914L43.7047 31.4204C44.8176 28.7336 45.2759 26.6765 45.4247 25.0241C45.572 23.3899 45.4181 22.1405 45.2827 21.041L45.2782 21.0044C45.1425 19.9029 45.022 18.9138 45.2953 17.8698C45.5032 17.0755 45.9325 16.2687 46.7138 15.3519C45.3541 15.9413 44.5641 16.6129 44.0444 17.3651C43.4516 18.223 43.1915 19.2052 42.877 20.3932C42.8382 20.5396 42.7987 20.689 42.7575 20.8418C42.3861 22.2216 41.8979 23.8107 40.7311 25.6079C39.5948 27.3582 37.8242 29.2923 34.9149 31.4301L37.8639 35.8335L37.3764 36.1599Z" fill="#7B3F00"/>
<path d="M37.456 35.7531L39.3936 34.4072L39.3089 34.3562C42.6155 28.9028 43.178 24.7087 43.6608 21.4659C43.9028 19.8443 44.12 18.4536 44.6742 17.2639C45.0376 16.4724 45.5827 15.7779 46.2653 15.2369C40.1374 18.1523 45.7848 23.2009 34.5126 31.3588L37.456 35.7531Z" fill="#7B3F00"/>
<path fill-rule="evenodd" clip-rule="evenodd" d="M37.4207 35.9395L34.3301 31.3256L34.4344 31.2501C37.2428 29.2176 38.9918 27.3828 40.1329 25.7317C41.2735 24.0814 41.8107 22.6091 42.1899 21.2944C42.2885 20.9525 42.3768 20.619 42.4628 20.2946C42.7053 19.379 42.9288 18.5353 43.3097 17.7781C43.8325 16.7388 44.6514 15.8564 46.2079 15.1158L47.269 14.611L46.3482 15.3409C45.6821 15.8689 45.1502 16.5467 44.7955 17.3191L44.7952 17.3197C44.2507 18.4887 44.0355 19.8591 43.7928 21.485M37.4207 35.9395L37.5322 35.8621L37.4207 35.9395ZM37.4914 35.5654L39.1481 34.4147L39.1253 34.401L39.1948 34.2865C42.4098 28.9841 43.0188 24.8812 43.4947 21.6752C43.5061 21.5982 43.5175 21.5217 43.5288 21.4457C43.7702 19.8284 43.9894 18.4177 44.5531 17.2073C44.7806 16.712 45.0775 16.2538 45.4336 15.8458C44.4902 16.4493 43.934 17.1309 43.5481 17.8981C43.1807 18.6285 42.9674 19.4334 42.7274 20.3391C42.6402 20.6685 42.5494 21.0111 42.4463 21.3683C42.0623 22.6999 41.5149 24.2015 40.3525 25.8834C39.2051 27.5437 37.4622 29.3742 34.695 31.3907L37.4914 35.5654ZM39.4922 34.3102L39.6391 34.3986L37.5322 35.8621M39.4922 34.3102C42.6748 29.0171 43.2848 24.9075 43.7585 21.7156C43.77 21.6382 43.7814 21.5613 43.7928 21.485" fill="#7B3F00"/>
<path fill-rule="evenodd" clip-rule="evenodd" d="M44.2091 21.7755C43.7311 24.997 43.1022 29.2358 39.8112 34.66L39.3096 34.3557C42.5391 29.0328 43.154 24.8889 43.6292 21.6866C43.6402 21.6129 43.651 21.5397 43.6619 21.467C43.9016 19.8561 44.124 18.4471 44.674 17.2647C45.2331 16.0626 46.1238 15.1054 47.666 14.3694L47.9187 14.8989C46.4928 15.5794 45.7045 16.4402 45.2059 17.5121C44.6983 18.6036 44.4845 19.9243 44.2421 21.5533C44.2312 21.6269 44.2202 21.7009 44.2091 21.7755Z" fill="#7B3F00"/>
<path d="M35.4444 44.4443H41.311L35.4444 12.1777L29.5777 44.4443H35.4444V12.1777V44.4443Z" fill="#FCD116"/>
<path fill-rule="evenodd" clip-rule="evenodd" d="M41.6624 44.7383H29.2261L35.4442 10.5385L41.6624 44.7383ZM40.9594 44.1516L35.7375 15.4314V44.1516H40.9594ZM35.1509 44.1516V15.4314L29.929 44.1516H35.1509Z" fill="#7B3F00"/>
<path d="M35.4443 44.4443H29.5777H35.4443V12.1777L29.5777 44.4443" fill="#7B3F00"/>
<path d="M43.0132 39.7223L44.0394 34.5347C58.7764 36.8971 57.2155 28.0186 65.2548 32.097C57.8089 32.0062 61.1261 36.9304 50.2859 41.4206" fill="#FCD116"/>
<path fill-rule="evenodd" clip-rule="evenodd" d="M42.6684 39.9532L43.8065 34.2003L44.0858 34.2451C47.7422 34.8313 50.3705 34.7175 52.3798 34.2901C54.3872 33.8631 55.7938 33.1198 57.0123 32.4182C57.1478 32.3402 57.2816 32.2623 57.4142 32.1851C58.4624 31.5744 59.4345 31.0082 60.5679 30.8011C61.8657 30.5639 63.342 30.7978 65.3874 31.8355L66.5116 32.4058L65.2512 32.3904C63.4211 32.3681 62.2896 32.6544 61.4448 33.1386C60.5933 33.6268 60.0028 34.3308 59.2702 35.2267C59.252 35.2489 59.2338 35.2712 59.2154 35.2937C58.4991 36.17 57.6577 37.1993 56.337 38.2835C54.9821 39.3957 53.1313 40.5595 50.3981 41.6917L50.1271 41.8039L49.9026 41.2619L50.1736 41.1497C52.8605 40.0367 54.66 38.9012 55.9647 37.8301C57.24 36.7831 58.0504 35.7918 58.7662 34.9163C58.7829 34.8959 58.7995 34.8756 58.816 34.8553C59.5399 33.9702 60.1937 33.1796 61.1531 32.6297C61.8841 32.2106 62.7753 31.9397 63.9855 31.8426C62.6068 31.2976 61.5729 31.2138 60.6733 31.3782C59.6476 31.5656 58.7691 32.0763 57.7067 32.6939C57.5758 32.77 57.4421 32.8477 57.305 32.9267C56.0666 33.6396 54.5978 34.4181 52.5019 34.8639C50.4608 35.2981 47.8412 35.4137 44.2724 34.8682L43.2439 40.067L42.6684 39.9532Z" fill="#7B3F00"/>
<path d="M43.0128 39.7219L45.3345 40.1403L45.3107 40.0443C51.505 38.5263 54.8684 35.9584 57.5028 34.0068C58.8206 33.0312 59.9575 32.2015 61.1906 31.7521C62.0073 31.4494 62.8838 31.3438 63.749 31.4438C57.3545 29.1723 57.7779 36.7355 44.0387 34.5334L43.0128 39.7219Z" fill="#7B3F00"/>
<path fill-rule="evenodd" clip-rule="evenodd" d="M42.8556 39.8289L43.9327 34.381L44.0598 34.4013C47.4829 34.95 50.017 34.8893 51.9914 34.5287C53.9648 34.1683 55.3858 33.5071 56.5836 32.8455C56.895 32.6735 57.1933 32.5001 57.4835 32.3315C58.3024 31.8556 59.057 31.4171 59.8617 31.151C60.9663 30.7857 62.1694 30.7408 63.7937 31.3178L64.9009 31.7112L63.7337 31.5762C62.8894 31.4785 62.0339 31.5816 61.237 31.877L61.2363 31.8773C60.0247 32.3188 58.9034 33.1357 57.5822 34.1138M42.8556 39.8289L42.9891 39.853L42.8556 39.8289ZM43.1701 39.6144L45.1552 39.9721L45.1488 39.9463L45.2789 39.9144C51.3016 38.4385 54.6334 35.968 57.2369 34.0374C57.2995 33.9911 57.3616 33.945 57.4233 33.8993C58.7376 32.9263 59.8902 32.0838 61.1446 31.6266C61.6557 31.4372 62.1897 31.3232 62.7299 31.2865C61.6361 31.0461 60.7609 31.1348 59.9455 31.4044C59.1693 31.6611 58.4493 32.0795 57.6391 32.5502C57.3446 32.7213 57.0381 32.8994 56.7126 33.0792C55.4996 33.7492 54.0506 34.4239 52.0394 34.7913C50.0541 35.1539 47.5273 35.2158 44.1447 34.6851L43.1701 39.6144ZM45.4725 40.1416L45.5139 40.308L42.9891 39.853M45.4725 40.1416C51.4656 38.6492 54.8029 36.1746 57.3949 34.2526C57.4577 34.206 57.5202 34.1597 57.5822 34.1138" fill="#7B3F00"/>
<path fill-rule="evenodd" clip-rule="evenodd" d="M57.6713 34.6131C55.0553 36.553 51.6133 39.1055 45.4508 40.6139L45.3113 40.0441C51.3587 38.5638 54.7238 36.0684 57.3242 34.1401C57.384 34.0957 57.4434 34.0516 57.5025 34.0079C58.811 33.0383 59.9647 32.1993 61.1897 31.7521C62.435 31.2974 63.7417 31.2505 65.3526 31.8205L65.1568 32.3736C63.6674 31.8465 62.5013 31.8978 61.3908 32.3032C60.2601 32.716 59.1751 33.4988 57.8517 34.4793C57.792 34.5235 57.7319 34.5681 57.6713 34.6131Z" fill="#7B3F00"/>
<path d="M35.4444 44.4444L39.5928 48.5928L58.2604 21.6284L31.2961 40.2961L35.4444 44.4444L58.2604 21.6284L35.4444 44.4444Z" fill="#FCD116"/>
<path fill-rule="evenodd" clip-rule="evenodd" d="M39.6338 49.0488L30.84 40.255L59.4198 20.469L39.6338 49.0488ZM39.5516 48.1369L56.1674 24.1363L35.8592 44.4445L39.5516 48.1369ZM35.4443 44.0297L55.7526 23.7214L31.7519 40.3373L35.4443 44.0297Z" fill="#7B3F00"/>
<path d="M35.4443 44.4443L31.296 40.296L35.4443 44.4443L58.2603 21.6284L31.296 40.296" fill="#7B3F00"/>
<path d="M44.1356 46.4569L48.5295 43.5144C57.2796 55.6055 62.4539 48.2237 65.2547 56.7922C60.0538 51.4629 59.0776 57.4263 48.2374 52.9362" fill="#FCD116"/>
<path fill-rule="evenodd" clip-rule="evenodd" d="M43.7287 46.3763L48.6013 43.1131L48.7672 43.3423C50.9382 46.3422 52.8771 48.1203 54.6002 49.2389C56.3215 50.3564 57.8418 50.8254 59.1994 51.1909C59.3504 51.2316 59.5001 51.2711 59.6484 51.3102C60.8215 51.6196 61.9092 51.9066 62.8571 52.5616C63.9425 53.3116 64.821 54.5209 65.5336 56.701L65.9252 57.8991L65.0448 56.997C63.7661 55.6867 62.7744 55.0987 61.8516 54.8564C60.9212 54.6122 60.0275 54.7081 58.895 54.8407L58.8393 54.8473C57.7257 54.9778 56.4134 55.1316 54.7114 54.9755C52.9809 54.8168 50.8586 54.3393 48.1252 53.2071L47.8542 53.0948L48.0787 52.5528L48.3497 52.6651C51.0364 53.7779 53.1011 54.2387 54.765 54.3913C56.4057 54.5418 57.6673 54.3939 58.7794 54.2636L58.8267 54.2581C59.9433 54.1273 60.9464 54.0122 62.0006 54.289C62.8033 54.4998 63.6169 54.9314 64.5372 55.7147C63.9477 54.3544 63.2759 53.5641 62.5236 53.0442C61.6657 52.4514 60.6835 52.1914 59.4954 51.8768C59.3491 51.8381 59.1996 51.7985 59.0469 51.7574C57.6671 51.3859 56.078 50.8977 54.2807 49.7309C52.5304 48.5947 50.5963 46.8241 48.4586 43.9148L44.0552 46.8637L43.7287 46.3763Z" fill="#7B3F00"/>
<path d="M44.1361 46.4563L45.482 48.3938L45.5329 48.3091C50.9864 51.6158 55.1804 52.1782 58.4232 52.661C60.0449 52.903 61.4355 53.1203 62.6252 53.6745C63.4167 54.0379 64.1112 54.583 64.6523 55.2655C61.7369 49.1377 56.6883 54.7851 48.5303 43.5128L44.1361 46.4563Z" fill="#7B3F00"/>
<path fill-rule="evenodd" clip-rule="evenodd" d="M43.9489 46.4207L48.5628 43.3301L48.6383 43.4344C50.6708 46.2428 52.5056 47.9918 54.1568 49.1329C55.807 50.2735 57.2793 50.8107 58.5941 51.1899C58.9359 51.2885 59.2694 51.3768 59.5939 51.4628C60.5094 51.7053 61.3531 51.9288 62.1103 52.3097C63.1496 52.8325 64.0321 53.6514 64.7726 55.2079L65.2774 56.269L64.5475 55.3482C64.0195 54.6821 63.3418 54.1502 62.5694 53.7955L62.5687 53.7952C61.3997 53.2507 60.0293 53.0355 58.4034 52.7928M43.9489 46.4207L44.0263 46.5322L43.9489 46.4207ZM44.323 46.4914L45.4738 48.1481L45.4875 48.1253L45.602 48.1948C50.9043 51.4098 55.0072 52.0188 58.2132 52.4947C58.2903 52.5061 58.3668 52.5175 58.4427 52.5288C60.06 52.7702 61.4708 52.9894 62.6811 53.5531C63.1764 53.7806 63.6346 54.0775 64.0426 54.4336C63.4391 53.4902 62.7575 52.934 61.9903 52.5481C61.2599 52.1807 60.455 51.9674 59.5493 51.7274C59.22 51.6402 58.8773 51.5494 58.5201 51.4463C57.1886 51.0623 55.6869 50.5149 54.005 49.3525C52.3448 48.2051 50.5142 46.4622 48.4977 43.695L44.323 46.4914ZM45.5782 48.4922L45.4899 48.6391L44.0263 46.5322M45.5782 48.4922C50.8713 51.6748 54.981 52.2848 58.1728 52.7585C58.2502 52.77 58.3271 52.7814 58.4034 52.7928" fill="#7B3F00"/>
<path fill-rule="evenodd" clip-rule="evenodd" d="M58.1134 53.2091C54.8919 52.7311 50.6531 52.1022 45.2289 48.8112L45.5332 48.3096C50.8561 51.5391 55 52.154 58.2024 52.6292C58.276 52.6402 58.3492 52.651 58.4219 52.6619C60.0328 52.9016 61.4418 53.124 62.6243 53.674C63.8263 54.2331 64.7835 55.1238 65.5195 56.666L64.99 56.9187C64.3095 55.4928 63.4487 54.7045 62.3768 54.2059C61.2854 53.6983 59.9646 53.4845 58.3356 53.2421C58.2621 53.2312 58.188 53.2202 58.1134 53.2091Z" fill="#7B3F00"/>
<path d="M35.4441 44.4439V50.3105L67.7108 44.4439L35.4441 38.5772V44.4439H67.7108H35.4441Z" fill="#FCD116"/>
<path fill-rule="evenodd" clip-rule="evenodd" d="M35.1509 50.6621V38.2258L69.3507 44.444L35.1509 50.6621ZM35.7375 49.9592L64.4578 44.7373H35.7375V49.9592ZM35.7375 44.1506H64.4578L35.7375 38.9288V44.1506Z" fill="#7B3F00"/>
<path d="M35.4443 44.4443V38.5777V44.4443H67.711L35.4443 38.5777" fill="#7B3F00"/>
<path d="M40.1669 52.0134L45.3545 53.0396C42.992 67.7766 51.8705 66.2157 47.7922 74.255C47.883 66.8091 42.9805 70.2576 38.4904 59.4174" fill="#FCD116"/>
<path fill-rule="evenodd" clip-rule="evenodd" d="M39.936 51.6686L45.6888 52.8067L45.644 53.086C45.0579 56.7424 45.1717 59.3707 45.5991 61.38C46.0261 63.3874 46.7694 64.794 47.4709 66.0125C47.5489 66.148 47.6269 66.2818 47.7041 66.4143C48.3147 67.4626 48.881 68.4347 49.0881 69.5681C49.3253 70.8659 49.0913 72.3422 48.0537 74.3876L47.4834 75.5118L47.4988 74.2514C47.5211 72.4208 47.2359 71.2983 46.7545 70.4666C46.2692 69.6282 45.5692 69.0543 44.6755 68.3378C44.6578 68.3236 44.64 68.3093 44.6221 68.295C43.7452 67.5921 42.7131 66.7647 41.6247 65.4488C40.514 64.1059 39.3514 62.2629 38.2193 59.5296L38.107 59.2586L38.649 59.0341L38.7613 59.3051C39.8742 61.9919 41.0082 63.7829 42.0768 65.0749C43.1266 66.3442 44.1196 67.1402 44.9954 67.8423L45.0425 67.8801C45.9244 68.5872 46.7136 69.2248 47.2623 70.1727C47.6801 70.8946 47.9499 71.7789 48.0466 72.9855C48.5916 71.6069 48.6754 70.5731 48.511 69.6735C48.3235 68.6477 47.8129 67.7693 47.1952 66.7068C47.1191 66.576 47.0414 66.4423 46.9625 66.3052C46.2495 65.0668 45.4711 63.598 45.0252 61.5021C44.5911 59.461 44.4755 56.8414 45.021 53.2726L39.8221 52.2441L39.936 51.6686Z" fill="#7B3F00"/>
<path d="M40.1677 52.0128L39.7494 54.3345L39.8453 54.3107C41.3633 60.505 43.9312 63.8684 45.8829 66.5028C46.8584 67.8206 47.6881 68.9575 48.1375 70.1906C48.4402 71.0073 48.5458 71.8838 48.4458 72.749C50.7173 66.3545 43.1541 66.7779 45.3563 53.0387L40.1677 52.0128Z" fill="#7B3F00"/>
<path fill-rule="evenodd" clip-rule="evenodd" d="M40.0605 51.8556L45.5084 52.9327L45.4881 53.0598C44.9394 56.4829 45.0001 59.017 45.3607 60.9914C45.7212 62.9648 46.3823 64.3858 47.0439 65.5836C47.2159 65.895 47.3893 66.1933 47.5579 66.4835C48.0338 67.3024 48.4723 68.057 48.7384 68.8617C49.1037 69.9663 49.1486 71.1694 48.5716 72.7937L48.1782 73.9009L48.3132 72.7337C48.4109 71.8894 48.3078 71.0339 48.0124 70.237L48.0121 70.2363C47.5706 69.0247 46.7537 67.9034 45.7756 66.5822M40.0605 51.8556L40.0364 51.9891L40.0605 51.8556ZM40.275 52.1701L39.9173 54.1552L39.9431 54.1488L39.975 54.2789C41.4509 60.3016 43.9215 63.6334 45.852 66.2369C45.8983 66.2995 45.9444 66.3616 45.9901 66.4233C46.9631 67.7376 47.8056 68.8902 48.2628 70.1446C48.4522 70.6557 48.5663 71.1897 48.6029 71.7299C48.8433 70.6361 48.7546 69.7609 48.485 68.9455C48.2283 68.1693 47.81 67.4493 47.3392 66.6391C47.1681 66.3446 46.99 66.0381 46.8102 65.7126C46.1402 64.4996 45.4655 63.0506 45.0981 61.0394C44.7355 59.0541 44.6736 56.5273 45.2043 53.1447L40.275 52.1701ZM39.7478 54.4725L39.5815 54.5139L40.0364 51.9891M39.7478 54.4725C41.2402 60.4656 43.7148 63.8029 45.6368 66.3949C45.6834 66.4577 45.7297 66.5202 45.7756 66.5822" fill="#7B3F00"/>
<path fill-rule="evenodd" clip-rule="evenodd" d="M45.2761 66.6715C43.3362 64.0556 40.7837 60.6136 39.2753 54.451L39.8451 54.3115C41.3253 60.359 43.8207 63.724 45.7491 66.3244C45.7934 66.3842 45.8375 66.4437 45.8813 66.5027C46.8508 67.8113 47.6899 68.9649 48.1371 70.1899C48.5917 71.4352 48.6387 72.7419 48.0687 74.3528L47.5156 74.1571C48.0427 72.6677 47.9914 71.5015 47.586 70.3911C47.1732 69.2603 46.3904 68.1753 45.4099 66.852C45.3656 66.7923 45.321 66.7321 45.2761 66.6715Z" fill="#7B3F00"/>
<path d="M35.4443 44.4444L31.2959 48.5928L58.2602 67.2604L39.5926 40.2961L35.4443 44.4444L58.2602 67.2604L35.4443 44.4444Z" fill="#FCD116"/>
<path fill-rule="evenodd" clip-rule="evenodd" d="M30.8401 48.6338L39.6339 39.84L59.4199 68.4198L30.8401 48.6338ZM31.752 48.5516L55.7527 65.1674L35.4444 44.8592L31.752 48.5516ZM35.8592 44.4443L56.1675 64.7526L39.5516 40.7519L35.8592 44.4443Z" fill="#7B3F00"/>
<path d="M35.4443 44.4443L39.5927 40.296L35.4443 44.4443L58.2603 67.2603L39.5927 40.296" fill="#7B3F00"/>
<path d="M33.4325 53.1357L31.495 54.4816L31.5797 54.5326C28.273 59.986 27.7106 64.1801 27.2278 67.4229C26.9857 69.0445 26.7685 70.4352 26.2143 71.6249C25.8509 72.4164 25.3058 73.1109 24.6233 73.6519C30.7511 70.7365 25.1037 65.6879 36.3759 57.53L33.4325 53.1357Z" fill="#7B3F00"/>
<path fill-rule="evenodd" clip-rule="evenodd" d="M33.4678 52.9492L36.5584 57.5631L36.4542 57.6385C33.6457 59.671 31.8968 61.5058 30.7556 63.157C29.6151 64.8073 29.0778 66.2796 28.6987 67.5943C28.6001 67.9362 28.5117 68.2697 28.4258 68.5941C28.1832 69.5097 27.9597 70.3534 27.5789 71.1106C27.0561 72.1499 26.2371 73.0323 24.6806 73.7729L23.6199 74.2775L24.5404 73.5478C25.2065 73.0198 25.7384 72.3421 26.0931 71.5697L26.0934 71.569C26.6379 70.4 26.8532 69.0295 27.0958 67.4037C27.1072 67.3273 27.1186 67.2505 27.1301 67.1731C27.6038 63.9812 28.2138 59.8716 31.3964 54.5785L31.2495 54.4901L33.4678 52.9492ZM31.7404 54.474L31.7632 54.4877L31.6938 54.6022C28.4787 59.9046 27.8697 64.0075 27.3938 67.2135C27.3824 67.2905 27.3711 67.367 27.3597 67.443C27.1184 69.0603 26.8991 70.471 26.3354 71.6813C26.1079 72.1768 25.8109 72.6351 25.4547 73.0431C26.3983 72.4396 26.9545 71.7579 27.3405 70.9906C27.7079 70.2602 27.9212 69.4553 28.1612 68.5496C28.2485 68.2203 28.3392 67.8776 28.4423 67.5204C28.8263 66.1889 29.3737 64.6872 30.5361 63.0053C31.6835 61.3451 33.4264 59.5145 36.1936 57.498L33.3972 53.3232L31.7404 54.474Z" fill="#7B3F00"/>
<path fill-rule="evenodd" clip-rule="evenodd" d="M26.6796 67.1139C27.1576 63.8924 27.7865 59.6537 31.0775 54.2295L31.5789 54.5337C28.3494 59.8566 27.7345 64.0005 27.2593 67.2029C27.2483 67.2765 27.2375 67.3497 27.2266 67.4224C26.9869 69.0333 26.7645 70.4423 26.2145 71.6247C25.6554 72.8268 24.7647 73.7839 23.2226 74.5199L22.97 73.9906C24.3958 73.3101 25.1842 72.4493 25.6827 71.3774C26.1904 70.2859 26.4041 68.9652 26.6465 67.3361C26.6575 67.2626 26.6685 67.1885 26.6796 67.1139Z" fill="#7B3F00"/>
<path d="M35.4443 44.4443H29.5776L35.4443 76.711L41.311 44.4443H35.4443V76.711V44.4443Z" fill="#FCD116"/>
<path fill-rule="evenodd" clip-rule="evenodd" d="M29.2261 44.1514H41.6621L35.4441 78.3506L29.2261 44.1514ZM29.9288 44.7379L35.1509 73.4592V44.7379H29.9288ZM35.7374 44.7379V73.4592L40.9594 44.7379H35.7374Z" fill="#7B3F00"/>
<path d="M35.4443 44.4443H41.311H35.4443V76.711L41.311 44.4443" fill="#7B3F00"/>
<path d="M35.4444 44.4443L39.5928 48.5927L35.4444 44.4443L12.6284 67.2603L39.5928 48.5927" fill="#7B3F00"/>
<path d="M35.4442 55.1994C41.3842 55.1994 46.1996 50.384 46.1996 44.4439C46.1996 38.5038 41.3842 33.6885 35.4442 33.6885C29.5041 33.6885 24.6887 38.5038 24.6887 44.4439C24.6887 50.384 29.5041 55.1994 35.4442 55.1994Z" fill="#FCD116"/>
<path fill-rule="evenodd" clip-rule="evenodd" d="M35.4442 33.982C29.6661 33.982 24.982 38.6661 24.982 44.4442C24.982 50.2223 29.6661 54.9064 35.4442 54.9064C41.2223 54.9064 45.9064 50.2223 45.9064 44.4442C45.9064 38.6661 41.2223 33.982 35.4442 33.982ZM24.3955 44.4442C24.3955 38.3422 29.3422 33.3955 35.4442 33.3955C41.5462 33.3955 46.4929 38.3422 46.4929 44.4442C46.4929 50.5462 41.5462 55.4929 35.4442 55.4929C29.3422 55.4929 24.3955 50.5462 24.3955 44.4442Z" fill="#7B3F00"/>
<path d="M43.3642 40.1421C42.6797 40.9243 42.2886 39.5554 39.8442 39.5554C37.3997 39.5554 37.0086 41.0221 36.6175 40.7287C36.2264 40.4354 38.6708 38.6754 39.4531 38.5776C40.2353 38.4798 42.4842 39.2621 43.3642 40.1421ZM40.5286 41.0221C41.2131 41.6087 40.6264 42.8798 39.942 42.8798C39.2575 42.8798 37.9864 41.7065 38.5731 40.9243" fill="#7B3F00"/>
<path d="M37.302 41.9021C37.3998 40.7288 38.3776 40.5332 39.942 40.5332C41.5064 40.5332 42.1909 41.7065 42.7776 41.9999C42.0931 41.9999 41.5064 41.0221 39.942 41.0221C38.3776 41.0221 38.3776 41.0221 37.302 41.9999M37.5953 42.1954C37.9864 41.6088 38.4753 42.7821 39.5509 42.7821C40.6264 42.7821 41.2131 42.4888 41.8976 41.9999C42.582 41.511 40.9198 43.1732 39.8442 43.1732C38.7687 43.1732 37.302 42.5865 37.5953 42.1954Z" fill="#7B3F00"/>
<path d="M29.9685 40.9248C29.4796 41.1204 28.6974 42.098 29.9685 42.7824C28.9907 42.098 29.7729 41.1204 29.9685 40.9248Z" fill="#7B3F00"/>
<path d="M40.9199 40.9248C41.1155 41.1204 41.8977 42.098 40.9199 42.7824C42.191 42.098 41.4088 41.1204 40.9199 40.9248Z" fill="#7B3F00"/>
<path d="M33.8796 45.1289C32.9996 45.3245 33.2928 46.5956 32.5106 46.6934C31.7284 46.7912 31.3374 47.6711 31.4352 47.5734C31.9241 47.1822 32.9997 46.8888 33.7819 46.8888C34.5641 46.8888 34.7597 47.3779 35.4441 47.3779C36.1286 47.3779 36.3241 46.8888 37.1063 46.8888C37.8885 46.8888 38.9642 47.1822 39.453 47.5734C39.5508 47.6711 39.1599 46.7912 38.3776 46.6934C37.5954 46.5956 37.8886 45.3245 37.0086 45.1289C37.0086 45.52 37.3017 45.4222 37.3995 46.0089C37.3995 46.4978 36.5196 46.4978 36.3241 46.0089C36.5196 46.7911 35.933 46.7911 35.4441 46.7911C34.9552 46.7911 34.3686 46.7911 34.5642 46.0089C34.3686 46.4978 33.4888 46.4978 33.4888 46.0089C33.5865 45.4222 33.8796 45.52 33.8796 45.1289Z" fill="#7B3F00"/>
<path d="M30.8483 48.4531C30.0661 49.0398 29.8707 49.3332 29.7729 50.0176C30.0075 49.6072 30.1226 49.4385 30.3007 49.1972C30.2536 49.1769 30.2131 49.1583 30.1643 49.1377C30.2212 49.1444 30.2722 49.1533 30.327 49.161C30.4453 49.0013 30.5503 48.8629 30.8483 48.4532V48.4531Z" fill="#7B3F00"/>
<path d="M30.3271 49.1611C30.3243 49.165 30.3174 49.1743 30.3147 49.178C30.4369 49.2064 30.5666 49.2197 30.7026 49.2202C30.5831 49.199 30.4576 49.1794 30.3271 49.1611H30.3271Z" fill="#7B3F00"/>
<path d="M30.7026 49.22C31.3124 49.3276 31.7911 49.4679 32.2299 49.6099C32.7772 49.5694 33.5321 49.4308 35.4442 49.4308C37.3563 49.4308 38.1112 49.5694 38.6585 49.6099C39.0973 49.4679 39.576 49.3276 40.1858 49.22C39.1083 49.2238 37.6722 48.4531 37.0087 48.4531C36.2265 48.4531 36.0309 48.6486 35.4442 48.6486C34.8575 48.6486 34.6619 48.4531 33.8797 48.4531C33.2162 48.4531 31.7801 49.2239 30.7026 49.22Z" fill="#7B3F00"/>
<path d="M40.1858 49.2202C40.3218 49.2196 40.4515 49.2064 40.5737 49.178C40.5709 49.1742 40.5641 49.165 40.5613 49.1611C40.4308 49.1794 40.3052 49.199 40.1858 49.2202H40.1858Z" fill="#7B3F00"/>
<path d="M40.5611 49.161C40.6159 49.1533 40.6669 49.1448 40.7238 49.1377C40.6751 49.1583 40.6345 49.1769 40.5874 49.1972C40.7655 49.4385 40.8807 49.6072 41.1152 50.0176C41.0174 49.3332 40.822 49.0398 40.0398 48.4531C40.3378 48.8629 40.4429 49.0012 40.5611 49.161V49.161Z" fill="#7B3F00"/>
<path d="M40.5875 49.1971C40.5865 49.1952 40.5837 49.1914 40.5826 49.1904C39.5621 49.5836 39.2028 49.6504 38.6585 49.6101C37.7314 49.9099 36.9672 50.2132 35.4442 50.2132C33.9211 50.2132 33.1569 49.9099 32.2299 49.6101C31.6855 49.6504 31.3262 49.5836 30.3058 49.1904C30.3047 49.1923 30.3019 49.1962 30.3008 49.1971C33.3724 50.5192 33.0366 50.9953 35.4441 50.9953C37.8516 50.9953 37.5158 50.5192 40.5875 49.1971H40.5875Z" fill="#7B3F00"/>
<path d="M30.3057 49.1903C30.3077 49.1874 30.3126 49.1806 30.3146 49.1779C30.2636 49.1661 30.2123 49.1553 30.1643 49.1377C30.2201 49.1596 30.2536 49.1702 30.3057 49.1903Z" fill="#7B3F00"/>
<path d="M40.5827 49.1903C40.6347 49.1702 40.6682 49.1596 40.724 49.1377C40.676 49.1552 40.6247 49.166 40.5737 49.1778C40.5757 49.1807 40.5806 49.1875 40.5827 49.1902V49.1903Z" fill="#7B3F00"/>
<path d="M27.5243 40.1421C28.2087 40.9243 28.5998 39.5554 31.0443 39.5554C33.4887 39.5554 33.8798 41.0221 34.2709 40.7287C34.662 40.4354 32.2176 38.6754 31.4354 38.5776C30.6531 38.4798 28.4043 39.2621 27.5243 40.1421ZM30.3598 41.0221C29.6754 41.6087 30.262 42.8798 30.9465 42.8798C31.6309 42.8798 32.902 41.7065 32.3154 40.9243" fill="#7B3F00"/>
<path d="M33.5864 41.9021C33.4886 40.7288 32.5109 40.5332 30.9464 40.5332C29.382 40.5332 28.6975 41.7065 28.1109 41.9999C28.7953 41.9999 29.382 41.0221 30.9464 41.0221C32.5109 41.0221 32.5109 41.0221 33.5864 41.9999M33.2931 42.1954C32.902 41.6088 32.4131 42.7821 31.3375 42.7821C30.262 42.7821 29.6753 42.4888 28.9909 41.9999C28.3064 41.511 29.9686 43.1732 31.0442 43.1732C32.1198 43.1732 33.5864 42.5865 33.2931 42.1954Z" fill="#7B3F00"/>
<path d="M35.4441 51.875C34.9552 51.875 33.6841 52.1683 35.4441 52.1683C37.2041 52.1683 35.933 51.875 35.4441 51.875Z" fill="#7B3F00"/>
</g>
<path fill-rule="evenodd" clip-rule="evenodd" d="M80 156C121.974 156 156 121.974 156 80C156 38.0264 121.974 4 80 4C38.0264 4 4 38.0264 4 80C4 121.974 38.0264 156 80 156ZM80 160C124.183 160 160 124.183 160 80C160 35.8172 124.183 0 80 0C35.8172 0 0 35.8172 0 80C0 124.183 35.8172 160 80 160Z" fill="black" fill-opacity="0.15"/>
</g>
<defs>
<clipPath id="clip0_1_15726">
<rect width="160" height="160" rx="80" fill="white"/>
</clipPath>
<clipPath id="clip1_1_15726">
<rect width="240" height="160" fill="white" transform="translate(-9)"/>
</clipPath>
</defs>
</svg>
