<svg width="160" height="160" viewBox="0 0 160 160" fill="none" xmlns="http://www.w3.org/2000/svg">
<g clip-path="url(#clip0_1_15712)">
<g clip-path="url(#clip1_1_15712)">
<path d="M264 0H-40V160H264V0Z" fill="#B22234"/>
<path d="M-40 18.4619H264H-40ZM264 43.0773H-40H264ZM-40 67.6927H264H-40ZM264 92.3081H-40H264ZM-40 116.923H264H-40ZM264 141.539H-40H264Z" fill="black"/>
<path fill-rule="evenodd" clip-rule="evenodd" d="M264 24.4619H-40V12.4619H264V24.4619ZM-40 37.0773H264V49.0773H-40V37.0773ZM264 73.6927H-40V61.6927H264V73.6927ZM-40 86.3081H264V98.3081H-40V86.3081ZM264 122.923H-40V110.923H264V122.923ZM-40 135.539H264V147.539H-40V135.539Z" fill="white"/>
<path d="M81.6 0H-40V86.1538H81.6V0Z" fill="#3C3B6E"/>
<path d="M0.533198 12.3076L3.42691 21.2135L-4.14893 15.7094H5.21532L-2.36051 21.2135L0.533198 12.3076Z" fill="white"/>
<path d="M0.533198 29.5381L3.42691 38.444L-4.14893 32.9398H5.21532L-2.36051 38.444L0.533198 29.5381Z" fill="white"/>
<path d="M0.533198 46.7695L3.42691 55.6755L-4.14893 50.1713H5.21532L-2.36051 55.6755L0.533198 46.7695Z" fill="white"/>
<path d="M0.533198 64L3.42691 72.9059L-4.14893 67.4018H5.21532L-2.36051 72.9059L0.533198 64Z" fill="white"/>
<path d="M10.6667 3.69238L13.5605 12.5983L5.98462 7.09415H15.3489L7.77303 12.5983L10.6667 3.69238Z" fill="white"/>
<path d="M10.6667 20.9229L13.5605 29.8288L5.98462 24.3246H15.3489L7.77303 29.8288L10.6667 20.9229Z" fill="white"/>
<path d="M10.6667 38.1543L13.5605 47.0602L5.98462 41.5561H15.3489L7.77303 47.0602L10.6667 38.1543Z" fill="white"/>
<path d="M10.6667 55.3848L13.5605 64.2907L5.98462 58.7865H15.3489L7.77303 64.2907L10.6667 55.3848Z" fill="white"/>
<path d="M10.6667 72.6152L13.5605 81.5212L5.98462 76.017H15.3489L7.77303 81.5212L10.6667 72.6152Z" fill="white"/>
<path d="M20.8 12.3076L23.6938 21.2135L16.1179 15.7094H25.4822L17.9063 21.2135L20.8 12.3076Z" fill="white"/>
<path d="M20.8 29.5381L23.6938 38.444L16.1179 32.9398H25.4822L17.9063 38.444L20.8 29.5381Z" fill="white"/>
<path d="M20.8 46.7695L23.6938 55.6755L16.1179 50.1713H25.4822L17.9063 55.6755L20.8 46.7695Z" fill="white"/>
<path d="M20.8 64L23.6938 72.9059L16.1179 67.4018H25.4822L17.9063 72.9059L20.8 64Z" fill="white"/>
<path d="M30.9333 3.69238L33.8271 12.5983L26.2512 7.09415H35.6155L28.0396 12.5983L30.9333 3.69238Z" fill="white"/>
<path d="M30.9333 20.9229L33.8271 29.8288L26.2512 24.3246H35.6155L28.0396 29.8288L30.9333 20.9229Z" fill="white"/>
<path d="M30.9333 38.1543L33.8271 47.0602L26.2512 41.5561H35.6155L28.0396 47.0602L30.9333 38.1543Z" fill="white"/>
<path d="M30.9333 55.3848L33.8271 64.2907L26.2512 58.7865H35.6155L28.0396 64.2907L30.9333 55.3848Z" fill="white"/>
<path d="M30.9333 72.6152L33.8271 81.5212L26.2512 76.017H35.6155L28.0396 81.5212L30.9333 72.6152Z" fill="white"/>
<path d="M41.0666 12.3076L43.9604 21.2135L36.3845 15.7094H45.7488L38.1729 21.2135L41.0666 12.3076Z" fill="white"/>
<path d="M41.0666 29.5381L43.9604 38.444L36.3845 32.9398H45.7488L38.1729 38.444L41.0666 29.5381Z" fill="white"/>
<path d="M41.0666 46.7695L43.9604 55.6755L36.3845 50.1713H45.7488L38.1729 55.6755L41.0666 46.7695Z" fill="white"/>
<path d="M41.0666 64L43.9604 72.9059L36.3845 67.4018H45.7488L38.1729 72.9059L41.0666 64Z" fill="white"/>
<path d="M51.1999 3.69238L54.0937 12.5983L46.5178 7.09415H55.8821L48.3062 12.5983L51.1999 3.69238Z" fill="white"/>
<path d="M51.1999 20.9229L54.0937 29.8288L46.5178 24.3246H55.8821L48.3062 29.8288L51.1999 20.9229Z" fill="white"/>
<path d="M51.1999 38.1543L54.0937 47.0602L46.5178 41.5561H55.8821L48.3062 47.0602L51.1999 38.1543Z" fill="white"/>
<path d="M51.1999 55.3848L54.0937 64.2907L46.5178 58.7865H55.8821L48.3062 64.2907L51.1999 55.3848Z" fill="white"/>
<path d="M51.1999 72.6152L54.0937 81.5212L46.5178 76.017H55.8821L48.3062 81.5212L51.1999 72.6152Z" fill="white"/>
<path d="M61.3332 12.3076L64.227 21.2135L56.6511 15.7094H66.0154L58.4395 21.2135L61.3332 12.3076Z" fill="white"/>
<path d="M61.3332 29.5381L64.227 38.444L56.6511 32.9398H66.0154L58.4395 38.444L61.3332 29.5381Z" fill="white"/>
<path d="M61.3332 46.7695L64.227 55.6755L56.6511 50.1713H66.0154L58.4395 55.6755L61.3332 46.7695Z" fill="white"/>
<path d="M61.3332 64L64.227 72.9059L56.6511 67.4018H66.0154L58.4395 72.9059L61.3332 64Z" fill="white"/>
<path d="M71.4665 3.69238L74.3603 12.5983L66.7844 7.09415H76.1487L68.5728 12.5983L71.4665 3.69238Z" fill="white"/>
<path d="M71.4665 20.9229L74.3603 29.8288L66.7844 24.3246H76.1487L68.5728 29.8288L71.4665 20.9229Z" fill="white"/>
<path d="M71.4665 38.1543L74.3603 47.0602L66.7844 41.5561H76.1487L68.5728 47.0602L71.4665 38.1543Z" fill="white"/>
<path d="M71.4665 55.3848L74.3603 64.2907L66.7844 58.7865H76.1487L68.5728 64.2907L71.4665 55.3848Z" fill="white"/>
<path d="M71.4665 72.6152L74.3603 81.5212L66.7844 76.017H76.1487L68.5728 81.5212L71.4665 72.6152Z" fill="white"/>
</g>
<path fill-rule="evenodd" clip-rule="evenodd" d="M80 156C121.974 156 156 121.974 156 80C156 38.0264 121.974 4 80 4C38.0264 4 4 38.0264 4 80C4 121.974 38.0264 156 80 156ZM80 160C124.183 160 160 124.183 160 80C160 35.8172 124.183 0 80 0C35.8172 0 0 35.8172 0 80C0 124.183 35.8172 160 80 160Z" fill="black" fill-opacity="0.15"/>
</g>
<defs>
<clipPath id="clip0_1_15712">
<rect width="160" height="160" rx="80" fill="white"/>
</clipPath>
<clipPath id="clip1_1_15712">
<rect width="304" height="160" fill="white" transform="translate(-40)"/>
</clipPath>
</defs>
</svg>
